<?xml version="1.0" encoding="utf-8"?>
<!-- Generator: Adobe Illustrator 19.2.1, SVG Export Plug-In . SVG Version: 6.00 Build 0)  -->
<svg version="1.1" id="Layer_1" xmlns="http://www.w3.org/2000/svg" xmlns:xlink="http://www.w3.org/1999/xlink" x="0px" y="0px"
	 viewBox="0 0 1108.3 1562" style="enable-background:new 0 0 1108.3 1562;" xml:space="preserve">
<style type="text/css">
	.st0{fill:none;stroke:#000000;stroke-width:25.5118;stroke-linejoin:bevel;stroke-miterlimit:10;}
	.st1{fill:none;stroke:#000000;stroke-width:11;stroke-linejoin:round;stroke-miterlimit:10;}
</style>
<title>savethedate-01</title>
<polygon points="797.4,321.7 795.5,328.6 807.5,324.5 "/>
<path d="M240.8,142.8l-11.4-9.1l-2.6-16.4l-1.8-22.2L218,72l-28.9-1.3L155,79.4l10.6,36.3l23-15.1l4.4,0.9l7.8,4.1l-29.1,11.9
	l-14,19.8l16.2,21.6l32.6-4l12-8.1l7.5,8.9h18L240.8,142.8z M201.7,124.3l-7.8,4.7l-4.7-1.2l9.4-8.3l5.9,9.1L201.7,124.3z"/>
<path d="M784.5,134.5l-8.8-8.7l-2-16.2L768.9,90l5.6-17.7l-30-9l-28.7,5l8.2,36.2L744,93l3.4,0.9l6,4.1l-37.7,10l-15.5,19.4l16.8,25
	l40.8-5.1l9.3-8.9l5.8,8.2h14L784.5,134.5z M756,117.4l-16.4,10.7l-6-7.8l18-8.3l4.4,9.1V117.4L756,117.4z"/>
<polygon points="234,70.5 234.9,83.4 231.3,94.9 241,127.4 253.2,159.6 277,154.3 293.4,129 299.4,82.4 312.5,67.9 278.4,55.8 
	268.7,78.9 265.2,114.2 263,80.4 "/>
<path d="M336.4,130.2l-5.1-10.7l40.4-14.1l1.8-24.5l-19.2-9.3l-21.4-6.7L299,93.4v46.9l19.6,17.4l49.8-9.9l-1.7-34.1L336.4,130.2z
	 M337.1,94.6h4.8l3.2,2.7l-13.9,5.4L337.1,94.6z"/>
<path d="M565.9,126.7l-5.1-5.2l41.6-13.8l1.9-24l-19.8-9.1l-20.8-6.6l-33.6,28v45.9l19.6,12.8h43.2l1.2-42.5L565.9,126.7z
	 M566.8,91.6h5l3.3,5.3l-14.3,3.9L566.8,91.6z"/>
<path d="M893.4,120.6l-5.3-5l41.2-15.5l0.8-24l-20.4-8.3L887.7,62l-33.1,29.4l2.2,45.8l21.6,13l43.5-1.7l-0.8-43L893.4,120.6z
	 M892.7,87.1l5-0.2l3.6,4.4l-14.2,4.8L892.7,87.1z"/>
<polygon points="145,95.4 159.1,44.5 110.4,31.7 64.4,54.1 63,97.2 120.6,123.1 114,128.9 76.6,105.3 56.5,160.5 85,166.9 
	128.9,162.6 159.1,146.2 154.7,97 120.6,91.6 105,80.2 118.4,72.5 "/>
<polygon points="398.9,45.8 380.8,69.8 383.2,109.4 404.8,96.8 399.6,124.3 390.5,148.9 438.4,166.5 447,144.1 433.8,130.9 
	445.7,82.8 461.4,84.3 493.1,49.8 459.6,41.6 443.9,50.2 409.3,58 "/>
<polygon points="461.4,84.3 471.3,87.5 465.3,131.1 447,147.7 450.8,170.2 489,158.7 489,123 497.4,109.8 501.4,134.9 491.4,154.4 
	506.1,162.5 528,153.5 528,129.2 521.7,133.1 522.9,89.2 504.5,77.3 491.6,90.1 492.7,70 493.1,49.8 "/>
<path d="M715.1,81l-47.4-38.4h-42l-17.3,18.8l15.5,10.4l-4.6,61.1l-15,19.5l44.2,7.3l48.2-21.4L715.1,81z M648.5,127.2l18.6-44.1
	l11.3,4l-6,26L648.5,127.2z"/>
<polygon points="786.9,87.6 782.5,48.2 826.7,55.7 819.2,76.4 816.1,87.6 830.7,76.7 851.5,98.2 830.9,114.8 814.4,111.4 
	821.8,132.7 837.4,127.9 850.7,136.6 841,151.6 808.5,151.6 787.3,130.4 775,96.6 "/>
<path d="M83.4,962.6H67v37.9c-0.1,1.3,0.1,2.5,0.5,3.7c0.7,1.1,2,1.7,3.3,1.5h11.9v12.2H70.4c-5.9,0-10.2-1.5-12.7-4.5
	s-3.8-7.7-3.7-14.2v-36.8H42.2v-12.3h11.7v-17.5H67v17.5h16.4V962.6z"/>
<path d="M156,981c0,10.3-3.4,18.6-10.3,25c-6.4,5.9-14.4,8.9-23.9,8.9s-17.5-3-23.8-8.9c-6.8-6.3-10.3-14.7-10.3-25
	c0-10,3.1-18.4,9.4-25.1c6.3-6.7,14.5-10.1,24.7-10c10.2,0,18.5,3.4,25,10.2C152.9,962.7,156,971,156,981z M142.2,981
	c0-6.7-1.9-12.1-5.7-16.3c-3.7-4.3-9.1-6.6-14.8-6.4c-6.1,0-11,2.1-14.7,6.3c-3.7,4.2-5.6,9.7-5.6,16.5c0,6.5,2,11.8,6,15.8
	c3.7,3.8,8.9,5.9,14.3,5.8c5.5,0.2,10.8-2,14.7-5.9C140.3,992.8,142.2,987.5,142.2,981L142.2,981z"/>
<path d="M267.5,995c-7.1,15.4-17.6,23.2-31.6,23.2c-9.1,0.1-17.7-3.8-23.6-10.7c-6.5-7-9.7-15.9-9.7-26.7c0-11.2,3.2-20.4,9.5-27.5
	c5.9-6.9,14.7-10.9,23.8-10.7c13.5,0,23.8,6.5,30.9,19.5l-12.9,5.8c-4.2-7.9-10.2-11.8-18-11.8c-4.8,0-8.9,2.1-12.5,6.2
	c-4,4.7-6,10.8-6,18.5c0,7.2,2,13.1,6,17.8c3.6,4.1,7.8,6.2,12.4,6.2c7.9,0,14.2-5.1,18.8-15.4L267.5,995z"/>
<path d="M330.7,991.1c-7.6,12.6-17.4,18.9-29.2,18.9c-9.3,0-16.5-3.3-21.9-10c-5.1-6.4-7.6-14.7-7.6-25c0-10.7,3-19.2,9-25.5
	c5.5-5.8,12.5-8.7,21-8.7c7.6-0.2,15,2.9,20.2,8.5c5.7,5.9,8.5,13.6,8.5,23.2v6h-45.4c1.5,12.8,6.9,19.2,16.2,19.2
	c7,0,12.9-4.2,17.6-12.7L330.7,991.1z M316.7,965.9c-2.8-8.5-7.7-12.7-14.7-12.7c-7.5,0-12.8,4.2-15.7,12.7H316.7z"/>
<path d="M355.7,1013l-13.2-0.4l2.8-93.8l13.2,0.4L355.7,1013z"/>
<path d="M422.5,996.2c-7.6,12.6-17.4,18.9-29.2,18.9c-9.3,0-16.5-3.3-21.9-10c-5.1-6.4-7.6-14.8-7.6-25c0-10.7,3-19.2,9-25.5
	c5.5-5.8,12.5-8.7,21-8.7c7.6-0.2,15,2.9,20.2,8.5c5.7,5.9,8.5,13.6,8.5,23.2v6h-45.4c1.4,12.8,6.8,19.2,16.2,19.2
	c7,0,12.9-4.2,17.6-12.7L422.5,996.2z M408.5,971c-2.8-8.5-7.7-12.7-14.6-12.7c-7.5,0-12.8,4.2-15.7,12.7L408.5,971z"/>
<path d="M490.4,978.3c0.1,10.5-2.9,19.1-8.9,26c-5.7,6.5-12.6,9.7-20.8,9.8c-8.2,0.1-16-3.1-21.7-9l0.1,8.1l-13.4,0.1l-0.7-93.8
	l13.4-0.1l0.3,34.2c5.6-5.2,13-8.2,20.6-8.3c8.6-0.3,16.9,3.3,22.6,9.7C487.4,961.5,490.3,969.2,490.4,978.3z M476.6,978.4
	c0-6.1-1.7-11-4.9-14.8c-3.2-3.7-7.6-5.6-13.3-5.6c-5.3-0.1-10.3,2.1-13.8,6c-3.9,4.3-6,10-5.8,15.9c0.1,7.1,2.1,12.6,6,16.5
	c3.7,3.7,8.7,5.5,14.8,5.4c4.7,0,8.7-2.2,12-6.5C474.9,991,476.6,985.4,476.6,978.4L476.6,978.4z"/>
<path d="M538.3,961.8c-15.7,1-23.4,7.9-23.1,20.7l0.8,33.7l-13.1,0.3l-1.5-66.2l13.1-0.3l0.2,8.4c2.7-3.3,6.3-5.8,10.2-7.3
	c4.2-1.3,8.6-2,13.1-2L538.3,961.8z"/>
<path d="M597.7,1014.1l-12.9,0.1c-1.2-2.8-2-5.8-2.4-8.9c-6.8,6.7-14.5,10-23,10c-6.3,0-11.5-1.6-15.7-4.8c-4.2-3.1-6.5-8-6.4-13.2
	c-0.1-8.6,3.7-14.9,11.2-19.1c7-3.9,18-6.2,33.1-6.9c-0.5-4.6-1.9-7.9-4.2-9.9c-2.2-2-5.6-2.9-9.9-2.9c-6.3,0-11.2,3-14.7,9
	l-12.3-5.6c5.9-10.3,14.9-15.5,27-15.6c9.2-0.1,16.1,2.5,20.9,7.7c4.5,4.9,6.8,11.9,6.8,20.9l0.2,28.4
	C595.4,1007.1,596.1,1010.8,597.7,1014.1z M581.9,983.5c-20.7,0.6-31,5.2-30.9,13.8c0,1.4,0.6,2.8,1.7,3.7c1.6,1.4,3.8,2.2,6.7,2.1
	c5.4,0,10.5-1.9,14.6-5.3C578.3,994.1,581.1,989,581.9,983.5z"/>
<path d="M636.8,961.9l-16.2-1.6l-3.8,37.8c-0.2,1.2-0.2,2.5,0.1,3.8c0.6,1.2,1.8,1.9,3.2,1.9l11.8,1.2l-1.2,12.1l-12.3-1.2
	c-5.9-0.6-10-2.5-12.2-5.7c-2.3-3.2-3-8.1-2.3-14.4l3.6-36.6l-11.6-1.2l1.2-12.3l11.6,1.2l1.7-17.4l13,1.3l-1.7,17.4l16.2,1.7
	L636.8,961.9z"/>
<path d="M705,995.1c-7.2,12.8-16.7,19.5-28.5,19.8c-9.3,0.3-16.6-2.8-22.2-9.3c-5.3-6.3-8.1-14.5-8.4-24.7
	c-0.4-10.7,2.4-19.3,8.2-25.7c5.3-6,12.2-9.1,20.7-9.4c7.6-0.4,15.1,2.4,20.5,7.8c5.8,5.7,8.9,13.3,9.2,22.8l0.2,6l-45.4,1.6
	c1.9,12.7,7.4,18.9,16.8,18.6c7-0.2,12.8-4.7,17.2-13.3L705,995.1z M690.2,970.3c-3.1-8.4-8.1-12.5-15.1-12.2
	c-7.5,0.2-12.6,4.7-15.3,13.2L690.2,970.3z"/>
<path d="M799,964.1l-17.2-0.2l-0.4,39.9c-0.1,1.3,0.1,2.7,0.5,3.9c0.6,1.1,1.8,1.6,3.5,1.7l12.5,0.1l-0.1,12.9l-13-0.1
	c-6.2-0.1-10.7-1.7-13.3-4.9c-2.7-3.2-3.9-8.2-3.8-14.9l0.4-38.7l-12.3-0.1l0.1-13l12.3,0.1l0.2-18.4l13.8,0.2l-0.2,18.4l17.2,0.2
	L799,964.1z"/>
<path d="M865.2,1017.6l-13-0.3l1-40c0.1-5.6-0.8-9.6-2.8-12c-2-2.4-5.7-3.7-11.2-3.7c-8.7-0.2-15.6,4.9-20.7,15.3l-1,39.6l-13.1-0.3
	l2.2-93.8l13.1,0.3l-0.8,34.8c6.1-5.9,13-8.7,20.5-8.5c18.3,0.4,27.2,10,26.7,28.7L865.2,1017.6z"/>
<path d="M937,1000.2c-7.4,12.7-17.1,19.2-28.9,19.3c-9.3,0.1-16.6-3.1-22-9.7c-5.2-6.4-7.8-14.6-8-24.8c-0.2-10.7,2.7-19.2,8.6-25.6
	c5.4-5.9,12.3-8.9,20.8-9c7.6-0.3,15,2.7,20.3,8.2c5.7,5.8,8.7,13.5,8.8,23l0.1,6l-45.4,0.7c1.6,12.8,7.1,19.1,16.5,18.9
	c7-0.1,12.8-4.4,17.4-13L937,1000.2z M922.6,975.2c-3-8.4-7.9-12.6-14.8-12.5c-7.5,0.1-12.7,4.4-15.5,13L922.6,975.2z"/>
<path d="M971.2,936.1l-13.1,0.2l-0.3-13.8l13.1-0.2L971.2,936.1z M972.8,1016.2l-13.2,0.2l-1.3-66.3l13.2-0.2L972.8,1016.2z"/>
<path d="M1026.8,963.6c-15.7,0.6-23.5,7.3-23.6,20.2l0,33.7h-13.1l0.1-66.2h13.1v8.4c2.8-3.2,6.4-5.7,10.4-7.1
	c4.3-1.2,8.7-1.8,13.1-1.7L1026.8,963.6z"/>
<path d="M371.5,1091.5l-1.7,44.7l-14.6-0.5l1.7-45.4c0.2-5.8-0.5-9.9-2.2-12.4s-4.5-3.8-8.5-3.9c-4,0-7.9,1-11.3,3
	c-3.7,1.8-6.9,4.5-9.5,7.7c0.1,2.3,0.1,4,0.1,5.1l-1.7,44.7l-14.6-0.5l1.7-44.7c0.4-11-3.2-16.7-10.9-17c-3.8,0-7.5,1-10.7,2.9
	c-3.5,1.8-6.5,4.3-8.9,7.5l-1.9,50.2l-14.6-0.5l2.7-73.7l14.6,0.5l-0.3,6.9c6.9-5,13.4-7.4,19.5-7.2c9.6,0.4,16.8,4.6,21.5,12.7
	c8.1-7.6,16.3-11.3,24.6-11c9,0.3,15.6,3.7,19.9,9.9C370.2,1075.8,371.8,1082.8,371.5,1091.5z"/>
<path d="M445.7,1128.5l-12.9,0.2c-1.2-2.8-2.1-5.8-2.5-8.8c-6.7,6.7-14.4,10.2-22.8,10.3c-6.3,0.1-11.5-1.4-15.8-4.6
	c-4.2-3-6.6-7.9-6.5-13.1c-0.2-8.6,3.5-15,11-19.2c7-4,18-6.4,33-7.3c-0.6-4.6-2-7.9-4.3-9.8s-5.6-2.9-10-2.8
	c-6.3,0.1-11.1,3.2-14.6,9.1l-12.4-5.4c5.7-10.4,14.7-15.7,26.9-15.9c9.2-0.2,16.2,2.3,21,7.5c4.5,4.9,6.9,11.8,7.1,20.8l0.5,28.4
	C443.3,1121.5,444.1,1125.2,445.7,1128.5z M429.6,1098c-20.7,0.8-30.9,5.5-30.7,14.2c0,1.4,0.7,2.8,1.7,3.7c1.6,1.4,3.8,2.1,6.7,2.1
	c5.4,0,10.5-2,14.6-5.5C426.1,1108.7,428.8,1103.6,429.6,1098z"/>
<path d="M493.7,1075.7c-15.7,0.1-23.8,6.6-24.2,19.4l-1.1,33.7l-13.1-0.4l2.2-66.2l13.1,0.4l-0.3,8.3c2.9-3.1,6.6-5.5,10.6-6.7
	c4.3-1.1,8.7-1.5,13.2-1.2L493.7,1075.7z"/>
<path d="M542.6,1075.1c-15.7,0.6-23.6,7.3-23.6,20.2v33.7h-13.1l0.1-66.2H519v8.4c2.8-3.2,6.4-5.7,10.4-7.1
	c4.3-1.2,8.7-1.8,13.1-1.7L542.6,1075.1L542.6,1075.1z"/>
<path d="M563,1050.4l-13.1,0.2l-0.2-13.8l13.1-0.2L563,1050.4z M564.4,1130.5l-13.2,0.2l-1-66.3l13.2-0.2L564.4,1130.5z"/>
<path d="M636.6,1128.2h-12.9c-1.2-2.8-2-5.8-2.3-8.9c-6.9,6.6-14.5,9.9-23,9.9c-6.3,0-11.5-1.6-15.7-4.9c-4.1-3.1-6.5-8.1-6.3-13.2
	c0-8.6,3.8-14.9,11.3-19c7-3.9,18.1-6.1,33.2-6.7c-0.5-4.6-1.9-7.9-4.1-9.9c-2.2-2-5.5-3-9.9-3c-6.3,0-11.2,3-14.8,8.9l-12.3-5.7
	c5.9-10.3,15-15.4,27.1-15.4c9.2,0,16.1,2.6,20.8,7.9c4.5,5,6.7,12,6.7,21v28.4C634.4,1121.2,635.2,1124.8,636.6,1128.2z
	 M621.1,1097.5c-20.7,0.4-31,5-31,13.6c0,1.4,0.6,2.8,1.7,3.7c1.5,1.5,3.8,2.2,6.7,2.2c5.4,0.1,10.6-1.8,14.7-5.3
	C617.4,1108.1,620.2,1103,621.1,1097.5z"/>
<path d="M703.8,1118.7c0,9.3-2.7,16.9-8.2,22.8c-5.5,5.8-12.7,8.8-21.6,8.7c-12.9,0-22.4-5.5-28.4-16.6l11.6-5.5
	c3.9,6.6,9.6,9.9,16.8,9.9c4.6,0.2,9-1.7,12.1-5c3.1-3.4,4.6-8.2,4.6-14.3v-2.3c-5.6,5.5-11.5,8.2-17.8,8.2c-8.7,0-15.8-3-21.5-8.9
	c-5.7-5.8-8.8-13.6-8.6-21.7c-0.2-8.1,2.9-16,8.5-21.9c5.7-6,12.9-9,21.6-9c6.5,0.1,12.8,2.4,17.8,6.6v-5.5h13.1V1118.7
	L703.8,1118.7z M690.5,1093.5c0.1-4.8-1.6-9.5-4.9-13c-3.2-3.4-7.4-5.1-12.7-5.1c-4.5,0-8.8,2-11.7,5.4c-3.2,3.7-4.9,8.4-4.8,13.2
	c-0.1,4.7,1.7,9.3,4.9,12.7c2.9,3.4,7.1,5.3,11.6,5.3c4.7,0.1,9.2-1.6,12.6-4.9C688.9,1103.8,690.5,1099.3,690.5,1093.5
	L690.5,1093.5z"/>
<path d="M774.1,1113.2c-7.6,12.6-17.4,18.9-29.2,18.9c-9.3,0-16.5-3.3-21.9-10c-5.1-6.4-7.6-14.7-7.6-24.9c0-10.7,3-19.2,9-25.5
	c5.5-5.8,12.5-8.7,21-8.7c7.6-0.2,15,2.9,20.2,8.5c5.7,5.9,8.5,13.6,8.5,23.2v6h-45.4c1.5,12.8,6.9,19.2,16.2,19.2
	c7,0,12.9-4.2,17.6-12.7L774.1,1113.2z M760.1,1088c-2.8-8.5-7.7-12.7-14.7-12.7c-7.5,0-12.8,4.2-15.7,12.7H760.1L760.1,1088z"/>
<path d="M167.4,313.6l2-9.2l-18.4-4l-2,9.2c-12.3,57.3-37.9,143-56,154.1l-0.4,0.2c-1.3-3-3.8-12.5-2-38.2
	c1.3-18.4,4.2-35.4,4.3-35.5l-17.9-5.5c-0.2,0.5-19.6,43.4-35.2,69.9c2.5-19.4,8.8-50.6,16.9-83l2.3-9.1L42.7,358l-2.3,9.1
	c-0.1,0.3-6.7,26.7-11.9,53.3c-3.1,15.8-5.2,28.7-6.1,38.3c-1.2,12.2-1.6,24.4,7.2,28.5c1.5,0.7,3.2,1.1,4.8,1.1
	c7.2-0.1,12.6-7.4,14.6-10.2c6.6-9,14.6-23.4,22.1-37.8c-0.3,28.3,5.8,36.5,11.3,40.2c3.4,2.3,10.5,5.2,20.4-0.8
	c5.4-3.3,21.7-13.3,45.4-92.2C159.5,349.9,167.3,314,167.4,313.6z"/>
<rect x="120" y="427.3" transform="matrix(0.2059 -0.9786 0.9786 0.2059 -297.5274 506.8314)" width="86.9" height="18.9"/>
<path d="M274.9,426c3.6,0.6,7.1,1.9,10.3,3.7l2.2-1.2l8.3-4.5l-9.1-16.5l-6.2,3.4c-4.9,9.1-5.7,13.5-5.7,15.1L274.9,426z"/>
<path d="M255.3,434c-1.3-3.1-1.7-6.5-1.4-9.8c-13,7.1-29.1,15.8-41.6,22.5c1.8-17.8,14.8-64,37-122.4l3.4-8.8l-17.6-6.7l-3.4,8.8
	c-0.1,0.3-12.3,32.3-22.7,65.2c-6.2,19.5-10.6,35.6-13.1,47.8c-4.1,19.9-3.4,29.8,2.7,35.1c2.3,2,5.3,3.2,8.4,3.2
	c2.7,0,5.3-0.7,7.6-2c12.7-6.6,31.9-17,47.1-25.3C258.8,439.7,256.6,437.1,255.3,434z"/>
<path d="M362.3,387.8c-8.1,8.2-16,16.3-23.5,24.2l-0.9,1.6c-13.7,25.4-16.9,40.1-10.7,49.2c2.3,3.4,6.5,6.9,14.1,6.9
	c2.5,0,4.9-0.3,7.3-0.9c11.5-2.7,22.2-12.5,31-28.2c7.3-13.4,12.3-27.9,15-42.9c2.6-14.9,3.3-34.3-8.1-41.8
	c-3.6-2.4-11.5-5.3-22.7,2.2l-7.9,5.2l6.8,10.3l-0.6,1l6.7,6.7L362.3,387.8z M371,413.9c-7,20-17.4,34.3-26.6,36.5
	c-0.5,0.1-0.9,0.2-1.2,0.2c0.4-3.6,2.6-12.2,12.8-30.6c8.4-15.1,18.2-29.7,21-33.8l0.2-0.3C376.3,395.5,374.2,404.9,371,413.9z
	 M376.5,372.5c0.3,0.8,0.5,1.6,0.6,2.4l-2.2-1.5C375.4,373.1,375.9,372.8,376.5,372.5z"/>
<path d="M278.4,410.8L278.4,410.8c4.7-8.5,9.9-16.7,15.6-24.7c-1.1,4.9-2.5,10.2-4,15.3l-2.7,9l18.1,5.4l2.7-9
	c0.1-0.4,3.1-10.2,5.2-20.6c2.9-13.9,5-27.8-4.7-32.6c-10.9-5.3-20.8,8.6-26.7,16.9c-16.6,23.4-27,40.7-28,53.6
	c12.6-6.9,22.2-12.1,22.4-12.3L278.4,410.8z"/>
<path d="M270,444.6c3,0.5,6.5,2.8,9.5,6c-2.4,2.9-4.5,5.7-6.5,8.3c-10.5,14.1-15.7,23.8-11,31.6c1.4,2.4,4.5,5.8,10.8,5.8
	c2.2,0,4.3-0.4,6.4-1c17.1-5,26.8-17,25.8-32.1c-0.3-3.7-1.1-7.4-2.4-10.8c9.9-11.7,22.5-25.6,36.4-40.3
	c8.9-16.3,19.5-31.9,22.6-36.4l0.8-1.1l-6.6-6.6l-6.6,6.7c-0.2,0.2-23.5,23.7-45.7,48.3c-4.2,4.7-8.1,9.1-11.6,13.2
	c-2.5-2.5-5.3-4.6-8.4-6.3c-3.7,2-11.9,6.5-21.6,11.8C264.2,443.2,267,444.2,270,444.6z"/>
<polygon points="399.9,477.1 400.5,477.1 399.9,477 "/>
<polygon points="404.4,477.8 404.5,477.3 400.5,477.1 "/>
<path d="M421.7,483.9l0.4-9.4c0.9-21,2.4-41.2,4.1-56.1c0.8,2.5,1.6,5,2.4,7.5c10.2,32.6,14.3,43.9,24.1,45.4
	c4.4,0.6,8.8-1.4,11.2-5.1c7.3-10.5,25.2-77.7,30.5-98.1l2.4-9.1l-18.2-4.8l-2.4,9.1c-7.6,29-16.6,60.7-22.5,78.5
	c-2.4-6.8-5-15.1-7.1-21.6c-3.6-11.5-7.4-23.4-10.9-31.7c-2.8-6.6-6.9-8.6-10-9l-18.2,103.9L421.7,483.9z"/>
<path d="M402.9,483l0.4-9.3c0-0.2,0.9-21.4,2.7-42.6c1.1-12.6,2.3-22.7,3.6-30.1c1.9-10.5,4.2-20,12.6-21.6c1.1-0.2,2.3-0.2,3.4-0.1
	l8.3-47.7l-18.6-3.2l-26.6,152.1L402.9,483z"/>
<path d="M664.5,404.3l6.8-25.2c0.7,4.4,1.3,11.4,1.2,22.1l18.8-7.3c-0.5-25.3-5.4-37-16-39.4c-3.6-0.8-7.5,0-10.5,2.1
	c-2.3,1.6-4.4,3.6-6,6l-2.3-0.8c-0.3,0.6-28.3,60.4-77.7,95.9c-4.5,3.3-7.2,4.2-8.3,4.5c-1.7-3.8-3-19.4,7.4-55.9
	c7.4-26.1,18.7-54.3,26.4-66.6c1.1,12.1,0.3,34.8-2.4,57.4l-1.1,9.4l18.7,2.2l1.1-9.4c0.1-0.7,2.1-18,2.8-36.1
	c1.2-31.1-2-44-11.9-47.6c-11.2-4.1-19.6,8.5-22.3,12.6c-9.1,13.7-21.7,44.9-29.9,74.4c-16.6,59.3-5.3,70.2-1.6,73.8
	c3.1,3.1,7.4,4.8,11.8,4.8c7.1,0,14.5-3.9,20.3-8.1c18.2-13.1,33.6-28.9,46-44.3l-4.5-11.5L664.5,404.3z"/>
<path d="M636.1,429.2c-5.1,21.6-8.6,40.2-8.6,40.4l18.4,4.2l12.6-46.9l-20.2,7.9L636.1,429.2z"/>
<path d="M669.1,448.5l-1.2,9.4l18.7,2.4l1.2-9.4c0.1-0.8,2.3-17.7,3.2-36.7l-19.3,7.5C670.6,436.4,669.1,448.3,669.1,448.5z"/>
<path d="M709.5,386.8l-18.2,7.1c0.1,4.4,0,9.2-0.1,14.5c-0.1,2-0.2,3.9-0.2,5.9l15.8-6.1c0.8-5.9,1.8-12.2,2.8-18.5
	C709.5,388.7,709.5,387.7,709.5,386.8z"/>
<path d="M744.4,393.4l-3.1-8c0.5,2.8,1,5.7,1.5,8.6L744.4,393.4z"/>
<path d="M672.5,401.2l-8,3.1l-6.1,22.6l13.2-5.1c0.2-3,0.4-6.1,0.5-9.2C672.3,408.3,672.5,404.6,672.5,401.2z"/>
<path d="M635.8,428.7l0.2,0.5l0.3-1.1L635.8,428.7z"/>
<path d="M776.6,395.5c0.9-6.3,1.6-11.7,2.2-16.1c0.6-4.7,1-8.3,1.2-10.9c0.3-3.8,0.9-11.5-6.7-13.9c-4.8-1.4-9.8,1-11.7,5.6
	c-2.3,5-9.8,27.6-16.2,47.2c-0.8-4.3-1.6-8.8-2.5-13.4l-36.1,14v0.3c-2.1,14.3-3.6,26.6-4.5,35.5c-1.5,14.5-2.3,22.5,5.2,25.8
	c1.2,0.5,2.6,0.8,3.9,0.8c3.5,0,6.8-1.9,8.5-4.9c2.7-4.2,5.6-13,7.5-46.6c0.1-1.4,0.2-2.8,0.2-4.2c1.1,5.7,2.2,10.7,3.1,14.8
	c2.8,12.3,4.6,18.8,11.4,20.4c2.6,0.6,5.3,0.1,7.5-1.4l-0.8,5l-1.5,9.3l18.6,3l1.5-9.3c0-0.2,3.7-23,7-45.5
	c0.7-4.5,1.3-8.6,1.8-12.5l-1.2-2.2L776.6,395.5z"/>
<path d="M741.3,385.5c-2.8-16.6-5.1-32-5.3-36.2c0-4.8-3.7-8.9-8.5-9.5c-1.4-0.1-8.3-0.5-10.6,8.2c-1.1,4-2.9,14.2-5,26.4h-2.3
	l-0.1,9.4c0,1,0,2,0,3l28.1-10.9L741.3,385.5z"/>
<path d="M831.9,412.5l-3.4-4.5l-7.5,5.8c-6.7,5.1-18.5,12.8-27.5,16.4c0.2-5.2,1.2-13.5,3.1-24l-12.5,6.7l-5.9-10.9
	c-6,33.1-3,40.4,0.7,44.7c2.2,2.6,5.5,4.2,9,4.2c0.5,0,1,0,1.5-0.1c13.8-1.7,32.3-14.1,39.9-19.6c0.4-3.3,0.8-6.8,1.3-10.3
	C831,418,831.4,415.2,831.9,412.5z"/>
<path d="M811,343.2l-21.3,7.3c-2.2,8.8-4.9,19.5-7.3,30.5c-1,4.6-1.9,8.8-2.7,12.8l21.7-11.7C804,370.5,807.2,357.4,811,343.2z"/>
<path d="M776.6,395.5l-0.4,3l1.9,3.6c0.5-2.6,1-5.3,1.6-8.2L776.6,395.5z"/>
<path d="M833.3,386.3l-9-16.6l-23,12.4c-2,8.9-3.6,17-4.9,24L833.3,386.3z"/>
<path d="M795.5,328.6l-14.8,5.1l6.1,17.8l2.9-1c3-11.6,5.2-19.6,5.2-19.7L795.5,328.6z"/>
<path d="M813,335.8c-0.7,2.5-1.3,5-2,7.4l64-21.9l-6.1-17.8l-61.5,21l8.1,2.2L813,335.8z"/>
<path d="M1076.6,289.8l-1.3,9.3c-3.8,26.8-12.5,86.9-17.8,119.8c-9.5-22.1-22.2-58.2-25.5-75.9c-2-10.5-8-12-11.5-11.9
	c-6.8,0.2-9.9,5.8-12,13.1c-5.8,0.8-12.6,4.5-20.7,9.7c-0.2-0.5-0.5-0.9-0.8-1.4c-3.3-5.4-9.3-8.5-15.6-8
	c-6.8,0.4-13.5,2.5-19.2,6.2c-1.3-0.2-2.7-0.2-4,0.1c-6,1.5-9.3,6-27.7,37.6c-6.6,11.4-14.2,24.4-17.3,28c-7,8-22.2,20.9-33.4,21.5
	c-2.5,0.2-5-0.5-7-2.1c-0.1-1.6,0.3-6.5,5.4-19c4.3-10.5,10.4-22.3,16.2-33.8c4.9-9.5,9.5-18.5,12.5-25.6c2.8-6.6,7.5-17.7-0.5-23.9
	c-7-5.4-15.3-0.2-18.5,1.8c-4.7,2.9-10.9,7.8-19,14.9c-3.3,3-6.3,6.3-8.8,10l-12.6-1.2l-4.8,49.2c-0.3,1.4-0.5,2.9-0.8,4.4l8,10.5
	l-7.5,5.7c-0.5,0.4-1.6,1.2-3.2,2.4c-1.4,12.4-2.2,24.8-2.3,37.2l18.8,0.9l2.1-21.8c0.4,0.4,0.8,0.9,1.2,1.2
	c5.8,5.6,13.6,8.5,21.7,8c8.8-0.4,18.4-4.4,28.7-11.7c3.5-2.5,6.8-5.3,10-8.2c0.4,2.2,1.2,4.3,2.2,6.2c2,3.5,7.1,9.5,18.5,9.5h0.2
	c16.6,0,32.8-12.6,45.6-35.6c7.2-13,12.9-28.6,14.4-42c4.2-2.8,9.3-6.2,13.4-8.6c-1,5.6-2.1,11.9-3.2,19.1
	c-3.6,22.9-6.5,46.1-6.5,46.4l18.7,2.5c0.1-0.4,4.9-33.1,8.8-58.3c3.4,10.6,7.4,21.8,11,31.4c4.5,11.8,8.7,21.8,12.3,29.2
	c5.6,11.4,9.6,17.2,16.5,17.4c4.2,0.1,9.1-2.5,10.7-8.6c3.5-13.9,20.1-130.3,22-143.5l1.3-9.3L1076.6,289.8z M871.2,364.4l2.7-2.3
	c-2.1,4.2-4.3,8.6-6.3,12.5c-6,11.7-11.2,22.1-15.2,31.3C857,385.6,863.5,371.1,871.2,364.4z M960,406.6c-9.1,16.8-20.5,27-29.8,27
	h-0.1c-0.8,0-1.5,0-2.3-0.1c-0.3-1.1-1.1-6.4,5.8-21.8c2.9-6.6,6.5-13.3,10.1-19.7c3.1,1.5,6.5,2.1,9.9,1.8c4.2-0.3,8.7-2,14-4.8
	C965.6,395,963.1,400.9,960,406.6z M955.2,374.1c0.6-1.2,1.4-2.4,2.3-3.5c3.5-4.1,8.4-6.7,13.8-7.2c0.1,0.4,0.2,0.7,0.2,1.1
	C965.9,368.4,959.4,372.4,955.2,374.1L955.2,374.1z"/>
<polygon points="447.8,619.5 465.9,624.6 482.2,566.9 458.6,581 "/>
<polygon points="493.9,525.6 481.2,522 479.2,527.6 474.3,525.9 466.1,554.5 489.7,540.4 "/>
<path d="M481.2,522l1.1-3.3c3.3-9.6,8-19.5,11.6-25.1c0.2,0.8,0.4,1.6,0.7,2.7c2.4,11,3.8,24.7,4.6,38.4l18.2-10.9
	c-0.8-10.6-2.2-21.2-4.4-31.7c-1.1-5-4.5-20.4-16.8-21.1c-11-0.6-18.5,11.7-23.8,22.6c-3,6.1-5.6,12.4-7.9,18.8l-3.1,8.9l12.8,4.5
	l1.5-5.4L481.2,522z"/>
<path d="M499.6,595.2l-0.4,9.4l18.8,0.9l0.4-9.4c0.1-1.6,1.1-24.7,0.1-51L500,556.2C500.4,577.7,499.6,594.9,499.6,595.2z"/>
<polygon points="439.4,570.6 449,586.8 458.6,581 466.1,554.5 "/>
<path d="M546,506.7l-28.7,17.2c0.6,7.1,1,14.3,1.2,21.3l35.9-21.5l0.5-2.2L546,506.7z"/>
<path d="M489.7,540.4l-7.5,26.5l17.8-10.6c-0.1-6.9-0.4-14.2-0.8-21.5L489.7,540.4z"/>
<path d="M614.8,483.4l-24.6,92.1c-2-11.2-4.1-23.4-6-34.8l9-23.2l-13.2-5.1c-0.3-2.4-0.5-4.6-0.7-6.7c-0.9-9.6-8.2-10.3-9.7-10.4
	c-8-0.2-10.2,7.6-11.2,11c-0.8,2.8-1.7,6.6-2.8,11.7c-0.2,1.1-0.5,2.2-0.7,3.5l0.8,1.4l-1.3,0.8c-1.5,7.5-3.3,17-5.3,28.3
	c-4.3,24.3-8.3,48.9-8.3,49.2l18.1,4.9l12.1-31.1c4.2,23.5,8.1,43.4,8.4,45l18.4,0.6l35.4-132.3L614.8,483.4z"/>
<path d="M639.3,622.9l3.8-20.8l-16.2,18.5L639.3,622.9z"/>
<path d="M656.7,527.4c-5.6,0.1-11.2,0.7-16.8,1.7l-2.8,0.5l-11.6,64c6.5-7.5,15-17.1,24.2-27.7L656.7,527.4z"/>
<path d="M660.1,508.6l1.3-7.4l-18.5-3.4l-2.2,12.1c5.4-0.8,10.9-1.2,16.4-1.3C658.2,508.6,659.1,508.6,660.1,508.6z"/>
<path d="M636.3,510.6l-9.3,1.8l3.6,18.5l6.5-1.2l3.6-19.8C638.1,510.2,636.5,510.6,636.3,510.6z"/>
<path d="M673.8,530.7c0,0,1.7,5.6-13,22.5L649.7,566l-6.6,36.2c8.8-10.1,20.2-23.1,32-36.6c6-6.9,24.5-28,15.1-44.3
	c-4.7-8.1-14.8-12.4-30.1-12.7l-3.4,18.8C665.7,527.3,672.6,528.6,673.8,530.7z"/>
<path d="M626.2,621.4l0.7-0.8l-6.1-1.1l4.7-25.9L612,609l-6.2,7.1l14.2,12.4L626.2,621.4z"/>
<polygon points="246.5,648.7 253.1,666.4 302.2,648.3 306.9,626.4 "/>
<polygon points="394.5,614.2 388,596.5 327.8,618.7 323.1,640.5 "/>
<polygon points="302.2,648.3 269.6,800.2 288.1,804.2 323.1,640.5 "/>
<polygon points="331.2,602.5 312.8,598.6 306.9,626.4 327.8,618.7 "/>
<path d="M393.2,741.9c-8,0.6-10.9-0.3-11.8-0.7c-0.1-1.1,0-5.3,5.4-16.3c2.2-4.5,4.6-9.3,7-13.8c15.3-30.2,24.5-48.3,15-57.8
	c-7.5-7.5-18.9-1.5-22.7,0.4c-2.5,1.3-4.9,2.9-7,4.8c-1-1.4-2.2-2.6-3.6-3.7c-7.4-5.5-16.9-3.4-22.8,0l9.5,16.3
	c0.7-0.3,1.4-0.6,2.1-0.8c0.6,2.2,0.8,4.5,0.6,6.7c-6.1,10.2-13.2,25.1-21.1,46.7c-10.3,28.1-17.1,54-17.4,55.1l17,7.6
	c0.6-1,10.4-15.7,20.5-38.7c0.7,1.8,1.6,3.5,2.8,5.1c5.6,7.1,15.2,9.1,29.9,7.7l6.2-19.8C399,741.3,395.9,741.7,393.2,741.9z
	 M383.3,683c2.2-3.5,4.8-6.8,7.7-9.7c-2.4,5.9-6,13.3-9.4,20.1C382.3,690,382.9,686.5,383.3,683z"/>
<path d="M430.9,754.4l-4.2-18.4l-3.1,0.7l-6.5,20.6C421.5,756.5,426,755.5,430.9,754.4z"/>
<path d="M393.1,771.1l18,5.6l6.1-19.4c-6.9,1.4-13.8,2.5-20.8,3.2L393.1,771.1z"/>
<path d="M416.5,697.2l23.9-14l5.3-16.8l-18-5.6l-25,80.1c5.8-0.9,12.7-2.2,21-4.1l8.3-26.8l-6,3.5L416.5,697.2z"/>
<path d="M461.3,645.4c-3.6-11-10-13.9-14.6-14.3c-3.8-0.4-13.6,0.6-23,17.2l16.5,9.2c1-1.8,2.2-3.5,3.5-5.1
	c1.6,5.5,2.8,15.2,3.9,26.5l17.9-10.5C464.4,658.8,463,650.5,461.3,645.4z"/>
<path d="M451.1,747.6l18.9-0.4c-0.1-4.9-0.7-32.2-2.6-58.1l-18.2,10.7C450.3,718.5,450.9,737.3,451.1,747.6z"/>
<path d="M440.4,683.1l-8.4,26.8l17.1-10c-0.4-7.2-1-14.3-1.5-20.9L440.4,683.1z"/>
<path d="M472.9,664l-7.5,4.4c0.7,6.5,1.4,13.5,1.9,20.7l12.8-7.5c0.3-1.2,0.7-2.4,1-3.5L472.9,664z"/>
<path d="M536.2,712.7l-14.4-12.1c-16.6,19.8-24.6,24.2-27.4,25.1c-0.9-2.5-1.7-9.2,0.3-22.1c2.1-12.6,5.5-24.9,10.2-36.8l0.5-1.3
	c0,0.5,0,0.9,0,1.3l18.8,0.4c0.1-4.3-0.1-8.6-0.5-12.8c-0.5-5.6-1.8-18.8-12-20.9c-11.6-2.4-18.4,11.6-24.3,26.2
	c-2.4,6-4.6,12.2-6.3,18.5l1.3,2.2l-2.3,1.3c-2,7.3-3.5,14.8-4.6,22.3c-2.8,20.6,0.2,33.2,9,38.5c2.6,1.6,5.6,2.4,8.6,2.4
	c4.7,0,10-1.9,15.7-5.7C516.5,734.1,525.5,725.4,536.2,712.7z"/>
<polygon points="554.3,652.9 535.6,655 542.1,713.3 557.5,681.2 "/>
<polygon points="557.5,681.2 561.1,713.9 542.4,716 542.1,713.3 517.7,763.9 534.7,772.1 597.2,642.1 580.2,633.9 "/>
<path d="M743.4,623c0.4-3.7,0.6-6.3,0.7-7.7c0.7-4.9-2.5-9.5-7.3-10.8c-7.7-1.8-11.2,5.3-12.3,7.6c-0.9,1.8-2,4.3-3.5,7.8
	c-2.7,6.4-6.2,15.2-10.3,25.3c-9.5,23.6-27.8,69-37.4,86c-2.8-11.5-4.6-34.1-5.7-47.5c-0.5-6.5-1-12.7-1.6-18.6
	c-1-10.6-6.3-13.1-10.6-13.4c-4.8-0.2-8,2.1-10.7,6.7l-4.1-0.9l-12.5,56.9c-0.8,3.3-1.6,6.8-2.5,10.4c-7.6,32.8-14.3,66-14.4,66.4
	l18.5,3.9l16.9-77c1.2-5.2,2.5-10.2,3.7-14.9c2.7,29.5,5.9,45.6,15.9,50.5c4.5,2.1,9.8,1.6,13.8-1.2c6.7-4.5,14.5-17.7,39.6-79.1
	c-3,34,0.2,76.9,2.4,98.5l16.3-40.2C737.9,706.6,738.7,671,743.4,623z"/>
<path d="M742,780.3c-0.2-1.2-0.4-3-0.7-5.6l-2.4,6L742,780.3z"/>
<path d="M763.2,720.7l8.8-21.8l-18.2-4.9l-15.4,38c0.2,14.3,1.2,28.6,2.9,42.8l17.9-44.3l-3.2-5.6L763.2,720.7z"/>
<path d="M722.2,772.1l-7.4,18.2l18.2,4.9l5.9-14.6l-15.6,1.9C723,780.2,722.6,776.6,722.2,772.1z"/>
<path d="M780.3,660.4c-5.2-8.6-11.8-8.8-15.1-8.2c-9.1,1.7-13.6,12.4-16.5,21.5c-1.6,5-2.9,10-3.9,15.2l18.5,3.5
	c1-5.2,2.4-10.4,4.1-15.4c3.7,9.4,6.4,22.9,8.4,36.4l17.5-10C790.6,686.9,786.4,670.4,780.3,660.4z"/>
<path d="M783.9,777.2l18.8-0.9c-0.1-2.9-4.8-37.9-6.5-52.8l-17.9,10.3C779.2,742,783.7,772.3,783.9,777.2z"/>
<path d="M809.4,694.1l-16,9.2c1.2,6.9,2.1,13.8,2.8,20.1l22.5-12.9L809.4,694.1z"/>
<path d="M763.2,720.7l-3.9,9.7l6.2,10.7l13-7.4c-0.6-6.3-1.5-13.3-2.5-20.3L763.2,720.7z"/>
<g>
	<polygon points="170.2,831.6 220.9,831.6 219,887.4 231.6,897.6 173.8,897.6 185.8,885 185.6,847.4 	"/>
	<circle cx="441" cy="799.3" r="24.7"/>
	<circle cx="202.5" cy="799.3" r="24.7"/>
	<path d="M224.3,832.6l12.9,19.4l1.6,37l-8.8,9.5h42.1l-7.9-10l-1.9-33.2c0,0,8.8-9.6,13.2-3.9s5,38.2,5,38.2l-5.9,8.9h50.4
		l-13.7-11.2l1.1-36c0,0-0.8-23.6-22.5-23.6s-29.9,21.2-29.9,21.2l1.2-16.3L224.3,832.6L224.3,832.6z"/>
	<path d="M466,834v9.6h9v40.8c0,0,6.5,19.3,26.5,19.3c20,0,28.7-16.3,22.6-26.6l-6,1.2c0,0,1.3,6.8-4.8,4.9s-4.8-36.6-4.8-36.6
		l17.7-3.3l4.2-16.3l-24.2,0.3l1.2-24l-33.7,28.3L466,834z"/>
	<polygon points="317.8,831 325.2,840.3 349.6,892 337.6,898.6 395.1,898.6 384.4,890.7 407,841.7 416,831.5 377.1,831.6 
		383.9,842.8 370.3,872.2 365.2,843.1 368.9,827.7 	"/>
	<polygon points="418.1,832.2 428,847.3 428,884.1 416,898.6 470.1,898.6 460,885.3 462,831 	"/>
	<path d="M616.6,869.7l-10.6-0.4c0,0-0.8,6-8.1,11.7s-20.6-0.5-24-5s-5.5-13.8-5.5-13.8h51.7V847c0,0-6-22-40.3-22
		s-46.6,16.4-46.6,40.6c0,27,30.9,35.9,45.8,35.8s23.4-6.7,29.5-11.6S616.6,869.7,616.6,869.7z M582.2,839.7
		c12.2,0,2.5,13.8,2.5,13.8h-16.3C568.4,853.5,570,839.7,582.2,839.7L582.2,839.7z"/>
	<path d="M631.9,826.6l15.8,12l26,62.1c0,0-4.3,8.5-9.7,9.8s-9.7,1.8-10.1-6.1l-19.8,0.6c0,0,2,26.8,30.5,20.1s57.1-85.3,57.1-85.3
		l17.8-13.2h-42.8l4.2,12.6l-11.7,26.6l-10.4-24.2l10.1-15L631.9,826.6L631.9,826.6z"/>
	<path d="M768.1,826.8c-9.7-0.3-39.9,5.3-39.9,35.7s24.7,32.8,41.2,32.8s39.7-3.7,39.7-32.5S777.9,827.1,768.1,826.8z M768,888
		c-8,1.3-6.7-5.5-6.7-5.5s0.1-32.7-0.2-39.7s4.6-6.5,4.6-6.5c8.8-0.1,7.2,7,7.2,7l1,31.9C773.9,875.2,776,886.7,768,888z"/>
	<path d="M808,829.6l10,11.9v34.1c0,0,2.6,18.2,20.8,17.9s27.2-15.3,27.2-15.3v17.5l39.1-2.2l-9.3-9.5l6-55.2l-48.7,1.4l9.7,15.2
		l-1.3,18.6c0,0-2.6,10.9-8.1,7.3s-4.6-41.7-4.6-41.7L808,829.6L808,829.6z"/>
</g>
<path d="M243.8,177.7l-0.2,15.6l-1.9-0.1c0-2-0.4-4.1-1.1-6c-0.8-1.8-2.1-3.4-3.8-4.4c-2-1.1-4.3-1.7-6.5-1.8l-9.3-0.6l-3.1,50.6
	c-0.3,4.1,0,6.6,0.9,7.7c1.2,1.4,3,2.2,5.6,2.4l2.3,0.1l-0.1,1.8l-28.1-1.7l0.1-1.8l2.3,0.1c2.8,0.2,4.8-0.6,6.1-2.2
	c0.8-1,1.3-3.4,1.5-7.1l3.1-50.6l-8-0.5c-2.2-0.2-4.5-0.2-6.6,0.3c-1.8,0.6-3.4,1.7-4.6,3.3c-1.5,2.1-2.4,4.5-2.6,7l-1.8-0.1
	l1.8-15.5L243.8,177.7z"/>
<path d="M254.1,196.3c6.1-0.2,11.9,2.6,15.6,7.4c3.3,4.1,5.1,9.2,5,14.5c0,4-1,8-2.8,11.6c-3.1,7.3-10.4,12-18.3,11.9
	c-6.1,0.2-11.9-2.7-15.4-7.7c-3.2-4.2-4.9-9.3-4.8-14.6c0-4.1,1-8.1,2.9-11.7c1.6-3.6,4.3-6.6,7.7-8.6
	C247.1,197.2,250.5,196.3,254.1,196.3z M252.6,199.3c-1.8,0-3.5,0.5-5,1.5c-1.9,1.2-3.3,3.1-4,5.2c-1.1,3-1.6,6.2-1.5,9.5
	c-0.1,5.6,1.1,11.1,3.7,16.1c2.5,4.5,5.7,6.8,9.8,6.8c2.9,0,5.7-1.4,7.5-3.7c2-2.5,2.9-6.7,2.9-12.8c0-7.6-1.6-13.6-4.9-17.9
	C259.2,201,256,199.3,252.6,199.3L252.6,199.3z"/>
<path d="M288.5,224.7c-4.9-2.6-7.8-7.8-7.5-13.4c0.2-4.2,2.1-8.1,5.3-10.7c3.5-2.9,8-4.4,12.5-4c3.8,0.1,7.4,1.3,10.5,3.5l9.1,0.4
	c0.8,0,1.6,0.1,2.3,0.2c0.2,0.1,0.4,0.2,0.5,0.4c0.2,0.5,0.3,1,0.2,1.5c0,0.6-0.1,1.1-0.3,1.7c-0.1,0.2-0.3,0.3-0.5,0.4
	c-0.8,0.1-1.6,0.1-2.4,0l-5.6-0.3c3.8,6.1,2.6,14.1-2.9,18.7c-3.2,2.7-7.4,3.9-12.5,3.6c-2.2-0.1-4.4-0.5-6.5-1.3
	c-1.1,0.8-2.1,1.8-2.9,3c-0.5,0.7-0.7,1.4-0.8,2.2c0,0.6,0.3,1.2,0.7,1.6c0.9,0.7,1.9,1.1,3,1.2c0.9,0.2,3,0.4,6.5,0.6
	c6.4,0.5,10.6,0.9,12.5,1.3c2.6,0.4,5,1.7,6.8,3.6c1.6,1.8,2.4,4.2,2.3,6.6c-0.2,3.5-2,6.7-5.5,9.7c-5.1,4.3-11.6,6.3-19.4,5.9
	c-6-0.3-11-1.9-15-4.8c-2.3-1.7-3.3-3.3-3.3-5c0-0.8,0.3-1.5,0.6-2.2c1-1.7,2.2-3.2,3.5-4.6c0.2-0.3,1.9-1.9,5-4.8
	c-1.2-0.8-2.3-1.7-3.3-2.8c-0.6-0.7-0.9-1.7-0.9-2.6c0.2-1.4,0.7-2.7,1.5-3.8C283,229.2,285.1,227.2,288.5,224.7z M287.2,240.3
	c-1.3,1.3-2.5,2.7-3.5,4.3c-0.7,1.1-1.2,2.4-1.3,3.7c-0.1,1.5,0.8,2.8,2.5,4.1c3,2.1,7.5,3.3,13.4,3.6c5.6,0.3,9.8-0.5,12.6-2.4
	c2.8-1.8,4.2-3.9,4.3-6.1c0.1-1.5-0.8-3-2.2-3.6c-1.6-0.8-4.8-1.3-9.6-1.7C297.9,241.8,292.5,241.2,287.2,240.3L287.2,240.3z
	 M297.9,198.9c-2.3-0.1-4.4,0.8-5.9,2.5c-1.7,1.8-2.6,4.5-2.8,8.4c-0.2,4.9,0.6,8.8,2.6,11.6c1.3,2,3.6,3.3,6,3.4
	c2.3,0.2,4.5-0.7,6-2.4c1.6-1.7,2.5-4.4,2.7-8.2c0.2-5-0.6-8.9-2.6-11.8C302.6,200.2,300.3,199,297.9,198.9L297.9,198.9z"/>
<path d="M326.6,215.7c0.7,6.3,2.7,11.1,6.2,14.4c3.5,3.3,7.3,4.7,11.5,4.2c2.6-0.2,5.1-1.3,7-3.1c1.9-1.8,3.4-4.6,4.4-8.4l1.5,0.8
	c-0.2,4.4-1.8,8.7-4.4,12.2c-2.6,3.7-6.7,6.1-11.2,6.5c-5,0.6-10.1-1.1-13.8-4.6c-4.1-3.6-6.5-8.8-7.2-15.5
	c-0.8-7.3,0.5-13.2,3.8-17.7c3.2-4.4,8.1-7.2,13.5-7.6c4.4-0.6,8.9,0.6,12.3,3.5c3.4,2.8,5.4,6.9,6,12.1L326.6,215.7z M326.3,213
	l19.7-2.1c-0.2-2-0.8-3.9-1.6-5.7c-0.9-1.6-2.3-2.9-3.9-3.7c-1.5-0.8-3.3-1.2-5-1c-2.6,0.3-5,1.7-6.6,3.8
	C327.1,206.8,326.2,209.9,326.3,213L326.3,213z"/>
<path d="M372.6,175.1v15.5h11v3.6h-11v30.5c0,3,0.4,5.1,1.3,6.2c0.8,1,2.1,1.6,3.4,1.6c1.2,0,2.3-0.4,3.3-1.1c1.1-0.8,2-1.9,2.5-3.1
	h2c-0.9,3-2.7,5.6-5.1,7.6c-1.9,1.6-4.3,2.5-6.8,2.5c-1.6,0-3.2-0.5-4.6-1.3c-1.5-0.9-2.7-2.2-3.3-3.8c-0.8-2.4-1.2-5-1.1-7.5v-31.6
	h-7.5v-1.7c2.1-0.9,4.1-2.2,5.8-3.8c2-1.9,3.8-4,5.3-6.4c1.3-2.3,2.4-4.7,3.3-7.1H372.6L372.6,175.1z"/>
<path d="M397.4,165.5l1.6,33.6c3.5-4.3,6.4-7,8.5-8.3c1.9-1.2,4.2-1.9,6.4-2c2.4-0.2,4.8,0.5,6.8,1.9c2.2,1.7,3.7,4,4.5,6.6
	c0.7,2.1,1.2,6,1.5,11.7l0.8,16.3c0,2,0.3,4,1,5.9c0.4,0.8,1,1.4,1.8,1.8c1.4,0.5,2.9,0.7,4.5,0.5l0.1,1.8l-22.6,1l-0.1-1.8h1
	c2.1-0.1,3.6-0.5,4.4-1.2c0.9-0.8,1.4-1.8,1.6-3c0.1-1.6,0-3.1-0.1-4.7l-0.8-16.3c-0.2-5-0.6-8.3-1.2-9.9c-0.5-1.4-1.4-2.6-2.6-3.4
	c-1.3-0.8-2.7-1.1-4.2-1c-1.8,0.1-3.5,0.6-5.1,1.5c-2.3,1.5-4.4,3.4-6.1,5.6l1.1,24.3c0.1,3.1,0.4,5.1,0.8,5.9
	c0.4,0.8,1.2,1.5,2,1.8c1.6,0.6,3.3,0.7,5,0.6l0.1,1.8l-22.8,1l-0.1-1.8c1.7,0,3.3-0.4,4.8-1.2c0.7-0.5,1.3-1.2,1.5-2
	c0.4-1.9,0.5-3.8,0.3-5.8l-1.9-41.5c0-3.2-0.3-6.5-0.8-9.7c-0.2-0.9-0.6-1.8-1.3-2.4c-0.6-0.4-1.4-0.6-2.1-0.6
	c-1.2,0.2-2.3,0.5-3.4,1l-0.8-1.7l13.5-6.2L397.4,165.5z"/>
<path d="M443.9,209.3c-1.9,6.1-1.8,11.3,0.1,15.7s4.9,7.2,9,8.4c2.5,0.8,5.2,0.8,7.7-0.1c2.4-0.9,4.9-2.9,7.3-6.1l1.1,1.3
	c-1.9,4-5,7.3-8.9,9.5c-3.8,2.4-8.5,3-12.9,1.6c-4.9-1.4-8.9-4.9-11-9.6c-2.3-4.9-2.5-10.6-0.6-17.1c2.1-7,5.6-11.9,10.4-14.8
	c4.6-2.8,10.2-3.5,15.3-1.8c4.3,1.1,7.9,4,10,8c2,3.9,2.3,8.4,0.8,13.5L443.9,209.3z M444.7,206.7l19,5.8c0.6-1.9,0.8-3.9,0.7-5.8
	c-0.2-1.8-0.9-3.6-2.1-5c-1.1-1.3-2.6-2.3-4.2-2.8c-2.5-0.7-5.2-0.4-7.5,0.9C447.8,201.2,445.8,203.7,444.7,206.7L444.7,206.7z"/>
<path d="M489.7,185v10.9c4.1-7.3,8.2-10.9,12.5-10.9c1.8-0.1,3.5,0.6,4.8,1.8c1.2,1,1.9,2.5,1.9,4.1c0,1.3-0.5,2.6-1.4,3.5
	c-0.8,0.9-2,1.4-3.3,1.4c-1.6-0.1-3-0.8-4.2-1.8c-1.5-1.2-2.7-1.8-3.4-1.8c-0.8,0.1-1.5,0.5-2.1,1.1c-2,2.1-3.7,4.5-4.9,7.1v23.2
	c-0.1,2.1,0.2,4.2,1,6.1c0.5,1,1.4,1.9,2.4,2.4c1.6,0.7,3.3,1.1,5,1v1.9h-24.8V233c1.9,0.1,3.8-0.3,5.5-1.2c0.9-0.6,1.6-1.6,1.9-2.7
	c0.2-1.7,0.3-3.4,0.3-5.1v-18.8c0.1-3.4,0-6.7-0.3-10.1c-0.1-0.9-0.6-1.7-1.3-2.4c-0.7-0.5-1.5-0.8-2.3-0.7c-1.3,0-2.5,0.3-3.7,0.8
	l-0.5-1.9l14.7-5.9H489.7z"/>
<path d="M520.4,198.9l17.6-2.6l0.2,1.7c-1.1,0.1-2.2,0.6-3.1,1.4c-0.5,0.6-0.6,1.4-0.5,2.1c0.2,1.2,0.7,2.3,1.3,3.3l12.6,22.8
	l6.1-21l-3.3-5.8c-0.7-1.5-2-2.7-3.5-3.4c-1.3-0.4-2.6-0.4-3.9-0.2l-0.2-1.7l20-3l0.2,1.7c-1.7,0.2-3.2,0.8-4.5,1.9
	c-0.6,0.7-0.8,1.6-0.6,2.5c0.1,0.6,0.3,1.3,0.7,1.8l13.2,22.7l5.4-24.6c0.3-1.3,0.4-2.7,0.3-4.1c-0.1-0.6-0.5-1.2-1.1-1.4
	c-1.2-0.4-2.4-0.5-3.6-0.2l-0.2-1.7l13.3-2l0.2,1.7c-2.6,0.8-4.3,2.9-5.1,6.3l-8.6,38.3l-1.9,0.3l-14.5-25.3l-8.2,28.7l-1.7,0.2
	l-18.8-33.3c-0.8-1.6-1.9-3-3.3-4.1c-1.3-0.7-2.8-1.1-4.3-1.2L520.4,198.9z"/>
<path d="M604.5,190.5v34.8c-0.1,1.8,0.1,3.7,0.6,5.4c0.3,0.8,1,1.5,1.8,2c1.3,0.5,2.8,0.8,4.2,0.7v1.7H590v-1.7
	c1.4,0.1,2.9-0.1,4.3-0.6c0.8-0.5,1.4-1.2,1.7-2c0.5-1.8,0.8-3.6,0.6-5.4v-16.7c0.1-3-0.1-6.1-0.4-9.1c-0.1-0.8-0.4-1.5-1-2.1
	c-0.6-0.4-1.2-0.6-1.9-0.6c-1.1,0-2.2,0.3-3.2,0.7l-0.7-1.7l13.1-5.3L604.5,190.5L604.5,190.5z M600.6,167.8c2.6,0,4.8,2.1,4.8,4.8
	c0,0,0,0,0,0c0,1.3-0.5,2.5-1.4,3.4c-0.9,0.9-2.1,1.4-3.4,1.4c-2.7,0-4.8-2.2-4.8-4.8C595.8,170,597.9,167.8,600.6,167.8
	L600.6,167.8z"/>
<path d="M623.3,176.9l-0.7,14.4l10.2,0.5l-0.2,3.4l-10.2-0.5l-1.3,28.4c-0.1,2.8,0.2,4.8,1,5.8c0.7,1,1.8,1.6,3.1,1.6
	c1.1,0,2.2-0.3,3.1-0.8c1.1-0.7,1.9-1.6,2.4-2.8l1.9,0.1c-1,2.7-2.8,5.1-5.1,6.8c-1.8,1.4-4.1,2.1-6.4,2.1c-1.5-0.1-3-0.6-4.2-1.4
	c-1.4-0.9-2.4-2.1-3-3.6c-0.7-2.3-0.9-4.7-0.7-7.1l1.4-29.5l-6.9-0.3l0.1-1.6c2-0.8,3.9-1.9,5.5-3.3c2-1.7,3.7-3.6,5.2-5.7
	c1.3-2.1,2.4-4.3,3.4-6.5L623.3,176.9z"/>
<path d="M652.3,173.1v29.1c3.2-3.5,5.8-5.8,7.7-6.8c1.7-1,3.7-1.5,5.7-1.5c2.1-0.1,4.1,0.6,5.8,1.9c1.8,1.5,3.1,3.6,3.6,5.9
	c0.5,1.9,0.8,5.2,0.8,10.2v14.1c-0.1,1.7,0.1,3.5,0.6,5.2c0.3,0.7,0.8,1.3,1.5,1.6c1.2,0.5,2.5,0.7,3.8,0.6v1.6h-19.6v-1.6h0.9
	c1.3,0.1,2.7-0.2,3.9-0.9c0.8-0.6,1.3-1.5,1.5-2.5c0.1-1.4,0.2-2.7,0.1-4.1v-14.1c0-4.3-0.2-7.2-0.7-8.6c-0.4-1.2-1.1-2.3-2.2-3.1
	c-1.1-0.7-2.3-1-3.6-1c-1.5,0-3.1,0.4-4.4,1.1c-2.1,1.2-4,2.7-5.5,4.6v21c-0.1,1.7,0,3.4,0.5,5.1c0.4,0.7,1,1.3,1.7,1.7
	c1.4,0.5,2.8,0.8,4.3,0.7v1.6H639v-1.6c1.4,0.1,2.9-0.2,4.2-0.8c0.6-0.4,1.1-1,1.4-1.6c0.5-1.6,0.6-3.3,0.5-5v-36
	c0.1-2.8,0-5.6-0.3-8.4c-0.1-0.8-0.4-1.5-1-2.1c-0.5-0.4-1.2-0.6-1.8-0.6c-1,0.1-2,0.3-3,0.7l-0.5-1.5l11.9-4.9H652.3z"/>
<path d="M725.5,190.1l-1.3,13l9.2,1l-0.3,3l-9.2-1l-2.6,25.7c-0.3,2.6-0.1,4.3,0.6,5.3c0.6,0.9,1.6,1.5,2.7,1.6c1,0.1,2-0.1,2.9-0.6
	c1-0.5,1.8-1.4,2.3-2.4l1.7,0.2c-1,2.4-2.8,4.5-4.9,5.9c-1.7,1.2-3.8,1.7-5.9,1.6c-1.4-0.2-2.7-0.7-3.8-1.5c-1.2-0.8-2-2.1-2.5-3.4
	c-0.5-2.1-0.6-4.3-0.3-6.4l2.7-26.6l-6.3-0.6l0.2-1.4c1.9-0.6,3.6-1.5,5.2-2.7c1.9-1.4,3.6-3.1,5-4.9c1.3-1.8,2.4-3.7,3.4-5.7
	L725.5,190.1z"/>
<path d="M747.7,182.4l-3,29c3.6-3.2,6.3-5.2,8.3-6c1.8-0.8,3.8-1.1,5.8-0.9c2.1,0.2,4.1,1,5.6,2.4c1.6,1.7,2.7,3.9,3,6.2
	c0.4,1.9,0.3,5.3-0.2,10.2l-1.4,14c-0.3,1.7-0.3,3.5,0.1,5.2c0.2,0.7,0.7,1.4,1.3,1.8c1.2,0.6,2.4,1,3.7,1l-0.2,1.6l-19.5-2l0.2-1.6
	l0.9,0.1c1.3,0.3,2.7,0.1,3.9-0.4c0.8-0.6,1.5-1.4,1.8-2.3c0.3-1.3,0.4-2.7,0.5-4l1.4-14c0.4-4.3,0.5-7.2,0.2-8.6
	c-0.2-1.3-0.9-2.4-1.8-3.3c-1-0.8-2.2-1.3-3.4-1.4c-1.5-0.1-3.1,0.1-4.5,0.7c-2.2,1-4.2,2.3-6,4l-2.2,20.9c-0.3,1.7-0.3,3.4-0.1,5.1
	c0.3,0.8,0.8,1.4,1.5,1.8c1.3,0.7,2.7,1.1,4.2,1.1l-0.2,1.6l-19.6-2l0.2-1.6c1.4,0.2,2.9,0.1,4.2-0.4c0.7-0.3,1.2-0.8,1.5-1.5
	c0.6-1.6,0.9-3.2,1-4.9l3.7-35.8c0.4-2.8,0.5-5.6,0.5-8.4c0-0.8-0.3-1.6-0.8-2.2c-0.5-0.5-1.1-0.7-1.7-0.8c-1,0-2,0.1-3,0.4
	l-0.5-1.6l12.3-3.6L747.7,182.4z"/>
<path d="M782.6,209.9c0.2,5.9,1.9,10.5,4.9,13.7c3,3.2,6.5,4.7,10.4,4.6c2.4-0.1,4.8-0.9,6.7-2.5c1.9-1.5,3.4-4,4.5-7.6l1.4,0.8
	c-0.5,4.1-2.1,7.9-4.8,11.1c-2.6,3.3-6.6,5.3-10.8,5.4c-4.7,0.3-9.3-1.6-12.5-5c-3.6-3.6-5.5-8.5-5.8-14.8
	c-0.3-6.8,1.2-12.2,4.5-16.1c3.2-3.9,7.9-6.2,12.9-6.3c4.1-0.3,8.2,1.1,11.2,3.9c3,2.8,4.6,6.7,4.8,11.6L782.6,209.9z M782.5,207.4
	l18.4-0.8c-0.1-1.8-0.5-3.6-1.2-5.3c-0.7-1.5-1.9-2.8-3.4-3.7c-1.4-0.8-3-1.2-4.5-1.2c-2.4,0.1-4.7,1.2-6.3,3.1
	C783.6,201.6,782.5,204.5,782.5,207.4L782.5,207.4z"/>
<path d="M828.1,195l-3.5,31.8c-0.3,1.7-0.3,3.3,0,5c0.2,0.8,0.7,1.5,1.4,2c1.2,0.6,2.5,1,3.8,1l-0.2,1.6l-19.2-2.1l0.2-1.6
	c1.3,0.2,2.7,0.2,4-0.1c0.8-0.4,1.4-0.9,1.8-1.7c0.7-1.6,1.1-3.2,1.1-4.9l1.7-15.2c0.4-2.8,0.6-5.6,0.5-8.4c0-0.7-0.3-1.4-0.7-2
	c-0.5-0.4-1.1-0.7-1.7-0.7c-1-0.1-2,0-3,0.3l-0.4-1.6l12.5-3.5L828.1,195z M826.8,174c2.4,0.3,4.1,2.4,3.9,4.8c0,0,0,0,0,0
	c-0.1,1.2-0.7,2.3-1.6,3c-0.9,0.8-2.1,1.1-3.2,1c-2.4-0.3-4.2-2.5-3.9-4.9C822.2,175.5,824.4,173.7,826.8,174z"/>
<path d="M850.6,197.5l-1,8.9c4-5.6,7.7-8.2,11.2-7.8c1.5,0.1,2.8,0.8,3.8,1.9c0.9,0.9,1.3,2.2,1.2,3.5c-0.1,1.1-0.6,2-1.4,2.7
	c-0.8,0.7-1.8,1-2.8,0.9c-1.3-0.2-2.4-0.9-3.2-1.9c-0.7-0.8-1.6-1.5-2.6-1.8c-0.7,0-1.3,0.2-1.8,0.7c-1.9,1.5-3.4,3.3-4.7,5.4
	l-2.1,19c-0.3,1.7-0.2,3.4,0.3,5.1c0.3,0.9,1,1.6,1.8,2.2c1.2,0.7,2.6,1.1,4,1.2l-0.1,1.5l-20.2-2.2l0.2-1.6
	c1.5,0.3,3.1,0.1,4.6-0.5c0.8-0.4,1.4-1.1,1.8-2c0.4-1.4,0.6-2.8,0.7-4.2l1.7-15.3c0.4-2.7,0.6-5.5,0.6-8.3c0-0.7-0.3-1.4-0.8-2
	c-0.5-0.5-1.1-0.8-1.8-0.8c-1-0.1-2.1,0-3.1,0.3l-0.3-1.6l12.5-3.5L850.6,197.5z"/>
<path d="M390.6,278.9v34.2c0,4.9,0.5,7.9,1.6,9.2c1.4,1.7,3.5,2.6,5.6,2.5h4.7v2h-31.1v-2h2.3c1.5,0,2.9-0.4,4.2-1.1
	c1.2-0.7,2.1-1.8,2.6-3.1c0.5-1.3,0.7-3.8,0.7-7.5v-34.2h-10.2v-4.1h10.1v-3.4c-0.1-4.5,0.7-9,2.5-13.2c1.7-3.6,4.3-6.6,7.6-8.7
	c3.5-2.2,7.5-3.4,11.6-3.3c4,0,7.9,1.4,11,3.9c2.2,1.7,3.3,3.6,3.3,5.7c0,1.2-0.6,2.4-1.5,3.2c-0.8,0.9-2,1.5-3.2,1.5
	c-1,0-2-0.4-2.8-0.9c-1.4-1.1-2.6-2.5-3.5-4c-1-1.6-2.3-3.1-3.9-4.2c-1.2-0.7-2.5-1.1-3.9-1.1c-1.6,0-3.2,0.4-4.4,1.4
	c-1.3,1.1-2.3,2.6-2.6,4.3c-0.5,2-0.8,7-0.8,15.1v3.8H404v4.1L390.6,278.9L390.6,278.9z"/>
<path d="M432.1,312c-5.1,3.4-8.3,5.3-9.6,5.8c-1.9,0.7-4,1-6,0.8c-3.1-0.1-5.9-1.6-7.8-4c-2-2.6-2.9-5.8-2.5-9.1
	c0.1-2.1,0.8-4.1,2-5.9c1.6-2.2,4.2-4.2,7.9-6s9.7-3.9,18-6.2l0.1-1.9c0.4-4.7-0.2-8-1.5-9.9c-1.5-2-3.9-3.1-6.3-3.1
	c-1.9-0.2-3.8,0.3-5.3,1.4c-1.3,0.9-2.1,2.3-2.3,3.9l-0.1,3c0,1.3-0.5,2.6-1.5,3.6c-0.9,0.8-2.1,1.2-3.3,1c-1.2-0.1-2.3-0.6-3-1.6
	c-0.8-1.1-1.1-2.4-0.9-3.8c0.2-3,1.9-5.6,5.2-7.8c3.2-2.2,7.5-3.2,13-2.8c3.6,0.1,7.1,1.1,10.2,2.9c2,1.2,3.4,3.1,4.1,5.4
	c0.5,1.5,0.6,4.6,0.2,9.2l-1.2,16c-0.3,2.8-0.4,5.5-0.4,8.3c0,0.8,0.2,1.5,0.7,2.1c0.3,0.4,0.8,0.6,1.3,0.6c0.5,0.1,1,0,1.5-0.2
	c1.6-1,3.1-2.2,4.5-3.5l-0.2,2.9c-4.2,4.9-8.1,7.2-11.6,6.9c-1.5,0-3-0.8-3.9-2.1C432.3,316.8,431.9,314.8,432.1,312z M432.4,308.6
	l1.4-18c-3.5,1-7,2.2-10.4,3.6c-2.4,1-4.5,2.4-6.2,4.3c-1.3,1.5-2,3.3-2.2,5.3c-0.3,2.3,0.4,4.5,1.8,6.3c1.1,1.6,2.9,2.7,4.9,2.8
	C424.2,313.2,427.8,311.8,432.4,308.6z"/>
<path d="M472.9,274.5c3.8-3.1,6-4.9,6.7-5.3c1.6-1.1,3.4-2,5.3-2.5c1.8-0.5,3.6-0.7,5.4-0.5c2.8,0.2,5.4,1.4,7.4,3.3
	c2.1,2.1,3.3,4.9,3.5,7.9c3.9-3.8,7.2-6.2,9.8-7.2c2.4-1,5.1-1.4,7.7-1.2c2.4,0.2,4.6,1.1,6.5,2.6c2,1.8,3.4,4.2,4,6.8
	c0.6,2.1,0.6,5.2,0.2,9.5l-2,20.3c-0.3,2-0.3,4.1,0.1,6.1c0.3,0.9,0.9,1.6,1.7,2.1c1.4,0.8,2.9,1.2,4.5,1.2l-0.2,1.9l-23.3-2.3
	l0.2-1.9l1,0.1c1.7,0.3,3.4,0,4.9-0.7c0.9-0.6,1.6-1.4,2-2.5c0.4-1.6,0.6-3.3,0.7-5l2-20.3c0.4-3.8,0.2-6.6-0.6-8.3
	c-1.1-2.3-3.2-3.6-6.1-3.9c-1.9-0.2-3.8,0.1-5.6,0.8c-2.6,1.1-5,2.6-7.2,4.4l-0.2,0.6l-0.2,2.2l-2.3,22.5c-0.3,3.2-0.3,5.3-0.1,6.1
	c0.4,0.9,1,1.7,1.8,2.2c1.5,0.8,3.3,1.3,5,1.3l-0.2,1.9l-23.9-2.4l0.2-1.9c2.6,0.3,4.4,0.1,5.5-0.4c1.1-0.5,1.9-1.5,2.3-2.6
	c0.4-1.7,0.7-3.4,0.8-5.1l2-20.3c0.4-3.8,0.1-6.7-0.9-8.5c-1.2-2.3-3.4-3.8-6-3.9c-1.9-0.2-3.9,0.2-5.7,0.9c-2.6,1-5.1,2.5-7.1,4.4
	l-2.5,25.3c-0.3,3.1-0.3,5.1,0,6.1c0.3,0.9,0.9,1.7,1.7,2.3c0.8,0.5,2.5,1,5,1.2l-0.2,1.9l-23.3-2.3l0.2-1.9
	c1.5,0.3,3.1,0.2,4.6-0.2c0.9-0.4,1.7-1.1,2.2-2c0.5-1,1-2.9,1.3-5.8l1.8-18c0.4-3.3,0.6-6.7,0.5-10.1c0-0.9-0.3-1.8-0.9-2.5
	c-0.5-0.5-1.3-0.8-2-0.9c-1.2-0.1-2.4,0.1-3.5,0.4l-0.6-1.9l14.8-4.3l2.2,0.2L472.9,274.5z"/>
<path d="M549.1,269.9l2.1,38c0.2,3,0.5,4.9,1,5.9c0.4,0.9,1.1,1.6,2,2.1c1.5,0.5,3.1,0.7,4.7,0.5l0.1,1.9l-23,1.2l-0.1-1.9
	c1.6,0,3.2-0.3,4.6-0.9c0.8-0.6,1.4-1.4,1.8-2.3c0.4-1.1,0.5-3.1,0.4-6l-1-18.2c-0.1-3.4-0.4-6.7-1-10c-0.2-0.9-0.6-1.6-1.3-2.2
	c-0.6-0.4-1.4-0.6-2.2-0.5c-1.2,0.1-2.4,0.5-3.5,1l-0.8-1.8l14-6.6L549.1,269.9z M543.5,245.4c2.9-0.2,5.3,2,5.5,4.9c0,0,0,0,0,0
	c0.1,1.4-0.4,2.8-1.3,3.8c-0.9,1.1-2.2,1.7-3.6,1.8c-2.9,0.2-5.4-2.1-5.5-4.9C538.4,248,540.6,245.5,543.5,245.4L543.5,245.4z"/>
<path d="M583.6,238.6l-4.7,62.7c-0.2,3-0.2,4.9,0.2,5.9c0.3,1,1,1.8,1.8,2.3c0.9,0.6,2.5,0.9,5,1.1l-0.1,1.9l-23.2-1.7l0.1-1.9
	c1.5,0.2,3,0.1,4.5-0.3c0.9-0.5,1.6-1.2,2-2.1c0.7-1.9,1.1-3.9,1.1-5.9l3.2-43c0.3-3.3,0.5-6.6,0.4-9.9c0-0.9-0.4-1.9-1-2.6
	c-0.5-0.5-1.3-0.8-2-0.8c-1.2,0-2.4,0.2-3.5,0.6l-0.7-1.9l14.5-4.7L583.6,238.6z"/>
<path d="M605.9,260.4l3,31.1c0.1,1.6,0.4,3.3,1,4.8c0.4,0.7,1,1.3,1.7,1.6c1.2,0.4,2.6,0.5,3.8,0.2l0.2,1.5l-18.8,1.8l-0.2-1.5
	c1.3,0,2.6-0.3,3.8-0.9c0.7-0.5,1.1-1.2,1.4-2c0.3-1.6,0.4-3.3,0.1-4.9l-1.4-14.9c-0.2-2.7-0.6-5.4-1.2-8.1
	c-0.2-0.7-0.6-1.3-1.1-1.8c-0.5-0.3-1.2-0.5-1.8-0.4c-1,0.1-1.9,0.4-2.8,0.9l-0.7-1.5l11.2-5.9L605.9,260.4z M600.4,240.5
	c2.4-0.2,4.4,1.5,4.7,3.8c0,0,0,0,0,0c0.1,1.1-0.2,2.3-1,3.2c-0.7,0.9-1.8,1.5-2.9,1.6c-2.4,0.3-4.5-1.4-4.8-3.7
	c-0.3-2.4,1.4-4.5,3.7-4.8C600.2,240.5,600.3,240.5,600.4,240.5L600.4,240.5z"/>
<path d="M629.2,275c0,7,1.7,12.6,5.1,16.6s7.5,6,12.2,6c2.9,0.1,5.8-0.8,8.1-2.6c2.3-1.7,4.2-4.6,5.8-8.8l1.6,1
	c-0.8,4.8-3,9.3-6.3,12.9c-3.3,3.8-8.1,5.9-13.1,5.8c-5.6,0-11-2.4-14.6-6.6c-4.1-4.4-6.1-10.4-6.1-17.9c0-8.1,2.1-14.4,6.2-19
	c4-4.5,9.7-6.9,15.7-6.8c4.9-0.1,9.7,1.8,13.1,5.4c3.4,3.5,5.1,8.2,5.1,14L629.2,275L629.2,275z M629.2,272h22
	c0-2.2-0.4-4.4-1.1-6.4c-0.8-1.9-2.2-3.5-3.9-4.6c-1.6-1.1-3.4-1.6-5.4-1.7c-2.9,0-5.7,1.2-7.7,3.3C630.9,265,629.5,268.1,629.2,272
	z"/>
<path d="M699.3,263.7l-2.5,16l-1.7-0.3c-0.5-5.2-1.7-8.9-3.4-11c-1.9-2.2-4.5-3.6-7.3-3.9c-2.1-0.4-4.2-0.1-6.1,1
	c-1.5,0.8-2.5,2.2-2.8,3.9c-0.3,1.8,0,3.6,0.9,5.2c0.8,1.6,2.8,3.4,5.8,5.5l6.9,4.8c6.4,4.5,9.2,9.5,8.3,15c-0.5,4-2.9,7.6-6.4,9.6
	c-3.4,2.1-7.5,2.9-11.4,2.2c-3.3-0.6-6.5-1.6-9.6-3.1c-0.8-0.4-1.7-0.8-2.7-0.9c-0.8-0.1-1.6,0.3-2,1l-1.7-0.3l2.5-16.8l1.7,0.3
	c0.2,4.9,1.5,8.8,3.8,11.6c2.1,2.7,5.1,4.5,8.5,5c2.1,0.4,4.3,0,6.1-1.2c1.6-1,2.7-2.7,3-4.6c0.4-2.2-0.2-4.5-1.6-6.3
	c-1.4-1.9-4.4-4.4-9-7.6c-4.6-3.2-7.5-5.9-8.7-8.2c-1.3-2.4-1.7-5.1-1.2-7.7c0.5-3.6,2.5-6.9,5.5-9c3.2-2.2,7.1-3,10.9-2.3
	c2.3,0.4,4.5,1.2,6.5,2.2c1.1,0.6,2.2,1,3.4,1.3c0.4,0.1,0.9,0,1.3-0.2c0.5-0.4,1-0.9,1.3-1.4L699.3,263.7z"/>
<path d="M353.2,1161.4l-0.1,31.9h-2.5c-0.8-6.1-2.2-11-4.4-14.6c-2.1-3.7-5.3-6.7-9-8.7c-3.7-2.1-7.9-3.2-12.1-3.2
	c-4.3-0.2-8.5,1.4-11.7,4.3c-2.9,2.4-4.6,6-4.6,9.8c0,2.8,1,5.6,2.9,7.7c2.8,3.4,9.5,8,20,13.7c8.6,4.7,14.5,8.2,17.6,10.7
	c3,2.3,5.5,5.3,7.2,8.8c1.7,3.3,2.5,6.9,2.5,10.6c0,7-2.7,13-8.2,18s-12.4,7.5-20.9,7.6c-2.5,0-5.1-0.2-7.5-0.6
	c-3-0.7-5.9-1.5-8.7-2.5c-4.4-1.4-7.2-2.2-8.4-2.2c-1-0.1-2,0.3-2.7,1c-0.7,0.7-1.2,2.1-1.5,4.2h-2.5l0.1-31.6h2.5
	c1.2,6.6,2.8,11.6,4.8,14.9c2.2,3.5,5.4,6.4,9.1,8.2c4.2,2.2,8.8,3.3,13.5,3.3c5.7,0,10.1-1.5,13.4-4.4c3.1-2.6,5-6.5,5-10.6
	c0-2.4-0.7-4.8-1.9-6.9c-1.4-2.5-3.4-4.8-5.8-6.5c-1.8-1.3-6.6-4.2-14.5-8.7c-7.9-4.5-13.5-8-16.8-10.6c-3.1-2.4-5.7-5.3-7.6-8.7
	c-1.7-3.2-2.6-6.8-2.6-10.5c0-6.5,2.8-12.8,7.7-17.1c5.1-4.8,11.6-7.1,19.4-7.1c5.4,0.1,10.7,1.4,15.6,3.7c1.7,0.9,3.5,1.5,5.4,1.7
	c1.1,0.1,2.1-0.3,2.9-1c0.8-0.7,1.4-2.1,1.8-4.2L353.2,1161.4L353.2,1161.4z"/>
<path d="M406.2,1246.9c-6.4,4.9-10.4,7.8-12.1,8.5c-2.5,1.1-5.1,1.7-7.8,1.7c-4,0.1-7.9-1.5-10.6-4.4c-2.8-3-4.2-6.8-4.1-11.6
	c-0.1-2.8,0.7-5.5,2.1-7.9c1.9-3.1,5.1-6,9.7-8.7c4.6-2.7,12.3-6,23-9.9v-2.4c0-6.2-1-10.5-2.9-12.8c-1.9-2.3-4.8-3.5-8.6-3.5
	c-2.5-0.1-4.9,0.7-6.8,2.3c-1.6,1.3-2.6,3.2-2.6,5.3l0.1,3.9c0.1,1.8-0.5,3.5-1.6,4.8c-1.1,1.1-2.6,1.8-4.2,1.7
	c-1.6,0-3.1-0.6-4.1-1.8c-1.1-1.4-1.7-3.1-1.6-4.8c0-3.9,2-7.5,6-10.7s9.6-4.9,16.8-4.8c5.5,0,10.1,0.9,13.6,2.8
	c2.7,1.4,4.8,3.8,5.9,6.6c0.8,2,1.2,6,1.2,12l-0.1,21.2c-0.1,3.6,0,7.3,0.3,10.9c0.1,1,0.5,1.9,1.1,2.7c0.5,0.4,1.1,0.7,1.8,0.7
	c0.7,0,1.3-0.1,1.9-0.5c2-1.5,3.8-3.1,5.5-4.9v3.8c-5.1,6.8-10,10.2-14.6,10.2c-2,0.1-4-0.8-5.3-2.3
	C406.9,1253.2,406.3,1250.6,406.2,1246.9z M406.2,1242.5l0.1-23.7c-4.5,1.7-9,3.6-13.3,5.8c-3,1.5-5.6,3.6-7.7,6.2
	c-1.5,2.1-2.3,4.6-2.3,7.1c-0.1,3,0.9,5.9,2.9,8.1c1.7,2,4.1,3.2,6.7,3.2C396.1,1249.2,400.6,1247,406.2,1242.5L406.2,1242.5z"/>
<path d="M451,1173.2v20.5h14.5v4.8H451l-0.1,40.4c0,4,0.6,6.8,1.7,8.2c1.1,1.4,2.7,2.2,4.5,2.1c1.6,0,3.1-0.5,4.4-1.4
	c1.5-1,2.6-2.4,3.3-4.1h2.6c-1.2,3.9-3.6,7.4-6.8,10c-2.5,2.1-5.7,3.3-9,3.3c-2.2,0-4.3-0.6-6.1-1.8c-2-1.1-3.5-2.9-4.4-5
	c-0.9-2.2-1.4-5.5-1.4-10l0.1-41.9h-9.9v-2.2c2.8-1.2,5.4-2.9,7.7-5c2.7-2.5,5.1-5.3,7-8.4c1.7-3,3.1-6.2,4.4-9.4L451,1173.2
	L451,1173.2z"/>
<path d="M526.2,1193.9l-0.1,37.7c0,7.2,0.2,11.6,0.5,13.2c0.2,1.3,0.7,2.5,1.6,3.4c0.7,0.6,1.7,1,2.6,1c1.6-0.1,3.3-0.4,4.8-1.1
	l1,2.4l-18.7,7.6h-3.1v-13.2c-5.3,5.8-9.4,9.4-12.3,10.9c-2.7,1.5-5.8,2.2-8.9,2.2c-3.3,0.1-6.5-1-9.1-3.1c-2.5-2-4.4-4.7-5.3-7.8
	c-1-3.2-1.5-7.7-1.5-13.5l0.1-27.8c0-2.9-0.3-5-0.9-6.1c-0.6-1.1-1.6-2.1-2.8-2.6c-1.2-0.6-3.5-0.9-6.8-0.9v-2.5l21.8,0.1l-0.1,41.7
	c0,5.8,1,9.6,3,11.4c2,1.8,4.6,2.8,7.3,2.7c2.3-0.1,4.6-0.7,6.6-1.8c2.5-1.2,5.4-3.6,8.8-7l0.1-35.3c0-3.5-0.6-5.9-1.9-7.2
	c-1.3-1.3-4-1.9-8-2v-2.5L526.2,1193.9z"/>
<path d="M559.4,1192.1v14c5.2-9.3,10.6-14,16.1-14c2.3-0.1,4.5,0.7,6.2,2.3c1.5,1.3,2.4,3.3,2.4,5.3c0,1.7-0.6,3.3-1.8,4.5
	c-1.1,1.2-2.6,1.8-4.2,1.8c-1.6,0-3.4-0.8-5.3-2.4c-2-1.6-3.4-2.4-4.4-2.4c-1,0.1-2,0.6-2.7,1.3c-2,1.9-4.2,4.9-6.3,9.2l-0.1,29.8
	c-0.1,2.7,0.3,5.3,1.3,7.8c0.7,1.3,1.8,2.4,3.1,3.1c2,0.9,4.2,1.4,6.5,1.2v2.4l-31.9-0.1v-2.4c3.2,0,5.5-0.5,7.1-1.5
	c1.2-0.8,2.1-2,2.4-3.5c0.3-2.2,0.4-4.4,0.4-6.6l0.1-24.1c0-7.3-0.1-11.6-0.4-13c-0.2-1.2-0.8-2.2-1.6-3c-0.8-0.7-1.9-1-3-1
	c-1.6,0-3.2,0.4-4.8,1l-0.7-2.4l18.9-7.6h2.9L559.4,1192.1z"/>
<path d="M631.4,1249.5c-2.5,2.8-5.6,5.1-8.9,6.8c-2.9,1.4-6.1,2-9.4,2c-6.8,0-12.7-2.9-17.8-8.6c-5.1-5.7-7.6-13.1-7.6-22
	c0-8.9,3-17.5,8.5-24.5c5.6-7.4,12.9-11.1,21.7-11.1c5.1-0.2,10,1.7,13.6,5.3v-11.5c0-7.1-0.2-11.5-0.5-13.1
	c-0.1-1.3-0.7-2.4-1.6-3.3c-0.8-0.6-1.7-0.9-2.7-0.9c-1.6,0.1-3.2,0.5-4.7,1.1l-0.9-2.4l18.6-7.6h3.1l-0.2,72
	c0,7.3,0.2,11.8,0.5,13.4c0.2,1.3,0.7,2.5,1.6,3.4c0.7,0.6,1.7,1,2.6,1c1.7-0.1,3.3-0.5,4.9-1.1l0.7,2.4l-18.5,7.6h-3.1
	L631.4,1249.5z M631.4,1244.7l0.1-32.1c-0.2-2.9-1.1-5.8-2.4-8.4c-1.2-2.4-3.1-4.4-5.4-5.8c-2-1.2-4.2-1.9-6.6-2
	c-4,0-7.6,1.8-10.7,5.3c-4.1,4.7-6.2,11.6-6.2,20.7c0,9.1,2,16.1,5.9,21.1c4,4.9,8.4,7.3,13.3,7.3
	C623.6,1250.8,627.6,1248.8,631.4,1244.7L631.4,1244.7z"/>
<path d="M692.4,1247.7c-6.4,4.9-10.4,7.8-12.1,8.5c-2.5,1.1-5.1,1.7-7.8,1.7c-4,0.1-7.9-1.5-10.6-4.4c-2.8-3-4.2-6.8-4.2-11.6
	c-0.1-2.8,0.7-5.5,2.1-7.9c1.9-3.1,5.1-6,9.7-8.7c4.6-2.7,12.3-6,23-9.9v-2.4c0-6.2-1-10.5-2.9-12.8s-4.8-3.5-8.6-3.5
	c-2.5-0.1-4.9,0.7-6.8,2.3c-1.6,1.3-2.6,3.2-2.6,5.3l0.1,3.9c0.1,1.8-0.5,3.5-1.6,4.8c-1.1,1.1-2.6,1.8-4.2,1.7
	c-1.6,0-3.1-0.6-4.1-1.8c-1.1-1.4-1.7-3.1-1.6-4.8c0-3.9,2-7.5,6-10.7s9.6-4.9,16.8-4.8c5.5,0,10.1,0.9,13.6,2.8
	c2.7,1.4,4.8,3.8,5.9,6.6c0.8,2,1.2,6,1.2,12l-0.1,21.1c-0.1,3.6,0,7.3,0.3,10.9c0.1,1,0.5,1.9,1.1,2.7c0.5,0.4,1.1,0.7,1.8,0.7
	c0.7,0,1.3-0.1,1.9-0.5c2-1.5,3.8-3.1,5.5-4.9v3.8c-5.1,6.8-10,10.2-14.6,10.2c-2,0.1-4-0.8-5.3-2.3
	C693.1,1254,692.4,1251.4,692.4,1247.7z M692.4,1243.2l0.1-23.7c-4.5,1.7-9,3.6-13.3,5.8c-3,1.5-5.6,3.6-7.7,6.2
	c-1.5,2.1-2.3,4.6-2.3,7.1c-0.1,3,0.9,5.9,2.9,8.1c1.7,2,4.1,3.2,6.7,3.2C682.2,1250,686.8,1247.7,692.4,1243.2L692.4,1243.2z"/>
<path d="M715.5,1194.4l29,0.1v2.5h-1.4c-1.6-0.1-3.3,0.3-4.6,1.3c-1,0.8-1.6,2-1.5,3.3c0,1.8,0.7,4.2,2.2,7.3l15.1,31.5l14-34.4
	c0.8-1.7,1.1-3.6,1.2-5.5c0-0.6-0.1-1.3-0.5-1.8c-0.4-0.6-1-1-1.7-1.2c-1.3-0.4-2.7-0.5-4.1-0.4v-2.5l20.3,0.1v2.5
	c-1.4,0.1-2.7,0.5-3.9,1.1c-1.2,0.8-2.2,1.9-3,3.1c-0.9,1.7-1.7,3.4-2.3,5.2l-25.5,62.1c-2.5,6-5.7,10.5-9.7,13.6
	c-4,3.1-7.8,4.6-11.5,4.6c-2.4,0.1-4.8-0.7-6.6-2.3c-1.6-1.3-2.5-3.2-2.6-5.3c-0.1-1.7,0.6-3.4,1.9-4.6c1.4-1.2,3.3-1.8,5.1-1.7
	c2.1,0.1,4.2,0.7,6.1,1.5c1.1,0.5,2.2,0.8,3.4,1c1.7-0.1,3.3-0.9,4.5-2.1c1.6-1.4,3.2-4.1,4.9-8.2l4.5-10.8l-22.2-47
	c-0.9-1.8-2-3.6-3.2-5.2c-1.6-2.9-4.5-4.8-7.8-5.1L715.5,1194.4L715.5,1194.4z"/>
<path d="M462.6,1530.4l-7,19.2l-58.9-0.2v-2.7c17.4-15.8,29.6-28.6,36.7-38.6c7.1-10,10.7-19.1,10.7-27.4c0-6.3-1.9-11.5-5.8-15.6
	c-3.5-3.9-8.6-6.2-13.9-6.2c-4.8-0.1-9.4,1.4-13.2,4.3c-3.9,2.9-6.8,7.1-8.7,12.6h-2.7c1.3-9.1,4.4-16,9.5-20.9
	c5.1-4.8,11.4-7.3,19-7.2c8.1,0,14.9,2.6,20.3,7.9s8.1,11.4,8.1,18.4c-0.1,5.3-1.3,10.4-3.6,15.2c-3.7,7.9-9.6,16.3-17.7,25.2
	c-12.3,13.3-19.9,21.4-23,24.1l26.1,0.1c3.7,0.1,7.5-0.1,11.2-0.6c2.1-0.4,4.1-1.2,5.8-2.4c1.9-1.4,3.4-3.1,4.5-5.1L462.6,1530.4
	L462.6,1530.4z"/>
<path d="M474.4,1500.3c0-11.4,1.7-21.2,5.2-29.4s8.1-14.3,13.8-18.3c3.9-3,8.7-4.7,13.7-4.8c7.7,0,14.5,3.9,20.6,11.8
	c7.6,9.7,11.3,22.8,11.3,39.3c0,11.6-1.7,21.4-5.1,29.5c-3.4,8.1-7.7,13.9-12.8,17.5c-5.2,3.6-10.2,5.5-15,5.4
	c-9.5,0-17.4-5.6-23.7-16.9C477,1525.1,474.4,1513.7,474.4,1500.3z M488.8,1502.2c0,13.7,1.6,25,5,33.7c2.8,7.3,6.9,11,12.5,11
	c2.7,0,5.4-1.2,8.3-3.6c2.8-2.4,5-6.3,6.5-11.9c2.3-8.4,3.4-20.3,3.5-35.7c0-11.4-1.2-20.9-3.5-28.5c-1.8-5.6-4-9.6-6.8-12
	c-2.1-1.6-4.6-2.5-7.3-2.4c-3.3,0-6.3,1.5-8.9,4.5c-3.5,4.1-6,10.5-7.3,19.2C489.5,1484.9,488.9,1493.5,488.8,1502.2L488.8,1502.2z"
	/>
<path d="M550.8,1459.8l24.3-11.8h2.4l-0.2,84.3c0,5.6,0.2,9.1,0.7,10.5c0.5,1.4,1.5,2.6,2.9,3.2c1.5,0.7,4.5,1.2,9,1.3v2.8
	l-37.5-0.1v-2.7c4.7-0.1,7.8-0.5,9.1-1.2c1.3-0.6,2.3-1.6,2.9-2.9c0.5-1.2,0.8-4.8,0.8-10.8l0.1-53.9c0-7.3-0.2-11.9-0.7-14
	c-0.2-1.3-0.9-2.6-1.9-3.5c-0.9-0.7-2.1-1.1-3.3-1.1c-1.8,0-4.3,0.8-7.6,2.3L550.8,1459.8z"/>
<path d="M661.1,1448.2v2.8c-6.5,0.6-11.8,1.9-15.9,3.8c-4.5,2.2-8.6,5.2-12.2,8.8c-4,3.9-7.3,8.4-10,13.3
	c-2.9,5.5-5.1,11.4-6.6,17.4c7.1-4.8,14.2-7.2,21.3-7.2c6.8,0,12.7,2.8,17.7,8.3c5,5.5,7.5,12.6,7.5,21.2c0,8.2-2.7,16.2-7.6,22.8
	c-6.1,8.3-14.2,12.5-24.2,12.4c-6.5,0.1-12.7-2.3-17.4-6.8c-9.3-8.8-14-20.2-13.9-34.2c0-8.8,1.8-17.5,5.4-25.5
	c3.6-8.1,8.9-15.4,15.4-21.4c6.7-6.2,13-10.4,19.1-12.5c5.4-2,11.2-3.1,17-3.2L661.1,1448.2L661.1,1448.2z M615.2,1499.7
	c-0.8,5.3-1.3,10.6-1.4,16c0.1,5.2,0.9,10.4,2.6,15.4c1.4,5,4.1,9.5,7.7,13.2c2.5,2.3,5.7,3.6,9.1,3.5c4.3,0,8.1-2,11.5-6
	s5.1-9.7,5.1-17.2c0-8.4-1.6-15.7-5-21.8c-3.3-6.1-8-9.2-14.2-9.2c-2.1,0-4.1,0.4-6,1.2C621.3,1496,618.2,1497.7,615.2,1499.7
	L615.2,1499.7z"/>
<path d="M61,1354.5c0.1-36.3,22.9-63.2,58.7-63.1s58.3,27.1,58.2,63.4s-22.7,63-58.5,62.9S60.9,1390.8,61,1354.5z M152.8,1354.8
	c0.1-24.3-10.7-43.1-33-43.2s-33.6,18.7-33.7,43c-0.1,24.1,11.2,42.9,33.5,43S152.7,1378.8,152.8,1354.8L152.8,1354.8z"/>
<path d="M186,1355c0.1-36,22.6-63.4,58.4-63.3c29.9,0.1,47.4,17.9,49.9,41l-24.4-0.1c-2.2-12.2-11.3-20.2-25.6-20.3
	c-22.4-0.1-33.1,18.6-33.2,42.7c-0.1,24.8,12.8,42.6,33.1,42.7c14.4,0,24.6-8.6,26.2-21.3l24.1,0.1c-0.7,10.9-5.5,21.2-13.5,28.6
	c-8.3,7.8-20,12.8-36.9,12.8C210.1,1417.8,185.9,1391.5,186,1355z"/>
<path d="M297.8,1294.2l97.5,0.3l-0.1,20.7l-36.5-0.1l-0.3,100.6l-24.6-0.1l0.3-100.6l-36.5-0.1L297.8,1294.2z"/>
<path d="M396.4,1355.4c0.1-36.3,22.9-63.2,58.7-63.1s58.3,27.1,58.2,63.4s-22.7,63-58.5,62.9S396.3,1391.7,396.4,1355.4z
	 M488.2,1355.7c0.1-24.3-10.7-43.1-33-43.2s-33.6,18.7-33.7,43c-0.1,24.1,11.2,42.9,33.5,43S488.1,1379.7,488.2,1355.7z"/>
<path d="M526.8,1294.8l54.3,0.2c13.1,0,23.1,3.3,29.3,8.9c6.6,6,9.6,13.3,9.6,22.8c0,12.4-7.7,20.3-19.1,24.2v0.5
	c13.4,3.9,22.5,15.2,22.5,30.1c0,11.4-3.6,19.2-10.8,25.2c-7,6.1-17.7,9.6-30.6,9.6l-55.6-0.2L526.8,1294.8z M551.2,1395.8l28.3,0.1
	c11.9,0,19-6.6,19-16.4c0-11.5-8.4-17.5-19.6-17.5l-27.7-0.1L551.2,1395.8z M577.9,1343.8c10.7,0,18-5,18-14.5
	c0-9-6.6-14.3-17.4-14.3l-27.1-0.1l-0.1,28.8L577.9,1343.8z"/>
<path d="M638.1,1295.2l89.2,0.2l-0.1,20.7l-64.6-0.2l-0.1,27.1l56.7,0.2l0,20.2l-56.7-0.2l-0.1,32.8l65.1,0.2l-0.1,20.5l-89.7-0.2
	L638.1,1295.2z"/>
<path d="M788.4,1370l-20-0.1l-0.1,46.8l-25.5-0.1l0.3-121.3l53.3,0.1c14.1,0,24.6,4.1,31.7,11.4c7,6.9,10.9,16.4,10.8,26.3
	c0,17-8.9,28.8-24.2,33.9l30.2,49.8l-28.5-0.1L788.4,1370z M768.4,1349.9l25.5,0.1c12.9,0,19.7-5.9,19.7-16.6
	c0-11-7.1-16.5-19.3-16.5l-25.8-0.1L768.4,1349.9z"/>
<path d="M896,1336l-26.3-0.1v-15.3c14.2-0.5,27-5.7,29.4-20.6l20.2,0.1l-0.3,117.1l-23.2-0.1L896,1336z"/>
<path d="M933.9,1341.7h12.4c0.8,7.5,5.1,10.5,14,10.5c6.5,0,12.1-2.2,12.2-8c0-6.1-5.9-7.3-15.4-9.6c-11.2-2.6-21.4-5.6-21.3-18.6
	c0-12.3,10.1-18.7,24-18.6c14,0,23.1,7,24,19.5h-12.1c-0.7-6.3-5.6-9.4-12-9.5c-6.8,0-11.3,2.8-11.3,7.3c0,5.1,4.3,6.6,13.6,8.6
	c12.8,2.8,23.3,5.9,23.2,19.3c0,12.7-10.3,19.7-24.3,19.7C943.9,1362.4,934.3,1354.8,933.9,1341.7z"/>
<path d="M987,1298.7l50.2,0.1v10.7l-18.8-0.1l-0.1,51.7h-12.7l0.1-51.7l-18.8-0.1V1298.7z"/>
<path d="M702.3,339.4l-0.5-2.8c3.7-1.8,6.8-4.7,8.9-8.3c1.8-3,2.5-6.6,2-10.1c-0.1-0.7-0.4-1.4-0.9-1.9c-0.2-0.3-0.6-0.4-1-0.4
	c-1,0.4-2,1-2.8,1.8c-0.7,0.5-1.5,0.9-2.3,1c-1.8,0.4-3.7,0-5.2-1c-1.5-1.1-2.4-2.9-2.7-4.7c-0.3-2,0.2-4.1,1.5-5.7
	c1.3-1.7,3.2-2.8,5.4-3.1c2.9-0.4,5.8,0.4,8,2.4c2.6,2,4.2,5,4.8,9c0.7,4.4-0.2,8.9-2.5,12.8C712.7,332.5,708.4,336.2,702.3,339.4z"
	/>
<polygon points="947.8,12.9 940,146.1 947,162.3 965.9,153.8 1008.6,30.1 "/>
<polygon points="964.1,165.4 930,179.5 946.6,205.4 971.6,192.1 "/>
<text transform="matrix(1 0 0 1 -604.2969 563.7974)" style="font-family:'Metric-Regular'; font-size:12px;">eee</text>
<path d="M1359.6,270.1c0,0-39,51-46.5,157.5s88.5-76.5,99-103.5c10.5-27-7.5-88.5-39-79.5c-31.5,9,54-6,54-6"/>
<path class="st0" d="M1464.4,687.4c8,25.8,16.3,52.3,19.9,69.8c0.8,4,1.9,8.5,3.6,8.6c1,0.1,1.9-1.5,2.6-3.2c3-6.8,5-16.7,6.8-26.3
	c5.1-27.1,16.7-118.4,21.1-146.4"/>
<path class="st0" d="M1463.4,599.2c-5.7,35.3-40.2,213-47.4,246c0.6-33.5,25.3-188.4,32.1-216c3,14.8,9.5,36.2,16.3,58.2"/>
<path class="st0" d="M1564.5,650.6c-5,21-10,42-15.1,63.1c-2.3,9.8-4.1,22.4,1.8,28.7c2.5,2.7,5.9,3.3,9,3.7
	c26,3.5,52.4,0.1,77.4-9.8"/>
<path class="st0" d="M1543.9,689c28.5-4,57-8,85.6-12"/>
<path class="st0" d="M1562.5,632.3c24.2-9.8,82.7-21.3,82.7-21.3"/>
<path class="st0" d="M1670.7,649.2c-0.4,31.4-0.2,62.8,0.4,94.2c20.9-15.2,35-43.1,48.4-70c2.8,22.2,5.7,44.9,14.2,64.1
	c21.8-36.2,38.7-78.1,49.5-122.8"/>
<path class="st0" d="M1816.4,589.9c1.1,18-1,172.9,0,190.9c0.2,3.2,7.6,7.6,9.5,5.4c15.4-17.8,53.2-144.8,62-169.8
	c-24.3,80.1-46.6,161.5-66.8,243.8"/>
<path class="st0" d="M1911.9,663.6c-6.3,18.7-11,38.5-14,58.7c-1,6.8-1.9,13.8-1.3,20.7c0.6,6.9,2.8,13.8,6.9,17.9
	c7.2,7.2,17.4,3.4,24.8-3.3c17-15.6,25.5-44.3,27.8-72.3c0.8-9.7,0.8-20.3-3.4-28.1c-4.2-7.8-14.1-10-18-1.9"/>
<path class="st0" d="M1966.3,640.7c0.1,26.8,0.1,53.6,0.2,80.5c-0.2-21-0.3-42.4,4-62.6c4.3-20.2,13.8-39.3,27.9-47.3
	c4.3-2.4,9.3-3.8,13.6-1.2c7.5,4.4,9.3,19,5.9,29.2c-3.5,10.2-10.5,17.1-17.3,23.4c-9.9,9.3-19.9,18.7-29.8,28
	c-3.6,3.4-7.4,7.1-8.8,12.8c-2.6,10.4,3.9,20.5,9.9,27.6c19.7,23.3,40.6,44.5,62.7,63.4"/>
<path class="st0" d="M2068.4,582.3c-14.6,53.6-27.2,108.2-37.6,163.6"/>
<path class="st0" d="M2110.6,583.7c-16.3,28.8-33.9,56.3-52.7,82c-3.7,5.1-7.6,10.3-9.9,16.8c-2.3,6.5-2.8,14.8,0.1,20.8
	c1.8,3.6,4.5,6,7.2,8.2c16,12.7,33.8,21.1,52.1,24.6"/>
<path class="st0" d="M2216.4,660.2c0-8.5-0.7-17.1-2.2-25.3c-0.5-2.6-1.1-5.4-2.7-7c-2.9-3.1-7.1-0.5-10.2,2.5
	c-28.1,27.3-91.3,127.1-51.4,153.8c39.9,26.7,70.2-79.9,100.3-115.4"/>
<path class="st0" d="M2271.3,611.6c-12.7,49.2-24.9,98.7-36.6,148.4"/>
<path class="st0" d="M2279.2,649.3c34.1-7.6,68.3-15.2,102.4-22.8"/>
<path class="st0" d="M2334.3,631.6c-11.9,37.5-22.8,75.5-32.8,114.1"/>
<path class="st0" d="M2401.7,599c-2.1,33.2-4.1,66.9-0.3,99.8c28.3-43.6,51.9-93,69.9-146c-35.5,89.8-71.1,179.6-106.6,269.4"/>
<g>
	<path class="st1" d="M1939.8,331.4c-7,12.4-14.6,24.2-22.6,35.3c-1.6,2.2-3.3,4.4-4.2,7.2c-1,2.8-1.2,6.3,0,8.9
		c0.8,1.6,1.9,2.6,3.1,3.5c6.9,5.5,14.5,9.1,22.4,10.6 M1921.7,330.8c-6.3,23-11.7,46.5-16.2,70.4 M1877.7,355.9
		c0,11.5,0.1,23.1,0.1,34.6c-0.1-9-0.1-18.2,1.7-26.9c1.8-8.7,5.9-16.9,12-20.3c1.9-1.1,4-1.6,5.8-0.5c3.2,1.9,4,8.2,2.5,12.6
		c-1.5,4.4-4.5,7.3-7.4,10.1c-4.3,4-8.6,8-12.8,12c-1.5,1.4-3.2,3.1-3.8,5.5c-1.1,4.5,1.7,8.8,4.3,11.9c8.5,10,17.5,19.2,26.9,27.3
		 M1854.4,365.8c-2.7,8.1-4.7,16.5-6,25.2c-0.4,2.9-0.8,5.9-0.5,8.9c0.3,3,1.2,5.9,3,7.7c3.1,3.1,7.5,1.5,10.7-1.4
		c7.3-6.7,11-19,12-31.1c0.3-4.2,0.3-8.7-1.5-12.1c-1.8-3.4-6.1-4.3-7.7-0.8 M1812.1,363.4c0.5,7.7,0.8,45,1.2,52.7
		c0.1,1.4,3.3,3.3,4.1,2.3c6.6-7.7,22.9-62.3,26.6-73c-10.5,34.5-31.7,115.5-40.4,150.9"/>
</g>
<g>
	<path class="st1" d="M1991.3,257.1c-0.2,13.5-3.2,54.6-3,68.1c9-6.5,18.2-46.1,23.9-57.7c1.2,9.5-3.6,39.4,0.1,47.7
		c9.4-15.6,27.3-72.9,27.3-72.9"/>
	<path class="st1" d="M1944.7,249.8c10.4-4.2,35.6-9.2,35.6-9.2"/>
	<path class="st1" d="M1936.7,274.2c12.3-1.7,42.2-13.7,42.2-13.7"/>
	<path class="st1" d="M1951.6,239c-2.2,9-10.4,36.8-12.5,45.9c-1,4.2-1.8,9.7,0.8,12.3c1.1,1.1,2.5,1.4,3.9,1.6
		c11.2,1.5,22.9-6,33.7-10.2"/>
	<path class="st1" d="M1902.1,235.6c-2.5,15.2-17.3,91.6-20.4,105.8c0.2-14.4,10.9-81,13.8-92.9c1.3,6.4,4.1,15.6,7,25"/>
	<path class="st1" d="M1902.5,273.5c3.4,11.1,7,22.5,8.5,30c0.3,1.7,0.8,3.7,1.5,3.7c0.4,0,0.8-0.6,1.1-1.4
		c1.3-2.9,2.1-7.2,2.9-11.3c2.2-11.7,7.2-50.9,9.1-63"/>
</g>
<g>
	<path class="st1" d="M2022.2,394.5c-0.9,14.3-1.8,28.8-0.1,42.9c12.2-18.7,22.3-40,30.1-62.8c-15.3,38.6-30.6,77.2-45.9,115.9"/>
	<path class="st1" d="M1993.2,408.5c-5.1,16.1-9.8,32.5-14.1,49.1"/>
	<path class="st1" d="M1969.5,416.1c14.7-3.3,29.4-6.5,44-9.8"/>
	<path class="st1" d="M1966.1,399.9c-5.5,21.2-10.7,42.4-15.7,63.8"/>
	<path class="st1" d="M1942.5,420.8c0-3.7-0.3-7.3-0.9-10.9c-0.2-1.1-0.5-2.3-1.1-3c-1.3-1.3-3.1-0.2-4.4,1.1
		c-12.1,11.8-39.3,54.7-22.1,66.1c17.2,11.5,43.1-49.6,43.1-49.6"/>
</g>
<path class="st1" d="M2053.6-172.6c-9.7,13.8-20.2,27-31.4,39.3c-2.2,2.4-4.5,4.9-5.9,8c-1.4,3.1-1.7,7.1,0.1,9.9
	c1,1.7,2.7,2.9,4.3,3.9c9.5,6.1,20.2,10.1,31.1,11.8 M2028.4-173.3c-8.7,25.7-16.2,51.9-22.5,78.4 M1975.8-173.2
	c0,0-13.1,67.5-18.4,88.2c2.5-9.8,10-42,12.6-51.7c2.6-9.7,8.2-18.8,16.6-22.7c2.6-1.2,5.6-1.8,8.1-0.6c4.5,2.1,5.6,9.1,3.5,14
	c-2.1,4.9-6.3,8.2-10.3,11.2c-5.9,4.5-11.9,8.9-17.8,13.4c-2.1,1.6-4.4,3.4-5.3,6.1c-1.5,5,2.3,9.8,5.9,13.2
	c11.7,11.2,24.3,21.3,37.4,30.4"/>
<path class="st1" d="M1919.6-254c-0.2,15-4.5,60.8-4.1,75.8c12.5-7.3,25.3-51.4,33.2-64.3c1.7,10.6-5,43.9,0.1,53.1
	c13-17.4,38-81.2,38-81.2"/>
<line class="st1" x1="1871.3" y1="-228.1" x2="1907.4" y2="-241.9"/>
<line class="st1" x1="1848.4" y1="-195.6" x2="1895.2" y2="-210.8"/>
<path class="st1" d="M1873.9-238.2c-3,10.1-14.4,41-17.4,51.1c-1.4,4.7-2.4,10.8,1.1,13.7c1.5,1.3,3.5,1.6,5.4,1.8
	c15.5,1.7,42.1-12,42.1-12"/>
<path class="st1" d="M1814.1-266.6l-33.3,135.3c0,0,19.7-109.5,26.4-128.4c3,10.1,21.3,94.3,22.9,94.4c1,0.1,28.7-128,28.7-128"/>
<path class="st1" d="M1823.9-30.1c0,0,22.7-54-7.3-35s-63.6,89.3-35.8,108c27.8,18.7,68.5-69.5,68.5-69.5"/>
<path class="st1" d="M1802.5-450.9c0,0-9.7-29.4-25.7-1c-10.8,19.2-35,87.1,22.9,27"/>
<polyline class="st1" points="1802.8,-442 1830.6,-447.3 1852,-451.3 "/>
<line class="st1" x1="1809.5" y1="-384.6" x2="1829.5" y2="-456.8"/>
<polyline class="st1" points="1877.7,-151.7 1874.8,-88.2 1919.6,-171.4 1880.1,-43.9 "/>
<path class="st1" d="M1917.7-50.1c-1.1,15.7-2.3,31.5-0.2,47c15.7-20.6,28.9-43.8,38.9-68.8c-19.8,42.3-39.5,84.7-59.3,127"/>
<path class="st1" d="M1892.5-44.5c0,0-14,58.3-19.5,76.5"/>
<line class="st1" x1="1864.5" y1="-26.5" x2="1915.5" y2="-42.5"/>
<path class="st1" d="M1858.2-38.2c-7.1,23.2-13.9,46.5-20.3,70"/>
<path class="st1" d="M1874.8-458.7c0,0-8.2-23.4-26.4,28.9c-15.6,44.8,5.5,41,24.6,16.7s14.5-50.2,1.8-40.1"/>
<path class="st1" d="M1746.8-468.8c0,0-15.3-47.7-46.3,44.5c-24.4,72.6,8.4,66.4,37.6,27.1s15.9-82.8-3.6-66.5"/>
<g>
	<line class="st1" x1="1915.4" y1="-478" x2="1895" y2="-398.6"/>
	<path class="st1" d="M1899-472.4c0,0,59.7,8.4,9,36.9c0,0,44.5-3.4-7.8,31.4"/>
</g>
<g>
	<path class="st1" d="M1952.6-473.3c0,0-22.9,61.7,2.6,56.8c7-1.4,24.9-8.1,24.9-8.1"/>
	<line class="st1" x1="1942.4" y1="-438.1" x2="1970.5" y2="-447.6"/>
	<line class="st1" x1="1941.1" y1="-460.5" x2="1976.2" y2="-474"/>
</g>
<g>
	<line class="st1" x1="2001.1" y1="-489.6" x2="1990.2" y2="-423.3"/>
	<path class="st1" d="M1994-487.5c0,0,44,14.9,1.9,35.2l27.4,32.5"/>
</g>
<path class="st1" d="M1823-285l17-86.5c0,0-15,23.4-24.5,26.9"/>
<path class="st1" d="M1865.5-379.8c0,0-9.4,5.2-11.1,14.2c-1.7,9,26.8-8.2,0.3,26.1"/>
<line class="st1" x1="1869.6" y1="-371.6" x2="1898.2" y2="-378.2"/>
<line class="st1" x1="1883.4" y1="-376.5" x2="1875.8" y2="-339.9"/>
<path class="st1" d="M1904.7-365.4c0,0,2.2,14.4-6,17.6"/>
<path class="st1" d="M1977.6-326c0,0-9.7-18.6-23,16.9c-10.5,28.1,3.7,25.8,16.6,10.5s9.8-31.6,1.2-25.3"/>
<path class="st1" d="M1922.4-328.6c0,0,36-41.3,33.6-20.7c-2.3,20-48.7,69.6-48.7,69.6l47.9-26.5"/>
<path class="st1" d="M1987.1-335.2c0,0,11.2-9.7,13.1-13.9l-7.5,49.7"/>
<path class="st1" d="M2037.5-355.2c0,0-16.6-4.5-25.7,40.1c-9.2,44.5,37.7-7.6,25.7-11.5s-21.2,10.5-21.2,10.5"/>
<path class="st1" d="M1930.5-150.8c-3.7,9-6.5,18.4-8.4,28.1c-0.6,3.3-1.1,6.6-0.8,9.9c0.4,3.3,1.7,6.6,4.1,8.6
	c4.3,3.4,10.4,1.7,14.8-1.6c10.1-7.5,15.2-21.2,16.6-34.6c0.5-4.6,0.5-9.7-2.1-13.5c-2.5-3.7-12.4-12-21.7,10"/>
<g>
	<path class="st1" d="M1225-864.4c0,0-9.7-29.4-25.7-1c-10.8,19.2-35,87.1,22.9,27"/>
	<polyline class="st1" points="1217.3,-889 1256.5,-894.3 1286.5,-898.3 	"/>
	<line class="st1" x1="1235" y1="-809.6" x2="1260.5" y2="-893.5"/>
	<path class="st1" d="M1297.3-879.2c0,0-8.2-23.4-26.4,28.9c-15.6,44.8,5.5,41,24.6,16.7s7.7-44.9-5-34.9"/>
	<path class="st1" d="M1177.8-889.8c0,0-15.3-47.7-46.3,44.5c-24.4,72.6,8.4,66.4,37.6,27.1s15.9-82.8-3.6-66.5"/>
	<g>
		<line class="st1" x1="1327.4" y1="-902.6" x2="1307" y2="-810.6"/>
		<path class="st1" d="M1311-896.2c0,0,59.7,9.7,9,42.8c0,0,44.5-4-7.8,36.4"/>
	</g>
	<path class="st1" d="M1366.4-891.2c0,0-26.5,76,2.9,69.9c8.1-1.7,47.7-25.8,47.7-25.8"/>
	<line class="st1" x1="1354.6" y1="-842.5" x2="1387" y2="-854.2"/>
	<line class="st1" x1="1351.1" y1="-866.7" x2="1391.6" y2="-883.3"/>
	<g>
		<line class="st1" x1="1419.8" y1="-927.1" x2="1403" y2="-823.7"/>
		<path class="st1" d="M1408.4-924.3c0,0,71.2,20.3,3.1,48l63,59.7"/>
	</g>
	<path class="st1" d="M1194.2-683.3l17-86.5c0,0-15,23.4-24.5,26.9"/>
	<path class="st1" d="M1243.5-789.1c0,0-9.4,5.2-11.1,14.2c-1.7,9,26.8-8.2,0.3,26.1"/>
	<line class="st1" x1="1256.1" y1="-786.8" x2="1284.7" y2="-793.3"/>
	<line class="st1" x1="1269.9" y1="-791.6" x2="1262.3" y2="-755"/>
	<line class="st1" x1="1297.7" y1="-756" x2="1285" y2="-718.3"/>
	<line class="st1" x1="1271.7" y1="-585.3" x2="1259" y2="-547.7"/>
	<path class="st1" d="M1176.7-634.3c0,0-11.8-24.7-28.1,22.3c-12.9,37.2,4.5,34.1,20.2,13.9c15.7-20.2,12-41.8,1.5-33.4"/>
	<path class="st1" d="M1107.1-639.7c0,0,44-54.6,41.1-27.4c-2.8,26.5-59.6,92.1-59.6,92.1l58.6-35"/>
	<path class="st1" d="M1186.2-648.5c0,0,13.7-12.9,16-18.4l-12.6,90.5"/>
	<path class="st1" d="M1253-687c0,0-25.4,6.4-36.6,62.3c-11.2,55.9,46.1-9.6,31.5-14.4c-14.6-4.8-25.9,13.2-25.9,13.2"/>
	<g>
		<path class="st1" d="M1563.5-598.3l-50.8,64.5c0,0-4.3,4.3-5.6,7c-1.3,2.7-1.6,6.2,0.1,8.7c1,1.5,2.6,2.5,4.1,3.4
			c9,5.3,19.1,8.9,29.4,10.3 M1518.7-568.8c-8.3,22.5-15.4,45.4-21.3,68.6 M1468.8-568.8c0,0-15.3,59.7-20.3,77.8
			c2.4-8.5,12.3-37.4,14.8-45.9c2.4-8.5,7.8-16.5,15.8-19.8c2.4-1,5.3-1.6,7.7-0.5c4.2,1.9,5.3,8,3.3,12.3c-2,4.3-6,7.2-9.8,9.8
			c-5.6,3.9-11.2,7.8-16.9,11.7c-2,1.4-4.2,3-5,5.4c-1.5,4.3,2.2,8.6,5.6,11.6c11.1,9.8,46.6,39.1,59,47"/>
		<path class="st1" d="M1413.4-659.6c-0.2,15.6-4.2,63.2-3.8,78.8c11.6-7.6,23.5-53.4,31-66.8c1.5,11-4.7,45.6,0.1,55.2
			c12.1-18,41.7-109.3,41.7-109.3"/>
		<line class="st1" x1="1368.4" y1="-632.7" x2="1402.1" y2="-647"/>
		<line class="st1" x1="1349.2" y1="-601.6" x2="1399" y2="-616.9"/>
		<path class="st1" d="M1370.8-643.1c-2.8,10.5-13.4,42.6-16.2,53.1c-1.3,4.9-2.3,11.2,1,14.3c1.4,1.3,3.3,1.6,5,1.8
			c14.4,1.7,39.3-12.5,39.3-12.5"/>
		<path class="st1" d="M1284-532c0,0,18.4-113.7,24.6-133.4c2.8,10.5,19.8,98,21.3,98c0.9,0.1,26.7-133,26.7-133"/>
		<line class="st1" x1="1299.2" y1="-658" x2="1284" y2="-532"/>
		<path class="st1" d="M1301-422c0,0,24.2-75.2,3.9-56.7s-42.9,86.7-24.2,104.9c18.8,18.2,58.5-58.6,58.5-58.6"/>
		<polyline class="st1" points="1381.5,-546.4 1379.7,-487 1421,-589 1382.3,-442.3 		"/>
		<path class="st1" d="M1392-442.3c-1.1,13.7-2.4,38.9-0.5,52.5c14.9-18,30.5-69.6,39.9-91.5c-18.7,37.1-40.5,150-40.5,150"/>
		<path class="st1" d="M1367.9-426.1c0,0-9.1,36.8-14.3,52.8"/>
		<line class="st1" x1="1341.4" y1="-410.4" x2="1389.7" y2="-424.4"/>
		<path class="st1" d="M1343.7-440.6c-6.7,20.3-20.2,88.2-20.2,88.2"/>
		<path class="st1" d="M1425.8-549.1c-3.5,7.9-6.2,16.1-7.9,24.6c-0.6,2.9-1.1,5.8-0.7,8.7c0.3,2.9,1.6,5.8,3.9,7.5
			c4.1,3,9.9,1.4,14-1.4c9.6-6.5,14.4-18.6,15.7-30.3c0.4-4.1,0.4-8.5-1.9-11.8c-2.4-3.3-11.7-10.5-20.6,8.8"/>
	</g>
</g>
<path class="st1" d="M626-911.9c0,0-11.9-30.3-31.4-1c-13.2,19.8-42.9,89.8,28,27.9"/>
<line class="st1" x1="614" y1="-911" x2="678.5" y2="-944.3"/>
<line class="st1" x1="627" y1="-855.6" x2="652.5" y2="-939.5"/>
<path class="st1" d="M689.4-925.2c0,0-8.2-23.4-26.4,28.9c-15.6,44.8,5.5,41,24.6,16.7c19.1-24.3,7.7-44.9-5-34.9"/>
<path class="st1" d="M569.8-935.8c0,0-15.3-47.7-46.3,44.5c-24.4,72.6,8.4,66.4,37.6,27.1c29.3-39.3,15.9-82.8-3.6-66.5"/>
<g>
	<line class="st1" x1="719.4" y1="-948.6" x2="699" y2="-856.6"/>
	<path class="st1" d="M703.1-942.2c0,0,59.7,9.7,9,42.8c0,0,44.5-4-7.8,36.4"/>
</g>
<path class="st1" d="M758.4-937.2c0,0-26.5,76,2.9,69.9c8.1-1.7,47.7-25.8,47.7-25.8"/>
<line class="st1" x1="746.6" y1="-888.5" x2="782" y2="-905"/>
<line class="st1" x1="743.2" y1="-912.7" x2="783.6" y2="-929.3"/>
<g>
	<line class="st1" x1="811.8" y1="-973" x2="795" y2="-869.7"/>
	<path class="st1" d="M800.4-970.3c0,0,71.2,20.3,3.1,48l63,59.7"/>
</g>
<path class="st1" d="M586.2-729.3l17-86.5c0,0-15,23.4-24.5,26.9"/>
<path class="st1" d="M635.5-835.1c0,0-9.4,5.2-11.1,14.2c-1.7,9,26.8-8.2,0.3,26.1"/>
<line class="st1" x1="648.2" y1="-832.8" x2="676.7" y2="-839.3"/>
<line class="st1" x1="661.9" y1="-837.6" x2="654.3" y2="-801"/>
<line class="st1" x1="689.7" y1="-802" x2="677" y2="-764.3"/>
<line class="st1" x1="654.7" y1="-646.3" x2="642" y2="-624"/>
<path class="st1" d="M568.7-680.3c0,0-11.8-24.7-28.1,22.3c-12.9,37.2,4.5,34.1,20.2,13.9c15.7-20.2,12-41.8,1.5-33.4"/>
<path class="st1" d="M499.1-685.7c0,0,44-54.6,41.1-27.4c-2.8,26.5-59.6,92.1-59.6,92.1l76.3-39"/>
<path class="st1" d="M578.3-694.5c0,0,13.7-12.9,16-18.4l-12.6,90.5"/>
<path class="st1" d="M645-733c0,0-25.4,6.4-36.6,62.3c-11.2,55.9,46.1-9.6,31.5-14.4s-25.9,13.2-25.9,13.2"/>
<path class="st1" d="M955.6-644.3l-50.8,64.5c0,0-4.3,4.3-5.6,7c-1.3,2.7-1.6,6.2,0.1,8.7c1,1.5,2.6,2.5,4.1,3.4
	c9,5.3,19.1,8.9,29.4,10.3 M911.7-623.7L898-541 M860.8-614.8c0,0-15.3,59.7-20.3,77.8c2.4-8.5,12.3-37.4,14.8-45.9
	c2.4-8.5,7.8-16.5,15.8-19.8c2.4-1,5.3-1.6,7.7-0.5c4.2,1.9,5.3,8,3.3,12.3c-2,4.3-6,7.2-9.8,9.8c-5.6,3.9-11.2,7.8-16.9,11.7
	c-2,1.4-4.2,3-5,5.4c-1.5,4.3,2.2,8.6,5.6,11.6c11.1,9.8,46.6,39.1,59,47"/>
<path class="st1" d="M805.5-705.6c-0.2,15.6-4.2,63.2-3.8,78.8c11.6-7.6,23.5-53.4,31-66.8c1.5,11-4.7,45.6,0.1,55.2
	c12.1-18,41.7-109.3,41.7-109.3"/>
<line class="st1" x1="760.4" y1="-678.7" x2="794.1" y2="-693"/>
<line class="st1" x1="741.3" y1="-647.6" x2="791" y2="-662.9"/>
<path class="st1" d="M762.8-689.1c-2.8,10.5-13.4,42.6-16.2,53.1c-1.3,4.9-2.3,11.2,1,14.3c1.4,1.3,3.3,1.6,5,1.8
	c14.4,1.7,39.3-12.5,39.3-12.5"/>
<path class="st1" d="M676.1-578c0,0,18.4-113.7,24.6-133.4c2.8,10.5,19.8,98,21.3,98c0.9,0.1,26.7-133,26.7-133"/>
<line class="st1" x1="691.2" y1="-704" x2="676.1" y2="-578"/>
<path class="st1" d="M693-468c0,0,24.2-75.2,3.9-56.7c-20.3,18.5-42.9,86.7-24.2,104.9c18.8,18.2,58.5-58.6,58.5-58.6"/>
<polyline class="st1" points="773.6,-592.4 771.7,-533 813,-635 774.4,-488.3 "/>
<path class="st1" d="M784.1-488.3c-1.1,13.7-2.4,38.9-0.5,52.5c14.9-18,30.5-69.6,39.9-91.5c-18.7,37.1-40.5,150-40.5,150"/>
<path class="st1" d="M759.9-472.1c0,0-9.1,36.8-14.3,52.8"/>
<line class="st1" x1="733.4" y1="-456.3" x2="781.7" y2="-470.4"/>
<path class="st1" d="M735.8-486.5c-6.7,20.3-20.2,88.2-20.2,88.2"/>
<path class="st1" d="M817.9-595.1c-3.5,7.9-6.2,16.1-7.9,24.6c-0.6,2.9-1.1,5.8-0.7,8.7c0.3,2.9,1.6,5.8,3.9,7.5
	c4.1,3,9.9,1.4,14-1.4c9.6-6.5,14.4-18.6,15.7-30.3c0.4-4.1,0.4-8.5-2-11.8c-2.4-3.3-11.7-10.5-20.6,8.8"/>
<g>
	<path d="M16.4-1049.5c2,1.8,4.5,2.7,7.4,2.7c9,0,22.6-8.5,43.2-26.4l-7.2-8.3c-26.9,23.5-34.8,23.8-36.1,23.7
		c-0.3-0.9-1.4-5.3,3.6-18.8c3.8-10.2,9.2-20.4,12.7-25.5c4.6-6.9,9.1-10.6,12.4-10.3c1.4,0.1,2.8,1,4,2.2l10.1-5.2
		c-3-3.7-7.3-7.3-13-7.9c-7.8-0.8-15.5,4.2-22.7,15.1c-2,2.9-4.4,7.1-6.8,11.8c-1.2,11.3-5.2,23.1-11.6,34
		C12.1-1056.5,13.4-1052.2,16.4-1049.5z"/>
	<polygon points="94.8,-1117.7 121.8,-1131.7 116.8,-1141.4 96.3,-1130.9 98.6,-1130.1 	"/>
	<path d="M66.9-1104.2l-5.1,2c-0.8-2.1-2.9-5.7-5.3-8.1l-4.1,2.1l5,9.8l23.9-12.3l4.5-14.7l-19.1,9.9c3.3,4.1,5.1,8.4,5.4,9.3
		L66.9-1104.2z"/>
	<polygon points="88.1,-1133.3 85.7,-1125.4 96.3,-1130.9 	"/>
	<polygon points="62.6,-1049.4 73.1,-1046.2 94.8,-1117.7 81.2,-1110.7 	"/>
	<path d="M98.6-1090.4c-7.9,22.6-7.6,35.9,0.7,40.5c1.6,0.9,3.5,1.3,5.4,1.3c7.8,0,17.8-7,27.9-19.9c5.2-6.6,8.5-13.1,10.1-19.1
		l0.8-3.7c1.4-8.5-0.5-15.6-4.7-19.7c-5.1-5.1-12.5-5.1-19,0l6.8,8.6c2.9-2.3,4-1.2,4.4-0.8c2.9,2.9,3.8,14.1-7.1,28
		c-10.1,12.8-17.7,16-19.4,15.7c-0.4-0.6-3.1-5.8,4.3-27.2c8.4-24,13.7-29.1,15.2-30.2c0.3,0.4,0.6,0.9,0.8,1.4l5.2-1.9l5.2-1.8
		c-1.4-4.1-5.1-8.9-10.9-8.9c0,0,0,0,0,0C115.6-1128.2,107.8-1116.9,98.6-1090.4z"/>
	<path d="M-41-1023.7c1.7,0.9,3.9,1.6,6.6,1.6c4.2,0,9.7-1.6,16.6-6.4c7.8-5.4,16.1-13.9,24.1-24.6c2.2-3,4.3-6.1,6.1-9.3
		c0.3-4.6,1.7-10.1,4-16.7c2.2-6,4.9-12.1,7.6-17.3c0-0.1,0-0.2,0-0.3c1.4-13.5-1.5-25.1-7.8-31c-0.6-0.5-1.2-1-1.8-1.5l1.3-0.4
		c-0.5-1.6-5.5-16.1-17.1-16.2c-8.3,0-21.4,6.2-39.7,60.6C-52.6-1050.5-52.6-1029.8-41-1023.7z M-30.5-1081.8
		c17.3-51.6,28-53.1,29.2-53.1c0,0,0,0,0,0c1.4,0,2.9,1.5,4.2,3.4c-2.6,0.6-5.3,2-8.1,4.3l7,8.4c4.3-3.6,6.2-1.9,6.9-1.1
		c6.7,6.3,8.7,33.2-11.3,60.1c-15.3,20.5-29.2,28.5-33.4,26.3C-39.1-1035.1-42-1047.4-30.5-1081.8z"/>
	<path d="M164.3-1133.7l1.3-6l-10.7-2.4l-1,4.4c1.7,0.5,3.6,1.1,5.5,1.9C161.2-1135.2,162.8-1134.5,164.3-1133.7z"/>
	<path d="M134.5-1050.1l10.7,2.4l1.3-5.7l-4.8-6.2c2.8-2.2,5.3-4.2,7.5-6.1l4.5-20.5c-0.1,0-0.3,0-0.4,0c-2.5,0.2-4.9-1.3-5.7-3.7
		c-0.8-2.4,0.1-5,2.2-6.4c2.8-1.9,5.2-3.6,7.3-5.2l4.7-21.2c-2.9-1.7-6.6-3.2-10.3-4.4l-7.9,35.7c-0.2,1.2-0.5,2.4-0.8,3.7
		L134.5-1050.1z"/>
	<path d="M167.7-1116.3c0.4,1.9-0.1,6.7-10.6,14.9l-3.4,15.2c5.2-0.4,10.5,0.7,11.3,1.8c0,0.1,0.8,4.7-15.8,18.8l-2.7,12.3l1.9,2.5
		c22.1-17,30.3-28.6,26.8-37.5c-1.4-3.7-4.5-5.9-8-7.1c9.1-8.1,12.8-15.7,11.2-23.1c-1.3-6.1-6.1-11.1-14.2-15.1l-2.5,11.1
		C164.9-1120.7,167.2-1118.6,167.7-1116.3z"/>
	<path d="M144.8-1139.8L143-1129c2.6,0.4,5.5,1.1,8.5,2l2.4-10.7C148.9-1139.2,145-1139.8,144.8-1139.8z"/>
	<path d="M185.6-1100.9c-3.3,16.3-4.8,34.3,2.4,42.5c2.1,2.3,5.5,4.8,11,4.8c1.3,0,2.7-0.1,4.3-0.5c4.7-1,16.8-7.4,28-13.8l2.3-14
		c-15,8.7-29,16.3-32.5,17c-3.4,0.7-4.4-0.4-4.8-0.9c-1.9-2.1-2.6-6.4-2.5-11.9l-4,1.9l-4.6-10l9.9-4.6c0.7-4.6,1.7-9.5,2.8-14.3
		l-11.7,4.8L185.6-1100.9z"/>
	<path d="M204.4-1127.6l-10.4-3.6c-1.1,3-3.4,10-5.6,18.5l13-5.3C202.4-1121.4,203.4-1124.6,204.4-1127.6z"/>
	<path d="M252.7-1080.5l-5.7-9.4c-0.4,0.2-0.8,0.5-1.1,0.7l-2.3,14.2C247.7-1077.5,251.1-1079.5,252.7-1080.5z"/>
	<path d="M225.1-1092.3l-4.6-10l-25.5,11.9c-0.7,4.6-1.2,8.9-1.2,12.7L225.1-1092.3z"/>
	<path d="M185.6-1100.9c0.8-4.1,1.8-8.1,2.8-11.8l-6.5,2.7L185.6-1100.9z"/>
	<path d="M226.6-1116.5l-4.2-10.2l-21,8.6c-1.3,4.3-2.5,8.8-3.5,13.3L226.6-1116.5z"/>
	<path d="M248.1-1103.3l-7.6-7.2c-1.3-1.2-1.9-2.9-1.7-4.7l-5.4,33.3c4.1-2.4,8.3-4.9,12.3-7.3L248.1-1103.3z"/>
	<path d="M230.4-1062.8l10.9,1.8l2.3-14c-3.6,2.1-7.9,4.6-12.3,7.2L230.4-1062.8z"/>
	<path d="M258-1164.4l-9.5-1.5c2.6,0.9,5.8,2.2,9.2,3.8L258-1164.4z"/>
	<path d="M242.3-1119.6c2-0.8,5.4-2.3,9.2-4.1l4.4-27c-3.3-1.8-6.9-3.3-10.4-4.6l-6.4,39.7C239.4-1117.4,240.6-1118.9,242.3-1119.6z
		"/>
	<path d="M248.5-1166c-2.6-0.9-4.6-1.5-5.8-1.9l-3,10.6c1.8,0.5,3.7,1.1,5.7,1.9l1.8-10.8L248.5-1166z"/>
	<path d="M239-1115.5c0,0.1,0,0.2,0,0.3l0.1-0.5C239-1115.6,239-1115.5,239-1115.5z"/>
	<path d="M268.3-1138.9c0.3,5.4-9,11.2-16.9,15.1l-3.3,20.4l55.4,52.6l7.6-8l-57-54c17.4-8.3,25.7-17,25.2-26.7
		c-0.6-10.5-11.7-18-21.6-22.7l-1.9,11.4C262.6-1147.2,268.1-1142.8,268.3-1138.9z"/>
</g>
<g>
	<path d="M5.3-910.8l17-86.5c0.5-2.6-0.9-5.2-3.4-6.2c-2.5-1-5.3-0.1-6.7,2.1c-9.6,15.1-18.5,23.5-21.7,24.7l3.8,10.3
		c4-1.5,8.5-5.3,12.6-9.8l-12.4,63.2L5.3-910.8z"/>
	<path d="M42.7-974c11.2-14.5,14.3-21.5,11.7-26.9c-2-4.3-6.4-4.9-9.7-5c2.4-4.3,7.1-7,7.2-7.1l-2.7-4.8l-2.7-4.8
		c-0.5,0.3-11.7,6.6-13.9,18c-0.6,3.1,0.5,5.3,1.5,6.5c2.5,3,6.3,3.1,9.1,3.1c0.1,0,0.1,0,0.2,0c-1.1,2.3-3.6,6.5-9.4,14.1L42.7-974
		z"/>
	<polygon points="81,-1019 79.9,-1013.8 91.7,-1016.5 89.2,-1027.2 60.6,-1020.6 63.1,-1009.9 68.1,-1011.1 70.2,-1021.2 	"/>
	<polygon points="68.1,-1011.1 62.6,-984.6 73.4,-982.4 79.9,-1013.8 	"/>
	<rect x="77.2" y="-971.1" transform="matrix(0.3188 -0.9478 0.9478 0.3188 981.3821 -565.759)" width="39.7" height="11"/>
</g>
<g>
	<rect x="275.1" y="-955.1" transform="matrix(0.4947 -0.8691 0.8691 0.4947 970.7512 -229.5787)" width="25.6" height="11"/>
	<path d="M212.7-996.5c-0.1-0.1-0.1-0.1-0.2-0.2l0.8-0.4c-0.5-1-5.1-10.1-13.9-9.6c-9.1,0.5-16.8,10.8-24.3,32.5
		c-0.7,1.9-1.2,3.8-1.8,5.5l14.1-7.2c5.8-15,10.1-18.7,11.8-19.5l6.2,7.8c0.8,3.7-0.2,14.2-9.2,25.8c-7,9-12.6,12.1-14.6,12.6
		c-0.3-1.1-0.8-4.3,1-11.8l-12.2,6.2c-0.7,7.9,1.2,13,5.7,15.4c1.5,0.8,3.1,1.2,4.9,1.2c6.8,0,15.3-5.9,23.8-16.9
		C217.7-971.7,219.3-989.9,212.7-996.5z"/>
	<path d="M182.5-961.1l16.6-8.5l-5-9.8l-6.8,3.5c-0.6,1.6-1.3,3.4-1.9,5.3C184.1-966.8,183.2-963.7,182.5-961.1z"/>
	<path d="M141.2-952.3c3.8-4.9,8-10.3,12.2-16c19.9-27,30.6-46.7,31.9-58.6c0.7-6.9-1-11.3-5.3-13c-6.2-2.6-14.5,2.5-28.8,17.4
		c-8.8,9.2-16.5,18.6-16.8,19l8.6,6.9c12-14.9,25.2-28.2,31.4-31.9c0,0.1,0,0.3,0,0.5c-2.2,20.3-42.8,71.2-58.3,89.1
		c-1.7,2-1.8,4.9-0.2,7c1.1,1.4,2.7,2.1,4.3,2.1c0.8,0,1.7-0.2,2.5-0.6l47.6-24.3c0.3-3.9,1.3-8.5,2.9-13.8L141.2-952.3z"/>
	<path d="M235.3-1032.6c-2.7-0.7-5.5,0.7-6.5,3.2c-1.1,2.7-8.5,10.6-14.7,16.4l7.5,8c0.9-0.9,2.4-2.3,4.1-4l-9.9,71.3l10.9,1.5
		l12.6-90.5C239.7-1029.2,238-1031.8,235.3-1032.6z"/>
	<path d="M281.2-1004.7c-10.1-3.3-18.6,1.3-24.3,6.4c11.1-38,29-43.7,29.2-43.8l-0.1,0l-2.7-10.7c-1.2,0.3-28.8,8-40.6,66.5
		c-1.3,6.4-5.2,25.7,7.2,28.7c0.8,0.2,1.6,0.3,2.5,0.3c13.1,0,31.1-22.3,34.5-34C289-999.1,285.4-1003.4,281.2-1004.7z M263.4-975.6
		c-5.4,5.4-9.3,7.2-10.7,7.4c-0.4-1-1.5-4.7,0.7-15.8c0.1-0.7,0.3-1.4,0.4-2.1l4.4,2.8c0.1-0.1,8.4-12.9,18-11.2
		C275.5-991.2,271.2-983.3,263.4-975.6z"/>
</g>
<g>
	<path d="M2507.4-85.1c-13.3-9.2-26.2-19.6-38.1-30.9c-0.2-0.2-0.4-0.4-0.6-0.6c-1.5,6.3-2.8,11.7-3.6,14.9c0,0,0,0,0,0.1
		c-0.8,2.9-3.8,4.7-6.7,4c-2.9-0.8-4.7-3.8-4-6.7c0,0,0-0.1,0-0.1c5.2-20.4,18.2-87.1,18.3-87.8l10.8,2.1c-0.1,0.6-0.9,4.7-2.1,10.9
		c1.7-1.2,3.4-2.3,5.2-3.1c4.6-2.1,9-2.3,12.7-0.5c7.5,3.6,9.3,13.8,6.2,21.1c-2.7,6.4-8.1,10.5-12.1,13.5l-17.8,13.4
		c-1.2,0.9-3,2.2-3.3,3.4c-0.5,1.6,1.1,4.4,4.5,7.6c11.5,10.9,23.9,21,36.7,29.8L2507.4-85.1z M2494.1-173.2c-0.6,0-1.6,0.2-2.8,0.7
		c-6.1,2.8-11.2,9.9-13.6,19.1c-0.3,1.1-0.6,2.4-1,3.9l10.3-7.7c4-3,7.1-5.6,8.6-9c1.2-2.8,0.4-6.3-0.8-6.9
		C2494.6-173.1,2494.4-173.2,2494.1-173.2z M2513.8-111.6l-10.7-2.5c6.3-26.6,13.9-53.2,22.6-78.9l10.4,3.5
		c-3,8.8-5.8,17.6-8.5,26.6c8.4-9.8,16.5-20.1,24-30.8l9,6.3c-9.8,14-20.5,27.4-31.9,39.8l-0.2,0.2c-1.9,2.1-3.8,4.2-4.8,6.4
		c-0.8,1.8-0.9,3.8-0.3,4.9c0.4,0.7,1.6,1.5,2.6,2.1c8.8,5.7,18.8,9.4,28.9,11l-1.6,10.9c-11.6-1.7-23.1-6.1-33.2-12.6
		c-0.9-0.6-1.8-1.2-2.7-1.9C2516.2-121.6,2515-116.6,2513.8-111.6z"/>
</g>
<g>
	<path d="M2417.9-190.6c-0.9,0-1.8-0.2-2.7-0.7c-1.7-0.9-2.8-2.7-2.8-4.7c-0.2-8.8,1-26.9,2.3-44.5c0.9-13,1.8-25.2,1.8-31.6l11,0.2
		c-0.1,6.7-1,19.1-1.9,32.2c-0.6,9-1.3,18.6-1.7,26.9c4.4-8.3,8.8-19.3,12.2-27.7c3.9-9.6,7.3-17.9,10.3-22.8c1.2-2,3.5-3,5.8-2.5
		c2.3,0.5,4,2.3,4.3,4.5c0.8,4.9,0.1,12.7-0.7,21.8c-0.4,4.6-0.9,10.2-1,15.3c12.7-24.4,29-65.9,29.2-66.4l10.2,4
		c-1,2.6-25.4,64.8-38.7,82.5c-1.1,1.5-2.9,2.3-4.8,2.2c-1.9-0.1-3.5-1.2-4.4-2.8c-2.9-5.3-3-14.1-2.2-26.5
		c-8.4,20.3-15.2,34.9-23.6,39.8C2419.8-190.9,2418.9-190.6,2417.9-190.6z"/>
</g>
<g>
	<rect x="2372.5" y="-258.5" transform="matrix(0.934 -0.3572 0.3572 0.934 248.2052 837.7551)" width="38.7" height="11"/>
</g>
<g>
	<rect x="2349.7" y="-226.7" transform="matrix(0.951 -0.3091 0.3091 0.951 184.6418 723.0806)" width="49.2" height="11"/>
</g>
<g>
	<path d="M2368.2-183.9c-1.1,0-2.3-0.1-3.3-0.2c-1.9-0.2-5.4-0.6-8.3-3c-4.6-3.9-5.5-10.4-2.8-19.5c1.5-5.2,5-15.2,8.8-25.8
		c3.5-10,7.1-20.4,8.6-25.3l10.5,3.1c-1.5,5.2-5,15.2-8.8,25.8c-3.5,10-7.1,20.4-8.6,25.3c-1.6,5.5-1,7.7-0.6,8
		c0.2,0.2,1,0.4,2.4,0.5c11.3,1.2,32-7.8,39-11.4l5,9.8C2407.4-195.3,2384.7-183.9,2368.2-183.9z"/>
</g>
<g>
	<path d="M2283.3-143.7c-0.4,0-0.8,0-1.2-0.1c-2.9-0.6-4.8-3.4-4.3-6.4c0.8-4.5,19.9-110.1,26.7-129.2c0.8-2.2,3-3.7,5.3-3.7
		c0.2,0,0.5,0,0.7,0.1l0.7-2.9l10.7,2.6l-4,16.1c1.6,6.7,3.6,15.3,5.7,24.6c2.6,11.3,5.9,25.7,8.7,37.2c6-26.3,16.2-73,23.6-107.1
		l10.8,2.3c-0.1,0.3-7,32.4-14,64c-4.1,18.6-7.4,33.4-9.8,44c-1.4,6.3-2.6,11.2-3.4,14.6c-0.4,1.8-0.8,3.2-1.1,4.2
		c-0.4,1.4-1.5,5.7-6.1,5.5c-4.3-0.2-5.3-3.9-6.8-9.4c-0.9-3.2-2-7.7-3.5-13.8c-2.7-11.2-6.1-26-9.1-39.1c-0.3-1.2-0.5-2.3-0.8-3.5
		l-23.5,95.6C2288-145.4,2285.7-143.7,2283.3-143.7z"/>
</g>
<g>
	<path d="M2291.7,33c-4.1,0-7.9-1.2-11.4-3.5c-8.6-5.8-13-15.8-12.8-29c0.4-29.2,24.5-72.9,48.7-88.2c3.2-2.1,13.1-8.3,19.8-2.6
		c5,4.2,5.4,12.8,1.5,27c-2.5,9-5.9,17-6,17.3l-10.1-4.3c6-14.2,8.8-27.8,7.6-31.4c-0.8,0.1-2.9,0.7-6.9,3.2
		c-21.2,13.5-43.2,53.4-43.6,79.1c-0.1,9.4,2.5,16.1,8,19.7c2.5,1.7,5.2,2.1,8.4,1.2c19.3-5.4,44.1-51.2,52.1-68.5l10,4.6
		c-3.1,6.8-31.5,66.7-59.1,74.4C2295.7,32.7,2293.7,33,2291.7,33z"/>
</g>
<g>
	<path d="M2273.4-407.5c-2.2,0-4.2-0.7-5.9-2c-14.3-10.6,10.3-57.1,10.5-57.6c2.2-4,9.1-16.1,19.5-15.1c10.4,1,15.3,14.4,16.2,17.1
		l-10.4,3.4l5.2-1.7l-5.2,1.7c-1.4-4.3-4.7-9.4-6.8-9.6c-1.2-0.1-4.4,1.8-8.8,9.5c-2.8,5-7.3,14.9-10.4,24.8
		c-3.4,10.9-3.5,16.3-3.1,18.2c2.1-0.5,9.4-3.7,27.6-22.5l7.9,7.6C2292.4-415.7,2281.2-407.5,2273.4-407.5z"/>
</g>
<g>
	<rect x="2306.4" y="-476.7" transform="matrix(0.9825 -0.1863 0.1863 0.9825 128.5505 425.9839)" width="50" height="11"/>
</g>
<g>
	<rect x="2287.5" y="-450.2" transform="matrix(0.2679 -0.9635 0.9635 0.2679 2130.6357 1914.4708)" width="74.9" height="11"/>
</g>
<g>
	<path d="M2387.8-60.3l-10.5-3.3l22.8-73.5l-18,33.4c-1.2,2.3-3.8,3.4-6.3,2.7c-2.5-0.7-4.1-3-4-5.6l2.9-63.4l11,0.5l-1.8,39.4
		l33.4-61.9c1.3-2.5,4.4-3.6,7-2.5c2.6,1.1,4,4,3.1,6.7L2387.8-60.3z"/>
</g>
<g>
	<path d="M2404.6,39.4l-10-4.7l23.6-50.6c-2-0.7-3.4-2.4-3.7-4.5c-2.2-16.2-1-32.5,0.2-48.2l11,0.8c-0.8,10.3-1.5,20.8-1.3,31.2
		c5.4-7.9,10.4-16.1,15-24.7l14.5-31c1.3-2.7,4.4-3.9,7.2-2.7c2.7,1.2,4,4.3,2.9,7.1c-4.4,10.9-9.3,21.5-14.8,31.6L2404.6,39.4z"/>
</g>
<g>
	<path d="M2380.7,15.6l-10.5-3.2c5.4-17.8,19.3-75.6,19.4-76.2l10.7,2.6C2399.8-58.8,2386.2-2.5,2380.7,15.6z"/>
</g>
<g>
	<rect x="2365.7" y="-58" transform="matrix(0.9541 -0.2994 0.2994 0.9541 125.4439 713.8316)" width="53.5" height="11"/>
</g>
<g>
	<path d="M2345.7,15.3l-10.6-2.9c6.5-23.4,13.3-47,20.4-70.1l10.5,3.2C2359-31.5,2352.1-8,2345.7,15.3z"/>
</g>
<g>
	<path d="M2348.4-406.4c-2,0-3.8-0.4-5.4-1.3c-8.4-4.6-8.6-17.8-0.7-40.5c9.2-26.5,17-37.8,25.9-37.8c0,0,0,0,0,0
		c5.5,0,9.1,4.4,10.7,8.4c3,0,5.5,1.2,7.2,3c7.6,7.6,5.5,28.9-9.8,48.3C2366.2-413.4,2356.2-406.4,2348.4-406.4z M2348.3-417.4
		c1.7,0.3,9.3-2.8,19.4-15.7c12.2-15.5,12.9-30,10.9-33.3c-0.3,0.1-0.8,0.4-1.4,0.9l-6.7-8.6l-1.8,0.7c-0.2-0.4-0.5-1-0.8-1.4
		c-1.6,1-6.9,6.2-15.2,30.2C2345.2-423.2,2347.9-418,2348.3-417.4z M2370.5-474l-1.8,0.6L2370.5-474z"/>
</g>
<g>
	<path d="M2222-395.2c-2.8,0-4.9-0.7-6.6-1.6c-11.6-6.1-11.6-26.8,0.1-61.6c18.2-54.2,31.3-60.6,39.6-60.6c0,0,0.1,0,0.1,0
		c11.6,0.1,16.5,14.5,17.1,16.2l-1.3,0.4c0.6,0.4,1.2,0.9,1.8,1.5c6.2,5.9,9.1,17.5,7.8,31c-1.5,14.7-7.8,30.2-17.8,43.7
		c-8,10.7-16.3,19.2-24.1,24.6C2231.7-396.8,2226.2-395.2,2222-395.2z M2255.1-507.9c-1.2,0-11.8,1.5-29.2,53.1
		c-11.6,34.4-8.6,46.7-5.4,48.3c4.2,2.2,18.1-5.7,33.4-26.3c20-26.9,18-53.8,11.3-60.1c-0.8-0.7-2.6-2.5-6.9,1.1l-7-8.4
		c2.8-2.3,5.5-3.7,8.1-4.3C2258-506.4,2256.5-507.9,2255.1-507.9C2255.1-507.9,2255.1-507.9,2255.1-507.9z"/>
</g>
<g>
	<g>
		<rect x="2366.7" y="-461.8" transform="matrix(0.2487 -0.9686 0.9686 0.2487 2250.9072 1989.2001)" width="81.9" height="11"/>
	</g>
	<g>
		<path d="M2405.7-417.5l-6.1-9.2c19-12.7,22.3-18.4,22.9-20c-1.8-1-7.1-1.6-11.6-1.3c-2.6,0.2-4.9-1.4-5.7-3.9
			c-0.8-2.5,0.3-5.1,2.6-6.4c18.1-10.2,17.7-15.5,17.6-16.1c-0.8-4.3-13.6-9.1-24.6-10.6l1.5-10.9c5.2,0.7,31.2,5.1,33.9,19.5
			c1.4,7.4-3.6,13.9-10.1,19.2c3.2,1.3,5.9,3.4,7.1,6.7C2436-442.1,2427.8-432.2,2405.7-417.5z"/>
	</g>
</g>
<g>
	<g>
		<path d="M2454.9-428.7c-5.2,0-8.5-2.4-10.4-4.6c-5.2-6.2-5.7-18-1.6-36.2c2.8-12.4,6.8-23.2,7-23.6l10.3,3.8
			c-9.2,24.8-11,44.7-7.4,48.9c0.3,0.3,0.9,1.1,3.7,0.6c5.4-1,19.1-6,24-7.9l3.9,10.3c-0.7,0.3-18.4,6.9-25.8,8.4
			C2457.3-428.8,2456-428.7,2454.9-428.7z"/>
	</g>
	<g>
		<rect x="2444.1" y="-466.4" transform="matrix(0.9475 -0.3198 0.3198 0.9475 276.5125 762.143)" width="29.6" height="11"/>
	</g>
	<g>
		<rect x="2442.3" y="-490.7" transform="matrix(0.933 -0.3599 0.3599 0.933 339.572 853.2783)" width="37.6" height="11"/>
	</g>
</g>
<g>
	<g>
		<rect x="2464.5" y="-479.9" transform="matrix(0.1614 -0.9869 0.9869 0.1614 2563.1003 2067.5242)" width="67.2" height="11"/>
	</g>
	<g>
		<path d="M2521.6-434.3l-27.4-32.5c-1.1-1.3-1.5-3-1.2-4.7c0.4-1.7,1.5-3.1,3-3.8c14.3-6.9,15.2-11.6,15.1-12.9
			c-0.3-4.4-9.7-9.8-16.4-12.1l3.5-10.4c3.8,1.3,23,8.4,23.8,21.8c0.5,7.3-4.5,14-15.1,20.2l23,27.3L2521.6-434.3z"/>
	</g>
</g>
<g>
	<path d="M2330.9-301.9l-10.8-2.1l12.4-63.2c-4.1,4.5-8.6,8.3-12.6,9.8l-3.8-10.3c3.2-1.2,12.1-9.7,21.7-24.7
		c1.4-2.2,4.2-3.1,6.7-2.1c2.5,1,3.9,3.6,3.3,6.2L2330.9-301.9z"/>
</g>
<g>
	<path d="M2361.4-354.1l-8.7-6.7c5.9-7.6,8.4-11.9,9.4-14.1c-0.1,0-0.1,0-0.2,0c-2.8-0.1-6.7-0.1-9.1-3.1c-1-1.2-2.1-3.4-1.5-6.5
		c2.2-11.4,13.4-17.7,13.9-18l5.3,9.6l-2.7-4.8l2.7,4.8c-0.1,0-4.7,2.7-7.2,7.1c3.2,0.1,7.6,0.7,9.7,5
		C2375.7-375.6,2372.6-368.6,2361.4-354.1z"/>
</g>
<g>
	<rect x="2371.7" y="-398.4" transform="matrix(0.9745 -0.2243 0.2243 0.9745 148.8867 525.152)" width="29.3" height="11"/>
</g>
<g>
	<rect x="2363.3" y="-381.7" transform="matrix(0.2034 -0.9791 0.9791 0.2034 2265.813 2032.5892)" width="37.4" height="11"/>
</g>
<g>
	<path d="M2403.2-360.6l-4.1-10.2c2.9-1.1,3.1-8.3,2.6-11.7l10.9-1.7c0.1,0.4,0.7,4.5,0.1,9.1
		C2411.6-365.8,2406.9-362.1,2403.2-360.6z"/>
</g>
<g>
	<path d="M2457.7-299.9c-1.7,0-3.4-0.4-4.8-1.3c-9.4-5.5-3-22.3-1-27.8c6.3-16.8,12.9-24.9,20.7-25.3c7.8-0.4,11.9,7,12.3,7.8
		l-0.5,0.3c0.1,0.1,0.2,0.2,0.3,0.3c6.1,6.5,3,21.3-6.9,33C2470.7-304.5,2463.5-299.9,2457.7-299.9z M2473.3-343.4
		C2473.3-343.4,2473.3-343.4,2473.3-343.4c-0.1,0-4.5,0.8-11,18.2c-3,8.1-3.4,12.2-3.3,13.9c2-0.8,5.9-3.4,10.5-8.9
		c7.8-9.3,7.8-17.2,7.1-18.5c0.2,0.4,0.8,0.7,1.3,0.8l-3.6-4.9C2473.9-343.1,2473.5-343.4,2473.3-343.4z"/>
</g>
<g>
	<path d="M2409.8-292.2c-1.6,0-3.3-0.7-4.3-2.1c-1.7-2.1-1.5-5.2,0.3-7.1c16.5-17.7,42.7-49.6,46.8-64.2c-5.5,3.8-15.1,13-23.5,22.7
		l-8.3-7.2c0.3-0.3,6.6-7.6,13.9-14.6c12.3-11.8,19.2-15.5,24.6-13.1c2.6,1.2,5.5,4,4.7,11.2c-1.4,12.2-16.3,32.8-29.5,49.1
		L2455-329l5.3,9.6l-47.9,26.5C2411.6-292.4,2410.7-292.2,2409.8-292.2z"/>
</g>
<g>
	<path d="M2500.6-316.6l-10.9-1.6l4.8-32.1c-0.5,0.5-1,0.9-1.4,1.2l-7.2-8.3c5.4-4.7,10.9-10.3,11.6-12c1.1-2.5,3.9-3.8,6.6-3
		c2.6,0.8,4.3,3.4,3.9,6.1L2500.6-316.6z"/>
</g>
<g>
	<path d="M2517.7-309.8c-0.8,0-1.5-0.1-2.2-0.3c-7.3-1.8-9.5-9.9-6.6-24.2c4.5-22,11.6-36.1,21-41.9c5.9-3.7,10.7-2.6,11.6-2.4
		l-2.9,10.6c0,0,0.1,0,0.3,0.1c-2.6-0.3-9.6,3.4-15.5,21.3c4.7-3.3,11-5.6,18.3-3.3c3.6,1.2,7.2,5,5.2,12
		C2544.1-328.1,2529-309.8,2517.7-309.8z M2519.9-333.4c-0.1,0.4-0.2,0.9-0.3,1.4c-1.4,6.5-1.2,9.7-0.9,11.1
		c1.8-0.7,5.6-3.1,10.2-8.3c3.9-4.4,6.1-8.2,7-10.5c0,0,0,0,0,0c-6.7,0-12.4,8.5-12.5,8.6L2519.9-333.4z"/>
</g>
<g>
	<path d="M2433.5-114.8c-3.3,0-6.4-1-9-3.1c-3.4-2.7-5.6-7.1-6.2-12.3c-0.4-4,0.1-7.9,0.8-11.5c1.9-10.1,4.8-19.9,8.7-29.2l5,2.1
		c4.3-8.1,9.5-12.6,15.3-13.1c6.2-0.6,11.2,3.4,13.7,7c3.6,5.4,3.5,12,3,17.1c-1.7,16.9-8.6,31-18.8,38.5
		C2441.9-116.3,2437.6-114.8,2433.5-114.8z M2436-161.6c-2.6,7.1-4.7,14.5-6.1,22c-0.5,2.6-1,5.6-0.7,8.3c0.2,2.2,1,4,2.1,4.9
		c1.9,1.5,5.5,0.2,8.1-1.7c7.7-5.7,13-16.9,14.4-30.8c0.3-3,0.5-7.4-1.1-9.8c-0.7-1-2.2-2.4-3.5-2.2c-0.7,0.1-4.2,0.9-8.6,11.3
		L2436-161.6z"/>
</g>
<g>
	<path d="M168.2-733.6c-3.6-3.2-4.2-5.1-4-5.7c0.3-0.8,2-2,2.9-2.6l16.9-11.7c3.8-2.6,9-6.3,11.6-12c1.8-3.9,1.9-8.6,0.4-12.5
		c-1.2-3.3-3.6-5.8-6.5-7.1c-3.5-1.5-7.6-1.4-12,0.5c-1.7,0.7-3.3,1.6-4.9,2.7c1.3-5,2.1-8.2,2.1-8.3l-10.7-2.7
		c-0.1,0.2-2.2,8.5-5.1,19.8c1.2,3.9,1,7.9,0.7,10.9c-1.2,10.8-4.9,20.2-10.5,27.2c-2.1,8.1-4,15.2-5.3,19.7c0,0,0,0,0,0.1
		c-0.8,2.9,0.9,6,3.8,6.8c2.9,0.8,6-0.9,6.8-3.8c0,0,0,0,0,0c0.8-2.9,2.6-8.4,4.6-14.6c0.6,0.6,1.2,1.2,1.9,1.8
		c11.6,10.2,47.2,39.5,59.7,47.5l5.9-9.3C214.6-694.7,179.3-723.8,168.2-733.6z M169.1-758.3c2.2-7.8,7-13.9,12.6-16.3
		c1.1-0.5,2-0.7,2.6-0.7c0.3,0,0.5,0,0.7,0.1c0.4,0.2,0.6,0.7,0.7,0.9c0.4,1.2,0.4,2.8-0.2,4c-1.3,2.8-4.2,5-7.9,7.6l-9.2,6.4
		C168.7-757,168.9-757.7,169.1-758.3z"/>
	<path d="M123.3-817.2c0.7,0.2,1.4,0.6,1.9,1.1c2.9-6.1,5.8-13.5,8.9-21.9c-0.6,11.7-0.4,20,2.1,25.1c0.9,1.8,2.6,2.9,4.6,3
		c2,0.1,3.8-0.8,4.9-2.4c12.4-18.5,41.1-106.9,42.4-110.7l-10.5-3.4c-7.7,23.8-22.1,65.9-32.6,90.7c0.2-4.6,0.6-9.2,0.9-13.2
		c0.7-9.4,1.3-17.5,0.6-22.5c-0.3-2.3-2.1-4.2-4.4-4.6c-2.3-0.4-4.7,0.7-5.8,2.7c-2.8,5.1-5.9,13.7-9.6,23.7
		c-3,8.1-6.7,18.5-10.5,26.9c0.4-8.2,1-17.6,1.6-26.4c0.9-13.6,1.7-26.5,1.7-33.4l-11-0.1c-0.1,6.6-0.9,19.4-1.7,32.9
		c-1.1,18.2-2.3,37-2.1,46.1c0,2,1.2,3.8,2.9,4.7c0.8,0.4,1.6,0.6,2.5,0.6l6.4-15.8C117.6-816.7,120.5-818.1,123.3-817.2z"/>
	<path d="M72.7-851.2l32.1-13.7l-4.3-10.1l-24.1,10.3l0.3,0.1C75.9-861.6,74.4-856.8,72.7-851.2z"/>
	<path d="M101.2-834.6l-3.2-10.5l-30,9.3c-1.4,4.4-2.8,8.8-4,12.7L101.2-834.6z"/>
	<path d="M48.2-829.8l3.1,10.2c1-3.5,2.3-7.7,3.8-12.3L48.2-829.8z"/>
	<path d="M51.3-819.6c-0.6,2-1.1,3.7-1.5,5.1c-0.9,3.4-3.7,13.8,2.6,19.7c2.8,2.7,6.3,3.1,8.1,3.3c1,0.1,2.1,0.2,3.2,0.2
		c15.7,0,36.9-11.9,39.5-13.3l-5.5-9.6c-6.5,3.7-25.5,13-35.9,11.8c-1.1-0.1-1.7-0.3-1.9-0.4c0,0-1.4-1.6,0.5-8.8
		c0.7-2.6,1.9-6.7,3.4-11.5l-12.5,3.8L51.3-819.6z"/>
	<path d="M72.7-851.2l-1.6,0.7l-4.3-10.1l9.6-4.1l-10.3-2.8c-1.4,5.1-4.7,15.9-8,26.3c-1,3.2-2,6.3-2.9,9.3l12.8-3.9
		c0.2-0.7,0.4-1.4,0.7-2.1C70-842.6,71.4-847.1,72.7-851.2z"/>
	<path d="M-9.9-754.4l-5.5-0.7l5.4,0.9C-9.8-755,1.3-823.9,9.1-863c0.9,4.3,1.8,8.8,2.8,13.5c2.8,13.6,6,29,8.5,40.6
		c1.4,6.3,2.4,11,3.2,14.4c1.4,5.9,2.3,9.5,6.7,9.7c4.7,0.3,5.8-4.2,6.1-5.7c0.2-1,0.6-2.5,1-4.4c0.8-3.5,1.8-8.6,3.2-15.1
		c2.3-11,5.3-26.4,9.1-45.8c6.5-32.9,13-66.2,13-66.5l-10.8-2.1c-6.7,34.7-16,81.8-21.6,109.5c-2.5-11.6-5.4-25.7-7.7-36.8
		c-3.7-18.1-7-33.8-8.1-38c-0.6-2.4-2.7-4-5.2-4.1c-2.4-0.1-4.6,1.5-5.4,3.8c-0.7,2.1-1.5,5.3-2.4,9.3l3.6,0.4L-9.9-754.4z"/>
	<path d="M-15.4-755l-5.4-0.9c0.7-4.2,14.9-92,22.4-124.9l-7.3-0.9l-15.1,126L-15.4-755z"/>
	<path d="M35-657.9c-0.1,0.1-7.5,14.5-17.3,28.9c-16.9,25-25.9,28.9-28.9,29.4c-1.5,0.2-2.5-0.1-3.6-1.2c-3.6-3.5-5.5-10.4-5.3-20
		c0.4-26.6,15.6-63.1,28.3-75.8c-0.5,9-5.2,29.4-11.8,49.9l10.5,3.4c0.2-0.6,4.5-14,8-28.3c6.6-26.9,4.9-34.2,0-37.4
		c-3.7-2.4-8.1-1.3-13,3.2c-16.5,15-32.5,56.3-33,84.8c-0.2,12.9,2.7,22.3,8.7,28.1c3,2.9,6.5,4.3,10.4,4.3c0.9,0,1.7-0.1,2.6-0.2
		c10.1-1.6,22-12.8,36.4-34.2c0.8-1.2,1.6-2.4,2.4-3.6c2.5-11.2,5.1-22.2,7.4-30.5L35-657.9z"/>
	<path d="M88.7-665.6l38.2-145c0.5-2-0.2-4.1-1.6-5.5c-3.9,8.2-7.8,14.1-12.1,16.9c-0.9,0.6-2,0.9-3,0.9c0,0-0.1,0-0.1,0l-23.4,57.7
		l0.9-28.7l-11-0.3l-1.9,59.4c-0.1,2.7,1.8,5,4.4,5.6c2.6,0.6,5.2-0.8,6.2-3.3l8.9-22l-16.7,63.2l9.4,2.5c0-0.5,0.1-1,0.1-1.5
		L88.7-665.6z"/>
	<path d="M134.4-709.3c-2.7-1.3-5.9-0.2-7.2,2.5c-3.9,7.7-7.9,18.6-11.8,30.9c-5.7,15.5-12.2,32.7-18.7,45.5
		c-0.1-10.9,0.6-23.7,1.4-34.4l-9.4-0.7l-0.4,1.7l-1.2-0.3c-0.2,2.9-0.5,7.3-0.8,12.3l2.5-0.7l3.1,10.6l-6,1.7
		c-0.3,10-0.2,20.7,1,28.3c0.3,2.1,1.9,3.9,4,4.5c2.1,0.6,4.3-0.1,5.7-1.8c0.6-0.8,1.3-1.6,1.9-2.5c-6.9,29.6-11.7,54.3-12.1,56.4
		l10.8,2.1c0.2-0.9,14-72.1,28.8-119.1c0.6-1.7,1.2-3.3,1.8-4.9c3.5-9.6,6.9-18.6,9.6-24.9C138.3-704.9,137.1-708.1,134.4-709.3z"/>
	<path d="M63.1-650.4c0,0.1-0.6,2.2-1.4,5.6l11.1-3.2L63.1-650.4z"/>
	<path d="M48.9-598.1l10.5,3.4c3.4-10.4,8.3-29.1,11.5-41.4l-12.3,3.6C55.5-620.8,51.6-606.4,48.9-598.1z"/>
	<path d="M72.8-648l1,0.2c-0.1,0.5-1.3,5.2-3,11.8l14.9-4.3c0.1-4.1,0.3-8,0.5-11.6L72.8-648z"/>
	<path d="M43.6-639.5c-0.5,2.1-1,4.3-1.5,6.6l1.4,4.9l15.1-4.4c1.3-4.8,2.4-9.2,3.2-12.4L43.6-639.5z"/>
	<path d="M43.6-639.5c2.2-9.2,4.3-17.3,5.9-22.3l-10.4-3.4c-0.7,2.2-1.6,5-2.4,8.2l8.1,4.2c-0.3,0.6-6.6,12.7-15.5,26.3
		c-5.3,23.7-10.2,48.4-10.6,50.1l10.8,2.1c0.1-0.5,6.4-32.4,12.5-58.7l-1.6-5.7L43.6-639.5z"/>
	<path d="M156.6-778c-2.4-3.3-7.3-6.9-13.2-6.3c-5.6,0.6-10.6,4.6-14.8,12l-4.6-2.1c-3.7,8.2-6.5,16.9-8.3,25.8
		c-0.7,3.3-1.2,6.8-0.8,10.4c0.6,4.7,2.8,8.8,6.1,11.3c2.4,1.8,5.4,2.7,8.5,2.7c3.9,0,8-1.3,11.9-4c2.8-1.9,5.3-4.3,7.6-7.1
		c3.2-12.2,6.9-26.7,9.9-38.1C158.4-775,157.7-776.6,156.6-778z M148.6-763.6c-1.3,11.9-6.2,21.5-13.4,26.4c-2.5,1.7-6,2.8-7.7,1.5
		c-0.9-0.6-1.5-2.1-1.7-3.7c-0.2-2,0.1-4.2,0.6-7c1.3-6.6,3.3-13.1,5.8-19.3l4.3,2c3.1-6.8,6.1-9.4,7.9-9.6c1.3-0.1,2.8,1.2,3.2,1.8
		C149.1-769.6,148.9-766.1,148.6-763.6z"/>
	<g>
		<path d="M201.4-766.2c-1.8,3.7-2.1,7.7-1,11.1l2.2-13.1C202.1-767.5,201.7-766.8,201.4-766.2z"/>
		<path d="M215.8-767c0.1-0.1,0.3-0.3,0.4-0.5L267-832l-8.6-6.8l-41.8,53.1l-3.6,21.9C213.8-764.9,214.9-766.1,215.8-767z"/>
		<path d="M211.9-757.3l-1.9,11.6c9,5,19.1,8.3,29.2,9.7l1.5-10.9c-9.6-1.3-19-4.6-27.4-9.6C212.9-756.6,212.4-756.9,211.9-757.3z"
			/>
		<path d="M201.8-752.1c-0.6-0.9-1.1-1.9-1.4-3l-4.7,28.6l10.9,1.8l3.5-20.9c-0.8-0.4-1.5-0.8-2.3-1.3
			C205.5-748.2,203.4-749.7,201.8-752.1z"/>
		<path d="M216.6-785.7l3.6-21.7l-10.9-1.8l-6.8,41c1.8-2.6,4.3-5.3,5.2-6.3L216.6-785.7z"/>
		<path d="M211-758.1c0.2,0.3,0.5,0.5,0.9,0.8l1.1-6.5c-0.8,1-1.4,1.8-1.7,2.4C210.6-760.1,210.6-758.7,211-758.1z"/>
	</g>
</g>
<g>
	<path d="M-680.4-314l10.8,2l1.7-9c-3.8,2.2-7.9,4.3-12.3,6.2L-680.4-314z"/>
	<path d="M-650.8-414.5l-10.8-2l-16.2,88.3c4.6-2.4,8.8-5,12.6-7.7L-650.8-414.5z"/>
	<path d="M-690.8-322.3l4,10.2c2.3-0.9,4.4-1.8,6.6-2.7l2.5-13.4C-681.8-326.1-686.2-324.1-690.8-322.3z"/>
	<path d="M-631.2-366.3c10.4-46.9-36.4-96.9-38.4-99l-8,7.6c0.4,0.5,44.8,47.9,35.7,89c-2.8,12.7-10.6,23.7-23.2,32.8l-2.7,14.9
		C-647.7-332.7-635.3-347.9-631.2-366.3z"/>
	<rect x="-665.3" y="-388.6" transform="matrix(0.1764 -0.9843 0.9843 0.1764 -131.1957 -922.9716)" width="96.3" height="11"/>
	<path d="M-599.4-324.3l11.3-59.4l17.1,42c0.9,2.2,3.1,3.6,5.5,3.4c2.4-0.2,4.4-1.9,4.9-4.2l29.7-126.8l-10.7-2.5l-25.8,110
		l-17.6-43.3c-0.5-1.3-1.5-2.3-2.7-2.9l-12.4,83.3C-599.8-324.5-599.6-324.4-599.4-324.3z"/>
	<path d="M-613.1-311.4l17.7-92.7c0.5-2.4,2.4-4.2,4.9-4.4c1-0.1,2,0.1,2.9,0.5l1.1-7.2l-10.9-1.6l-15.7,105.7l3.5,0.5l0-0.1
		L-613.1-311.4z"/>
	<path d="M-469.7-462.3l-28.7,84.5l-3.7-59.8c-0.2-2.6-2.2-4.8-4.8-5.1c-2.6-0.3-5.1,1.3-5.9,3.8l-4,12.5l1.3,0.2l-9.2,60.5
		l13.5-42.1l3.6,58.6c0.2,2.6,2.2,4.8,4.8,5.1c2.6,0.3,5.1-1.2,5.9-3.7l37.7-111L-469.7-462.3z"/>
	<polygon points="-535.5,-368.2 -549.2,-325.7 -538.8,-322.3 -536,-331 -541.1,-331.8 	"/>
	<polygon points="-526.4,-427.8 -535.5,-368.2 -516.8,-426.4 	"/>
	<polygon points="-530.2,-330.2 -524.8,-365.7 -536,-331 	"/>
	<path d="M-434.9-440.2l-10-4.7c-0.2,0.5-3.5,7.5-7.6,17.7l14.1-5C-436.3-437.1-434.9-440.1-434.9-440.2z"/>
	<path d="M-456.4-347.8c-1.8-1.5-6.6-8.1,0.6-35.7l-12.5,5.3c-0.9,4.5-1.6,8.6-2,12.3c-1.3,13.2,1,22,7.1,26.7
		c3,2.4,6.6,3.5,10.9,3.5c5.3,0,11.8-1.8,19.3-5.5l3.7-14.5C-448.4-344.2-454.7-346.5-456.4-347.8z"/>
	<path d="M-419.7-348.7c6.7-4.3,14-9.6,22.1-16l-6.8-8.6c-4.1,3.3-7.9,6.1-11.4,8.6l0.1,0L-419.7-348.7z"/>
	<path d="M-444.1-418.5l-11.6,4.2l-0.9-2.4c-1.9,5.1-3.9,10.7-5.8,16.3c-1,3-1.9,6-2.7,8.8l13.2-5.6
		C-449.3-404.7-446.6-412.1-444.1-418.5z"/>
	<path d="M-455.8-383.6l31.1-13.1l-4.3-10.1l-22.8,9.6c0,0.1-0.1,0.2-0.1,0.2C-453.4-392-454.7-387.6-455.8-383.6z"/>
	<path d="M-473.8-387.9l4.3,10.1l1.2-0.5c0.9-4.1,2-8.6,3.4-13.3L-473.8-387.9z"/>
	<path d="M-459.4-424.7l2.8,7.9c1.4-3.7,2.8-7.2,4.1-10.4L-459.4-424.7z"/>
	<path d="M-412-430l-3.7-10.4l-22.7,8.2c-1.6,3.7-3.6,8.4-5.7,13.7L-412-430z"/>
	<path d="M-371-388.3c25.3-16.6,38.4-34.5,38.9-53.4c0.8-26.9-24.5-44.7-25.6-45.4c-1.5-1-3.4-1.3-5.1-0.6c-1.7,0.6-3,2.1-3.4,3.9
		l-12.6,52.3l1.4-15.8l-11-1l-8,90c-0.3,2.9,1.7,5.4,4.6,5.9c2.8,0.5,5.6-1.3,6.2-4.1l5.9-24.7l42.2,60.5l9-6.3L-371-388.3z
		 M-357.6-472.5c6.3,6.2,14.8,17.1,14.4,30.6c-0.4,14.7-11.2,29.2-32.2,43.3L-357.6-472.5z"/>
	<polygon points="-613.9,-287.1 -620,-287.8 -634.6,-173.2 -629.2,-172.5 -634.6,-173.5 	"/>
	<path d="M-557.2-312.7c0.3-2.8-1.5-5.4-4.3-6c-2.8-0.6-5.5,1-6.4,3.7l-10.1,31.4l18.4-7L-557.2-312.7z"/>
	<path d="M-578.2-283.1l-11.5,35.8l-7.1-72.8c-0.2-1.7-1.1-3.2-2.5-4.1l-2.9,15l-5.4-1l-1.9-0.3l-4.3,23.6l4.8,0.6l-14.7,114.6
		l-5.5-0.7l5.4,1L-604-280l5.9,60c0.3,2.6,2.3,4.7,4.9,4.9c2.6,0.3,5-1.3,5.8-3.8l13.2-40.9l-5.7,50.9l10.9,1.2l7.9-70.8l-13.3,5.1
		L-578.2-283.1z"/>
	<path d="M-600-324.6c-0.6-0.3-1.4-0.5-2.1-0.5c-2.7-0.1-5.1,1.8-5.6,4.5l-1.8,10l1.9,0.4l5.4,0.8L-600-324.6z"/>
	<path d="M-530.9-289.8l-13,5c-1.2,4-2.4,8.3-3.5,12.5c-0.7,2.5-1.2,5-1.8,7.3l12.8-5.8C-534.7-277.5-532.8-284-530.9-289.8z"/>
	<path d="M-539.5-220.5c-1.2-0.9-6.5-6.5-0.1-36.8l-12.3,5.6c-3.7,21.8-1.7,34.8,6.1,40.2c2.4,1.7,5.2,2.6,8.4,2.6
		c9,0,21.2-6.9,37.4-21.2l-7.3-8.2C-531.6-216.9-538.4-219.7-539.5-220.5z"/>
	<path d="M-522.5-314.4l-10.3-3.9c-0.2,0.5-3.3,8.6-7,20.1l13.3-5.1C-524.2-310-522.6-314.3-522.5-314.4z"/>
	<path d="M-539.6-257.3l21.3-9.7l-4.6-10l-13.5,6.1c-0.1,0.4-0.2,0.9-0.3,1.3C-537.9-265-538.9-261-539.6-257.3z"/>
	<path d="M-558.4-260.8l4.6,10l2-0.9c0.7-4.1,1.6-8.6,2.7-13.3L-558.4-260.8z"/>
	<polygon points="-578.3,-283.5 -578.2,-283.1 -578,-283.6 	"/>
	<path d="M-559.7-290.6l-1.4,12.3l17.1-6.6c1.4-4.8,2.8-9.3,4.1-13.4L-559.7-290.6z"/>
	<path d="M-510.9-297.5l-3.9-10.3l-11.7,4.5c-1.3,3.8-2.8,8.4-4.4,13.5L-510.9-297.5z"/>
	<path d="M-426.3-367.4l-3,11.7c3.9-2.4,8.4-5.3,13.5-9L-426.3-367.4z"/>
	<path d="M-433-341.2l-19.8,78.2l-8.1-71.3c-0.3-2.7-2.5-4.7-5.2-4.9c-2.7-0.2-5.1,1.7-5.7,4.3l-4.6,20.2l-9.4,91.6l-5.5-0.6
		l5.4,1.2l17.7-78.3l7.8,68.9c0.3,2.6,2.4,4.7,5.1,4.9c2.6,0.2,5.1-1.6,5.7-4.1l29.8-117.6C-424.5-345.6-428.9-343.1-433-341.2z"/>
	<polygon points="-476.3,-314.7 -475.5,-321.8 -486.5,-322.9 -496.6,-224.2 -491.2,-223.6 -496.5,-224.8 	"/>
	<path d="M-378.8-337.2c-2.8-0.6-5.7,1.1-6.5,3.9c-0.2,0.7-17.4,61.5-31.7,94.5c1.2-19,5.5-53,10.6-84.1l-10.9-1.7
		c0,0.3-4.1,25.4-7.2,50.5c-1.8,14.8-3,26.7-3.5,35.4c-0.7,13.8-0.1,20.7,5.3,22.5c0.7,0.2,1.4,0.4,2.1,0.4c4.5,0,7.3-5.2,8.3-7
		c4.8-9,10.2-22.5,15.3-36.9l-2.4,15.3l10.9,1.7l14-88.1C-374.1-333.9-376-336.6-378.8-337.2z"/>
</g>
<polyline class="st1" points="-402.1,-154.5 -327.7,-205.2 -467.7,-50.5 -341.7,-126.1 -407,-53.9 -336.3,-86.2 -360.3,-48.4 "/>
<polyline class="st1" points="-643,-207.3 -699.7,-148 -584,-188.9 -703,-81 -568.3,-197.9 -697.7,-46.7 -493.7,-208.3 -631,-53.3 
	-409,-199.7 -555.7,-49.8 -402.1,-154.5 "/>
</svg>
