<svg id="Layer_1" data-name="Layer 1" xmlns="http://www.w3.org/2000/svg" viewBox="0 0 1108.26 1703.58"><defs><style>.cls-1{font-size:299.91px;font-family:Times New Roman;}.cls-2{letter-spacing:-6.86px;}.cls-3{letter-spacing:-29.16px;}.cls-4{letter-spacing:-44.6px;}.cls-5{white-space:pre;}</style></defs><title>savethedate</title><path d="M167.36,354.63l2-9.22-18.43-4-2,9.22c-12.34,57.3-37.88,143-56,154.12l-0.4.23c-1.3-3-3.85-12.48-2-38.19,1.34-18.36,4.25-35.37,4.28-35.54l-17.89-5.46c-0.23.51-19.57,43.43-35.17,69.85,2.54-19.41,8.78-50.6,16.89-83l2.29-9.14L42.65,399l-2.29,9.14c-0.07.26-6.66,26.68-11.91,53.34-3.12,15.82-5.17,28.69-6.1,38.26-1.19,12.18-1.61,24.43,7.19,28.55a11.3,11.3,0,0,0,4.84,1.13C41.57,529.37,47,522,49,519.25c6.57-9,14.6-23.38,22.06-37.82-0.29,28.32,5.75,36.46,11.34,40.25,3.38,2.29,10.51,5.22,20.38-.82,5.36-3.28,21.67-13.28,45.43-92.25C159.51,390.92,167.28,355,167.36,354.63Z"/><rect x="120.03" y="468.34" width="86.95" height="18.85" transform="translate(-337.68 539.38) rotate(-78.12)"/><path d="M274.91,467a30.94,30.94,0,0,1,10.32,3.71l2.19-1.2,8.26-4.54-9.08-16.52-6.17,3.39c-4.88,9.14-5.66,13.47-5.73,15.14Z"/><path d="M255.34,475a20.68,20.68,0,0,1-1.42-9.79c-13,7.06-29.12,15.82-41.62,22.45,1.8-17.81,14.8-64,37-122.38l3.35-8.81-17.62-6.71-3.35,8.81c-0.12.32-12.27,32.28-22.71,65.19-6.19,19.49-10.6,35.57-13.11,47.77-4.1,19.94-3.35,29.8,2.67,35.15a12.6,12.6,0,0,0,8.36,3.17,16.31,16.31,0,0,0,7.6-2c12.66-6.62,31.86-17,47.08-25.3A16.83,16.83,0,0,1,255.34,475Z"/><path d="M362.33,428.84c-8.11,8.16-16,16.29-23.46,24.19L338,454.6c-13.71,25.42-16.91,40.14-10.69,49.21,2.31,3.37,6.53,6.87,14.13,6.87a31.75,31.75,0,0,0,7.32-.93c11.46-2.72,22.17-12.49,31-28.25a141.2,141.2,0,0,0,15-42.87c2.61-14.93,3.31-34.29-8.12-41.76-3.65-2.38-11.45-5.27-22.67,2.18l-7.85,5.21,6.82,10.26-0.65.95,6.73,6.68ZM371,454.93c-7,20-17.43,34.31-26.58,36.48-0.45.11-.85,0.19-1.2,0.25,0.4-3.58,2.61-12.25,12.75-30.59,8.37-15.14,18.2-29.67,21-33.76l0.24-.34A113.93,113.93,0,0,1,371,454.93Zm5.5-41.41a13.76,13.76,0,0,1,.57,2.39l-2.19-1.5A14.86,14.86,0,0,1,376.5,413.52Z"/><path d="M278.44,451.84l0,0A262.69,262.69,0,0,1,294,427.17c-1.12,4.9-2.51,10.21-4,15.34l-2.7,9,18.06,5.41,2.71-9c0.12-.41,3.06-10.24,5.25-20.62,2.94-13.89,5-27.84-4.7-32.57-10.93-5.33-20.81,8.6-26.71,16.93-16.56,23.37-27,40.67-28,53.59,12.62-6.88,22.21-12.14,22.42-12.26Z"/><path d="M270,485.63c3,0.47,6.48,2.75,9.45,6Q275.87,496,273,499.9c-10.51,14.1-15.69,23.8-11,31.62,1.42,2.39,4.52,5.75,10.75,5.75a23.1,23.1,0,0,0,6.43-1c17.11-5,26.75-17,25.78-32.08a37.07,37.07,0,0,0-2.44-10.84c9.94-11.71,22.47-25.6,36.39-40.31,8.9-16.26,19.48-31.9,22.59-36.42l0.79-1.14-6.65-6.6L349,415.56c-0.23.23-23.52,23.7-45.66,48.28q-6.28,7-11.65,13.19a41.09,41.09,0,0,0-8.41-6.31c-3.73,2-11.86,6.5-21.62,11.82A20.87,20.87,0,0,0,270,485.63Z"/><polygon points="399.88 518.09 400.55 518.12 399.88 518 399.88 518.09"/><polygon points="404.38 518.79 404.46 518.28 400.55 518.12 404.38 518.79"/><path d="M421.71,524.86l0.38-9.42c0.86-21,2.38-41.22,4.09-56.13,0.79,2.47,1.58,5,2.36,7.46,10.25,32.57,14.29,43.91,24.06,45.4a11.4,11.4,0,0,0,11.18-5.1c7.28-10.47,25.21-77.72,30.53-98.08l2.38-9.12-18.24-4.77-2.38,9.12c-7.59,29-16.57,60.67-22.48,78.47-2.43-6.84-5-15.09-7.07-21.59-3.61-11.48-7.35-23.36-10.9-31.7-2.81-6.6-6.85-8.59-10-9l-18.19,103.9Z"/><path d="M402.88,524l0.38-9.33c0-.21.88-21.44,2.71-42.56,1.09-12.56,2.3-22.68,3.61-30.09,1.85-10.49,4.2-20,12.64-21.58a10.83,10.83,0,0,1,3.44-.07L434,372.65l-18.57-3.25L388.81,521.54Z"/><path d="M664.48,445.28l6.77-25.21c0.73,4.41,1.34,11.36,1.23,22.1l18.83-7.32c-0.51-25.28-5.43-37-16-39.35a13.6,13.6,0,0,0-10.53,2.09,22.25,22.25,0,0,0-5.95,6l-2.28-.83c-0.28.6-28.26,60.39-77.7,95.85-4.55,3.27-7.17,4.2-8.33,4.47-1.65-3.8-3-19.41,7.38-55.91,7.43-26.1,18.65-54.32,26.44-66.65,1.13,12.12.28,34.76-2.44,57.4l-1.12,9.36,18.72,2.25,1.12-9.36c0.09-.73,2.14-18,2.83-36.07,1.17-31.1-2-44-11.88-47.63C600.37,352.37,592,365,589.25,369.1c-9.08,13.66-21.67,44.94-29.93,74.37-16.64,59.3-5.32,70.23-1.6,73.82a16.4,16.4,0,0,0,11.77,4.8c7.07,0,14.45-3.93,20.31-8.14C608,500.88,623.42,485,635.85,469.69l-4.48-11.53Z"/><path d="M636.06,470.21c-5.1,21.59-8.56,40.18-8.59,40.4l18.37,4.16,12.59-46.9-20.22,7.86Z"/><path d="M669.06,489.46l-1.21,9.35,18.69,2.43,1.21-9.35c0.1-.78,2.27-17.67,3.19-36.67l-19.33,7.52C670.6,477.42,669.07,489.32,669.06,489.46Z"/><path d="M709.53,427.77l-18.22,7.09c0.09,4.41,0,9.23-.12,14.49-0.06,2-.15,3.94-0.24,5.88l15.76-6.13c0.85-5.92,1.8-12.24,2.78-18.5C709.51,429.66,709.52,428.71,709.53,427.77Z"/><path d="M744.44,434.42l-3.09-8c0.48,2.84,1,5.71,1.49,8.58Z"/><path d="M672.48,442.17l-8,3.11-6.06,22.59,13.2-5.13c0.21-3,.39-6.08.54-9.22C672.35,449.33,672.45,445.57,672.48,442.17Z"/><path d="M635.85,469.69l0.2,0.52,0.26-1.08Z"/><path d="M776.6,436.47c0.89-6.3,1.62-11.69,2.17-16.1,0.59-4.72,1-8.27,1.18-10.85,0.29-3.75.91-11.55-6.72-13.86a9.65,9.65,0,0,0-11.69,5.59c-2.27,5-9.83,27.57-16.25,47.17-0.82-4.3-1.64-8.82-2.45-13.37l-36.13,14.05,0,0.31c-2.06,14.3-3.63,26.56-4.54,35.45-1.48,14.49-2.29,22.48,5.23,25.79a9.72,9.72,0,0,0,3.9.81,10,10,0,0,0,8.55-4.9c2.66-4.16,5.62-13,7.46-46.65,0.08-1.42.15-2.82,0.22-4.21,1.11,5.69,2.15,10.67,3.08,14.77,2.81,12.31,4.59,18.81,11.4,20.38a9.64,9.64,0,0,0,7.55-1.36l-0.8,5-1.49,9.31,18.61,3,1.49-9.31c0-.23,3.68-23,7-45.52q1-6.72,1.83-12.51L775,437.31Z"/><path d="M741.35,426.46c-2.84-16.64-5.14-32-5.33-36.21a9.61,9.61,0,0,0-8.5-9.47c-1.37-.15-8.31-0.46-10.64,8.21-1.06,4-2.93,14.19-5,26.41l-2.26,0-0.1,9.43c0,1,0,2,0,3l28.08-10.92Z"/><path d="M831.89,453.49L828.47,449,821,454.76c-6.65,5.11-18.46,12.84-27.52,16.42,0.16-5.25,1.19-13.48,3.07-24L784,453.91,778.12,443c-6,33.11-3.05,40.38.65,44.66a11.75,11.75,0,0,0,9,4.16,12.39,12.39,0,0,0,1.55-.1c13.84-1.74,32.34-14.15,39.93-19.63,0.38-3.33.81-6.76,1.32-10.27C831,459,831.41,456.2,831.89,453.49Z"/><path d="M811,384.22l-21.35,7.31c-2.23,8.75-4.87,19.53-7.29,30.49-1,4.59-1.91,8.84-2.69,12.79l21.7-11.71C804,411.45,807.21,398.35,811,384.22Z"/><polygon points="797.42 362.7 795.49 369.61 807.49 365.51 797.42 362.7"/><path d="M776.6,436.47l-0.42,3,1.94,3.59q0.7-3.86,1.57-8.22Z"/><path d="M833.32,427.3l-9-16.59-23,12.39c-2,8.92-3.61,17-4.86,24Z"/><path d="M795.49,369.61l-14.82,5.07,6.1,17.84,2.9-1c2.95-11.58,5.18-19.6,5.21-19.74Z"/><path d="M813.05,376.84q-1,3.74-2,7.38l64-21.9-6.1-17.84-61.46,21,8.09,2.25Z"/><path d="M1076.57,330.83l-1.33,9.33c-3.8,26.75-12.49,86.85-17.76,119.84-9.47-22.11-22.24-58.25-25.53-75.95-2-10.55-8-12-11.45-11.85-6.82.2-9.92,5.78-12,13.06-5.81.79-12.56,4.45-20.73,9.67q-0.37-.72-0.79-1.39a16.76,16.76,0,0,0-15.56-8,39.44,39.44,0,0,0-19.22,6.18,9.77,9.77,0,0,0-4,.14c-6,1.45-9.35,6-27.71,37.62-6.63,11.42-14.15,24.36-17.29,28-6.95,8-22.16,20.93-33.42,21.46a9.66,9.66,0,0,1-7-2.13c-0.09-1.58.28-6.53,5.42-18.95,4.33-10.46,10.38-22.33,16.23-33.8,4.86-9.54,9.46-18.54,12.45-25.63,2.8-6.62,7.48-17.71-.48-23.93-7-5.44-15.34-.2-18.5,1.78-4.7,2.94-10.93,7.8-19.05,14.86a51.86,51.86,0,0,0-8.76,10.05L837.45,400l-4.77,49.18c-0.27,1.42-.54,2.88-0.79,4.35l8.05,10.5-7.48,5.74c-0.47.36-1.61,1.22-3.24,2.4a360.39,360.39,0,0,0-2.33,37.25l18.81,0.9,2.11-21.78a16.46,16.46,0,0,0,1.19,1.25,28.68,28.68,0,0,0,21.67,8c8.79-.41,18.44-4.36,28.68-11.66a108.84,108.84,0,0,0,10-8.18,20.15,20.15,0,0,0,2.23,6.18c2,3.55,7.1,9.49,18.48,9.49h0.16c16.59,0,32.79-12.6,45.63-35.65,7.25-13,12.91-28.58,14.38-42,4.25-2.83,9.27-6.17,13.42-8.57q-1.53,8.38-3.2,19.06c-3.6,22.93-6.49,46.13-6.52,46.36l18.68,2.55c0.06-.39,4.94-33.07,8.84-58.31,3.41,10.6,7.36,21.75,11,31.36,4.47,11.75,8.71,21.84,12.28,29.16,5.55,11.4,9.62,17.22,16.49,17.44,4.21,0.15,9.14-2.48,10.69-8.62,3.5-13.88,20.09-130.29,22-143.51l1.33-9.33ZM871.24,405.37l2.7-2.33c-2.09,4.23-4.31,8.58-6.29,12.46-6,11.74-11.21,22.15-15.22,31.28C857,426.57,863.45,412.14,871.24,405.37ZM960,447.56c-9.08,16.78-20.49,27-29.79,27h-0.06a10.69,10.69,0,0,1-2.26-.1c-0.31-1.11-1.09-6.38,5.81-21.84,2.93-6.57,6.54-13.32,10.1-19.69a18.48,18.48,0,0,0,9.89,1.8c4.15-.31,8.68-2,14-4.84A110.33,110.33,0,0,1,960,447.56Zm-4.75-32.44a17.42,17.42,0,0,1,2.33-3.47,20.79,20.79,0,0,1,13.76-7.18,8.7,8.7,0,0,1,.25,1.12C965.88,409.35,959.42,413.38,955.28,415.12Z"/><polygon points="447.76 660.45 465.9 665.58 482.24 607.88 458.64 622.03 447.76 660.45"/><polygon points="493.93 566.57 481.19 562.96 479.24 568.59 474.26 566.86 466.13 595.55 489.73 581.41 493.93 566.57"/><path d="M481.19,563l1.14-3.28c3.32-9.57,8-19.53,11.62-25.06,0.21,0.77.43,1.65,0.66,2.66,2.43,11,3.83,24.7,4.61,38.44l18.16-10.89A238.6,238.6,0,0,0,513,533.2c-1.12-5-4.52-20.35-16.81-21.06-11-.65-18.52,11.73-23.82,22.58a189.39,189.39,0,0,0-7.85,18.79l-3.09,8.91,12.83,4.45,1.54-5.42Z"/><path d="M499.59,636.25l-0.42,9.42L518,646.52l0.42-9.42c0.07-1.6,1.07-24.68.14-51L500,597.24C500.35,618.66,499.61,635.92,499.59,636.25Z"/><polygon points="439.36 611.6 449.05 627.77 458.64 622.03 466.13 595.55 439.36 611.6"/><path d="M546,547.66l-28.65,17.18c0.57,7.09.95,14.29,1.2,21.26l35.86-21.49,0.45-2.19Z"/><path d="M489.73,581.41l-7.5,26.47L500,597.24c-0.12-6.89-.36-14.2-0.77-21.52Z"/><path d="M614.84,524.39L590.2,616.5c-2-11.17-4.13-23.36-6-34.81l9-23.24-13.19-5.12c-0.29-2.41-.54-4.64-0.73-6.66-0.91-9.62-8.22-10.34-9.67-10.39-8-.25-10.24,7.61-11.22,11-0.8,2.78-1.73,6.61-2.83,11.71-0.24,1.09-.48,2.25-0.73,3.45l0.85,1.41-1.3.78c-1.54,7.55-3.33,17-5.35,28.34-4.34,24.29-8.3,48.91-8.34,49.16L558.83,647l12.09-31.13c4.19,23.48,8.06,43.4,8.38,45l18.36,0.63,35.39-132.29Z"/><path d="M639.33,663.93l3.77-20.77-16.22,18.51Z"/><path d="M656.68,568.4a96.67,96.67,0,0,0-16.77,1.71l-2.8.54-11.63,64c6.55-7.48,15-17.14,24.18-27.65Z"/><path d="M660.1,549.59l1.34-7.4-18.55-3.37-2.19,12.06a129.06,129.06,0,0,1,16.44-1.32C658.15,549.56,659.13,549.57,660.1,549.59Z"/><path d="M636.35,551.59l-9.26,1.78,3.56,18.51,6.46-1.24,3.59-19.76C638.14,551.25,636.51,551.56,636.35,551.59Z"/><path d="M673.84,571.7s1.72,5.64-13,22.49L649.67,607l-6.57,36.15c8.8-10.06,20.18-23.07,32-36.59,6-6.93,24.45-28,15.11-44.28-4.66-8.11-14.75-12.37-30.09-12.71l-3.42,18.8C665.7,568.28,672.63,569.6,673.84,571.7Z"/><path d="M626.23,662.43l0.66-.75-6.11-1.11,4.7-25.9L612.05,650l-6.21,7.09L620,669.51Z"/><polygon points="246.54 689.71 253.07 707.39 302.17 689.27 306.85 667.44 246.54 689.71"/><polygon points="394.52 655.18 387.99 637.49 327.78 659.72 323.11 681.54 394.52 655.18"/><polygon points="302.17 689.27 269.63 841.22 288.06 845.16 323.11 681.54 302.17 689.27"/><polygon points="331.25 643.51 312.82 639.56 306.85 667.44 327.78 659.72 331.25 643.51"/><path d="M393.16,782.91c-8,.61-10.9-0.32-11.75-0.71-0.12-1.12,0-5.3,5.42-16.3,2.22-4.52,4.63-9.27,7-13.85,15.3-30.15,24.53-48.35,15-57.78-7.52-7.45-18.93-1.52-22.68.43a30.9,30.9,0,0,0-7,4.82,17.28,17.28,0,0,0-3.62-3.65c-7.36-5.49-16.9-3.43-22.82,0l9.46,16.31a9.62,9.62,0,0,1,2.09-.75,20.46,20.46,0,0,1,.57,6.71c-6.07,10.23-13.19,25.06-21.14,46.68-10.34,28.11-17.12,54-17.41,55.07l17,7.6c0.64-1,10.36-15.7,20.45-38.66a17.86,17.86,0,0,0,2.82,5.07c5.59,7.08,15.17,9.07,29.92,7.7l6.2-19.82C399,782.32,395.92,782.7,393.16,782.91ZM383.27,724a52.48,52.48,0,0,1,7.69-9.73c-2.41,5.89-6,13.31-9.36,20.09C382.29,731,382.9,727.48,383.27,724Z"/><path d="M430.93,795.39L426.76,777l-3.12.7-6.45,20.64C421.48,797.48,426,796.49,430.93,795.39Z"/><path d="M393.12,812.12l18,5.63,6.07-19.41a204.72,204.72,0,0,1-20.77,3.25Z"/><path d="M416.45,738.15l23.94-14,5.26-16.82-18-5.63-25,80.1c5.77-.88,12.68-2.22,21-4.08L432,750.88l-6,3.54Z"/><path d="M461.32,686.37c-3.61-11-9.95-13.9-14.63-14.35-3.8-.37-13.65.57-22.95,17.2l16.46,9.2a36.8,36.8,0,0,1,3.53-5.08c1.56,5.5,2.83,15.22,3.86,26.55l17.87-10.47C464.36,699.76,463,691.51,461.32,686.37Z"/><path d="M451.12,788.64l18.85-.38c-0.1-4.86-.71-32.2-2.6-58.09l-18.21,10.67C450.29,759.46,450.91,778.34,451.12,788.64Z"/><path d="M440.39,724.12L432,750.88l17.13-10c-0.44-7.19-1-14.34-1.55-20.94Z"/><path d="M472.93,705.05l-7.46,4.37c0.74,6.46,1.37,13.54,1.89,20.74l12.81-7.51q0.48-1.78,1-3.55Z"/><path d="M536.23,753.67L521.8,741.54c-16.61,19.75-24.64,24.16-27.4,25.14-0.85-2.55-1.72-9.19.31-22.09a176.34,176.34,0,0,1,10.23-36.78l0.55-1.32c0,0.45,0,.89,0,1.33l18.85,0.43a124.08,124.08,0,0,0-.47-12.82c-0.53-5.62-1.77-18.79-12-20.93-11.56-2.41-18.35,11.6-24.33,26.16a180.1,180.1,0,0,0-6.34,18.45l1.3,2.21-2.29,1.34a180.78,180.78,0,0,0-4.57,22.29c-2.75,20.57.2,33.17,9,38.51a16.28,16.28,0,0,0,8.58,2.4c4.74,0,10-1.89,15.68-5.67C516.55,775.1,525.5,766.43,536.23,753.67Z"/><polygon points="554.32 693.93 535.58 696.01 542.06 754.32 557.47 722.25 554.32 693.93"/><polygon points="557.47 722.25 561.1 754.92 542.36 757 542.06 754.32 517.73 804.94 534.73 813.1 597.2 683.1 580.21 674.94 557.47 722.25"/><path d="M743.43,664c0.36-3.7.62-6.35,0.74-7.67a9.75,9.75,0,0,0-7.27-10.76c-7.71-1.85-11.17,5.28-12.3,7.62-0.86,1.77-2,4.32-3.45,7.8-2.68,6.36-6.22,15.16-10.31,25.34-9.49,23.61-27.76,69-37.43,86-2.78-11.55-4.58-34.11-5.65-47.55-0.52-6.55-1-12.74-1.57-18.57-1-10.64-6.32-13.14-10.59-13.36-4.76-.25-8,2.09-10.66,6.67l-4.1-.9-12.49,56.92q-1.19,5-2.45,10.43c-7.59,32.79-14.34,66.05-14.41,66.38l18.45,3.89,16.89-76.95c1.25-5.24,2.48-10.23,3.65-14.89,2.7,29.48,5.88,45.62,15.86,50.47a13.66,13.66,0,0,0,13.79-1.24c6.73-4.47,14.51-17.69,39.62-79.08-3,34,.25,76.93,2.42,98.52l16.27-40.22C737.88,747.62,738.71,712,743.43,664Z"/><path d="M742,821.26c-0.15-1.2-.41-3-0.72-5.58l-2.41,6Z"/><path d="M763.17,761.65L772,739.82l-18.2-4.92-15.36,38a416.64,416.64,0,0,0,2.87,42.81l17.93-44.32L756,765.75Z"/><path d="M722.17,813.08l-7.37,18.2,18.2,4.92,5.89-14.57-15.58,1.92C723,821.19,722.62,817.59,722.17,813.08Z"/><path d="M780.32,701.4c-5.25-8.56-11.75-8.8-15.14-8.18-9.08,1.66-13.59,12.37-16.5,21.51a148,148,0,0,0-3.88,15.16l18.52,3.55A113.32,113.32,0,0,1,767.47,718c3.66,9.39,6.4,22.94,8.38,36.4l17.54-10.05C790.59,727.9,786.43,711.37,780.32,701.4Z"/><path d="M783.93,818.16l18.83-.92c-0.14-2.86-4.79-37.92-6.52-52.82l-17.89,10.26C779.18,783,783.69,813.3,783.93,818.16Z"/><path d="M809.41,735.14l-16,9.18c1.17,6.89,2.11,13.75,2.85,20.1l22.55-12.92Z"/><path d="M763.17,761.65l-3.93,9.71,6.16,10.74,12.95-7.42c-0.64-6.35-1.46-13.31-2.49-20.3Z"/><path d="M219.73,160.11l-12.86-10.25L204,131.3l-2-25-8-26.05-32.59-1.45-38.58,9.73,12,40.93,25.94-17.09,5,1,8.81,4.57-32.87,13.44-15.85,22.36,18.29,24.38,36.8-4.47,13.52-9.13,8.43,10.11h20.4Zm-44.2-21-8.79,5.37-5.32-1.34,10.64-9.39,6.65,10.29Z"/><path d="M833.28,150.87l-10-9.87-2.23-18.36-5.42-22.18,6.37-20-33.9-10.19-32.34,5.63,9.27,40.94,22.56-13,3.86,1,6.82,4.57-42.51,11.26-17.53,21.85,18.87,28.33,46.1-5.73,10.47-9.89,6.52,9.35H836ZM801,131.38l-18.44,12.1-6.71-8.75,20.18-9.42,5,10.29v-4.22Z"/><polygon points="211.97 78.52 213.08 93.06 208.98 106.04 219.95 142.66 233.7 179.05 260.5 173.09 279.1 144.52 285.8 91.94 300.67 75.52 262.14 61.85 251.22 87.92 247.22 127.85 244.79 89.71 211.97 78.52"/><path d="M327.63,145.89l-5.81-12.07,45.58-16,2.08-27.66L347.76,79.68l-23.87-7.6L286,104.38v52.88l21.77,19.62,56-11.17-2-38.47Zm0.74-40.31h5.42l3.66,3-15.63,6Z"/><path d="M586.58,141.86l-5.71-5.91,46.93-15.62,2.14-27.07L607.58,83,584,75.52l-38,31.61v51.76l22.27,14.69H617l1.37-48Zm1-39.28h5.58l3.77,5.85-16.09,4.46Z"/><path d="M956.22,135.05l-6-5.68,46.52-17.47,0.86-27.13-23-9.4-24.7-6.47L912.54,102,915,153.73l24.37,14.65,49.09-1.93-0.94-48.51Zm-0.76-37.83,5.62-.22,4,5-16,5.46Z"/><polygon points="111.52 106.62 127.54 49.19 72.53 34.73 20.55 59.96 19.03 108.56 84 137.84 76.58 144.43 34.39 117.79 11.73 180.11 43.85 187.31 93.45 182.39 127.54 163.93 122.47 108.36 84 102.28 66.45 89.49 81.55 80.7 111.52 106.62"/><polygon points="398.12 50.54 377.7 77.71 380.47 122.41 404.8 108.13 398.88 139.15 388.67 166.91 442.75 186.88 452.43 161.49 437.54 146.64 450.92 92.4 468.62 94.06 504.45 55.16 466.6 45.84 448.96 55.62 409.88 64.31 398.12 50.54"/><polygon points="468.62 94.06 479.83 97.64 473.03 146.83 452.43 165.61 456.8 191 500.05 178.07 500.05 137.76 509.38 122.8 513.86 151.17 502.56 173.11 519.21 182.34 544.05 172.15 544.05 144.77 536.83 149.08 538.09 99.56 517.3 86.18 502.79 100.62 503.96 77.9 504.46 55.16 468.62 94.06"/><path d="M755,90.67L701.5,47.58H654.13L634.57,68.47,652.08,80l-5.16,68.91-17,22,49.94,8.17,54.37-24Zm-75.1,51.85,21-49.78,12.81,4.53-6.79,29.4Z"/><polygon points="836.03 97.77 831.1 53.3 881.01 61.73 872.54 85.18 868.98 97.77 885.49 85.46 908.9 109.78 885.69 128.43 867.09 124.67 875.41 148.64 893.06 143.27 908 153.33 897.13 170.58 860.47 170.58 836.46 146.41 822.61 108.03 836.03 97.77"/><path d="M159.21,1026.68h-15v34.88a8.51,8.51,0,0,0,.47,3.43,3.25,3.25,0,0,0,3.07,1.42h10.88v11.23H147.27q-8.16,0-11.71-4.14t-3.43-13v-33.82H121.37v-11.35h10.76V999.25H144.2v16.08h15v11.35Z"/><path d="M226,1043.6q0,14.19-9.46,22.94-8.87,8.16-22,8.16t-21.88-8.16q-9.46-8.75-9.46-22.94,0-13.84,8.63-23.06t22.7-9.22q14.07,0,22.94,9.34Q226,1029.77,226,1043.6Zm-12.65,0q0-9.22-5.2-15a17.26,17.26,0,0,0-13.6-5.91q-8.4,0-13.48,5.79t-5.2,15.14q0,9,5.56,14.54a17.59,17.59,0,0,0,13.13,5.32A18.06,18.06,0,0,0,208,1058Q213.37,1052.59,213.37,1043.6Z"/><path d="M328.51,1056.43q-9.81,21.29-29,21.29a27.93,27.93,0,0,1-21.68-9.81q-8.9-9.68-8.9-24.51,0-15.48,8.77-25.29a28.21,28.21,0,0,1,21.93-9.81q18.58,0,28.39,17.93l-11.87,5.29q-5.81-10.84-16.52-10.84-6.58,0-11.48,5.68-5.55,6.45-5.55,17,0,9.94,5.55,16.39,5,5.68,11.35,5.68,11,0,17.29-14.19Z"/><path d="M386.66,1052.87q-10.53,17.38-26.84,17.38-12.77,0-20.1-9.22-7-8.87-7-22.94,0-14.78,8.28-23.41,7.57-8,19.27-8a24.62,24.62,0,0,1,18.57,7.8q7.8,8.16,7.8,21.29v5.56H344.92q2,17.62,14.9,17.62,9.69,0,16.2-11.71Zm-12.89-23.18q-3.9-11.71-13.48-11.71-10.41,0-14.43,11.71h27.91Z"/><path d="M409.64,1073l-12.17-.37,2.59-86.29,12.17,0.37Z"/><path d="M471,1057.61Q460.51,1075,444.19,1075q-12.77,0-20.1-9.24-7-8.87-7-22.95,0-14.78,8.3-23.41,7.57-8,19.28-8a24.62,24.62,0,0,1,18.56,7.82q7.8,8.17,7.79,21.29V1046l-41.74,0q2,17.62,14.89,17.63,9.69,0,16.21-11.69Zm-12.87-23.19q-3.89-11.71-13.47-11.72-10.41,0-14.44,11.7Z"/><path d="M533.48,1041.11q0.11,14.43-8.21,24-7.85,8.93-19.09,9a27.15,27.15,0,0,1-19.93-8.24l0.06,7.45-12.3.09-0.67-86.32,12.3-.09,0.24,31.45a28.19,28.19,0,0,1,19-7.6,26.58,26.58,0,0,1,20.76,8.95A31.57,31.57,0,0,1,533.48,1041.11Zm-12.65.1q-0.06-8.39-4.48-13.57t-12.22-5.23A17,17,0,0,0,491.4,1028a20.42,20.42,0,0,0-5.33,14.59q0.08,9.82,5.56,15.21,5.12,5,13.64,5,6.5-.05,11.07-6T520.83,1041.21Z"/><path d="M577.59,1026Q556,1027.28,556.38,1045l0.71,31-12.06.28-1.39-60.88,12.06-.28,0.18,7.68a22.4,22.4,0,0,1,9.43-6.72,39.08,39.08,0,0,1,12-1.81Z"/><path d="M632.16,1074l-11.83.07a30.29,30.29,0,0,1-2.18-8.15q-9.41,9.17-21.11,9.24-8.63.05-14.45-4.4a14.59,14.59,0,0,1-5.87-12.14q-0.07-11.82,10.3-17.57,9.66-5.38,30.47-6.34-0.75-6.38-3.84-9.08t-9.12-2.66q-8.63.05-13.55,8.24l-11.38-5.13q8.07-14.24,24.86-14.34,12.65-.08,19.2,7.09,6.19,6.82,6.27,19.24l0.16,26.13A23.21,23.21,0,0,0,632.16,1074Zm-14.48-28.17q-28.5.77-28.42,12.71a4.74,4.74,0,0,0,1.56,3.42,8.62,8.62,0,0,0,6.16,2,20.37,20.37,0,0,0,13.45-4.93A21.63,21.63,0,0,0,617.68,1045.87Z"/><path d="M668.17,1026.07l-14.94-1.49-3.45,34.71a8.51,8.51,0,0,0,.13,3.46,3.25,3.25,0,0,0,2.92,1.72l10.83,1.08-1.11,11.18-11.3-1.12q-8.12-.81-11.24-5.28T637.88,1057l3.35-33.65-10.71-1.06,1.12-11.3,10.71,1.06,1.59-16,12,1.19-1.59,16,14.94,1.49Z"/><path d="M730.88,1056.53q-10,17.72-26.26,18.26-12.76.42-20.4-8.56-7.27-8.63-7.73-22.7-0.49-14.77,7.5-23.67,7.3-8.28,19-8.67a24.62,24.62,0,0,1,18.81,7.19q8.07,7.9,8.5,21l0.18,5.55-41.72,1.37q2.59,17.55,15.47,17.12,9.69-.32,15.81-12.23Zm-13.64-22.74q-4.29-11.57-13.86-11.26-10.4.34-14,12.17Z"/><path d="M817.3,1028.08l-15.8-.17-0.4,36.71a9,9,0,0,0,.46,3.61,3.42,3.42,0,0,0,3.22,1.53l11.45,0.12-0.13,11.82-11.95-.13q-8.59-.09-12.27-4.49t-3.46-13.73l0.39-35.59-11.32-.12,0.13-11.95,11.32,0.12,0.18-16.92L801.81,999,801.63,1016l15.8,0.17Z"/><path d="M878.15,1077.26l-11.94-.29,0.88-36.77q0.18-7.68-2.57-11.06t-10.33-3.44q-11.94-.29-19,14.09l-0.87,36.41-12.06-.29,2.06-86.3,12.06,0.29-0.77,32q8.47-8.08,18.88-7.83,25.18,0.6,24.56,26.37Z"/><path d="M944.26,1061.26Q934,1078.79,917.67,1079q-12.77.19-20.24-8.93-7.11-8.76-7.31-22.84-0.22-14.78,7.93-23.53,7.45-8.15,19.15-8.32a24.62,24.62,0,0,1,18.68,7.53q7.92,8,8.12,21.17l0.08,5.56-41.74.61q2.27,17.59,15.16,17.4,9.69-.14,16-11.94Zm-13.23-23q-4.07-11.65-13.65-11.51-10.41.15-14.25,11.92Z"/><path d="M975.66,1002.31l-12.06.23-0.24-12.65,12.06-.23ZM977.2,1076l-12.18.23-1.17-61L976,1015Z"/><path d="M1026.84,1027.6q-21.64.79-21.67,18.53l0,31-12.06,0,0.1-60.9,12.06,0v7.69a22.4,22.4,0,0,1,9.59-6.49,39.08,39.08,0,0,1,12.06-1.52Z"/><path d="M424.21,1145.19l-1.53,41.12-13.4-.5,1.55-41.78q0.29-7.94-2.05-11.41t-7.82-3.55a20.88,20.88,0,0,0-10.4,2.74,25.49,25.49,0,0,0-8.73,7.1q0.14,3.13.09,4.7l-1.53,41.12-13.4-.5,1.53-41.12q0.57-15.23-10-15.62a19.27,19.27,0,0,0-9.87,2.63,24.59,24.59,0,0,0-8.2,6.86l-1.71,46.2-13.4-.5,2.52-67.8,13.4,0.5-0.24,6.38q9.51-6.94,18-6.63,13.27,0.49,19.77,11.68,11.21-10.53,22.66-10.11,12.36,0.46,18.3,9.15Q424.65,1133.22,424.21,1145.19Z"/><path d="M492.41,1179.23l-11.82.21a30.3,30.3,0,0,1-2.27-8.12q-9.3,9.28-21,9.48-8.63.16-14.51-4.23a14.59,14.59,0,0,1-6-12.07q-0.21-11.82,10.09-17.69,9.6-5.49,30.39-6.7-0.82-6.37-3.95-9t-9.15-2.56q-8.63.16-13.45,8.4l-11.44-5q7.9-14.34,24.69-14.64,12.65-.23,19.28,6.87,6.27,6.75,6.49,19.16l0.47,26.13A23.22,23.22,0,0,0,492.41,1179.23Zm-14.81-28q-28.48,1.1-28.27,13a4.74,4.74,0,0,0,1.6,3.4,8.62,8.62,0,0,0,6.19,1.9,20.37,20.37,0,0,0,13.39-5.09A21.64,21.64,0,0,0,477.6,1151.23Z"/><path d="M536.59,1130.69q-21.66.12-22.24,17.85l-1,31-12.06-.4,2-60.87,12.06,0.4-0.25,7.68a22.4,22.4,0,0,1,9.79-6.19A39.06,39.06,0,0,1,537,1119Z"/><path d="M581.49,1130.12q-21.64.81-21.66,18.54l0,31H547.74l0.06-60.9h12.06v7.69a22.4,22.4,0,0,1,9.59-6.49,39.06,39.06,0,0,1,12.06-1.52v11.71Z"/><path d="M600.26,1107.44l-12.06.19L588,1095l12.06-.19Zm1.28,73.66-12.18.19-1-61,12.18-.19Z"/><path d="M668,1179H656.17a30.3,30.3,0,0,1-2.12-8.16q-9.47,9.1-21.17,9.09-8.63,0-14.42-4.5a14.59,14.59,0,0,1-5.79-12.18q0-11.82,10.42-17.5,9.7-5.32,30.51-6.13-0.71-6.39-3.78-9.11t-9.1-2.72q-8.63,0-13.6,8.15l-11.35-5.21q8.17-14.19,25-14.18,12.65,0,19.15,7.22Q666,1130.6,666,1143v26.13A23.22,23.22,0,0,0,668,1179Zm-14.29-28.27q-28.5.58-28.51,12.52a4.74,4.74,0,0,0,1.54,3.43,8.62,8.62,0,0,0,6.15,2,20.37,20.37,0,0,0,13.48-4.84A21.64,21.64,0,0,0,653.71,1150.69Z"/><path d="M729.77,1170.18q0,12.89-7.57,20.93t-19.87,8q-17.86,0-26.13-15.26l10.64-5.08q5.44,9.1,15.49,9.11a14.42,14.42,0,0,0,11.12-4.61q4.26-4.73,4.26-13.13v-2.13q-7.69,7.57-16.32,7.57-11.94,0-19.75-8.16a27.85,27.85,0,0,1-7.92-20,28.24,28.24,0,0,1,7.8-20.1q7.8-8.28,19.87-8.28a25.69,25.69,0,0,1,16.32,6V1120h12.06v50.14ZM717.59,1147a16.92,16.92,0,0,0-4.49-11.94q-4.38-4.73-11.71-4.73a14,14,0,0,0-10.76,5,18.05,18.05,0,0,0-4.38,12.18,16.87,16.87,0,0,0,4.49,11.71,14,14,0,0,0,10.64,4.85,15.93,15.93,0,0,0,11.59-4.49Q717.59,1155,717.59,1147Z"/><path d="M794.43,1165.12q-10.53,17.38-26.84,17.38-12.77,0-20.1-9.22-7-8.87-7-22.94,0-14.78,8.28-23.41,7.57-8,19.27-8a24.62,24.62,0,0,1,18.57,7.8q7.8,8.16,7.8,21.28v5.56H752.69q2,17.62,14.9,17.62,9.69,0,16.2-11.71Zm-12.89-23.18q-3.9-11.71-13.48-11.71-10.41,0-14.43,11.71h27.91Z"/><polygon points="225.05 898.58 271.66 898.58 269.93 950.1 281.51 959.58 228.39 959.58 239.39 947.99 239.22 913.24 225.05 898.58"/><circle cx="474.14" cy="869.11" r="22.67"/><circle cx="254.76" cy="869.11" r="22.67"/><path d="M274.84,899.58l11.88,18,1.5,34.18-8.07,8.83h38.68l-7.23-9.3-1.73-30.54s8.1-8.81,12.14-3.6,4.61,35.22,4.61,35.22l-5.43,8.21h46.35l-12.61-10.41,1-33.19s-0.75-21.73-20.66-21.73-27.46,19.4-27.46,19.4l1.07-15.07h-34Z"/><path d="M497,901.05v8.52h8v37.86s6.19,17.72,24.55,17.72,26.44-15,20.87-24.49L545,941.78s1.18,6.2-4.38,4.53-4.4-33.63-4.4-33.63l16.26-3.07,3.79-15-22.26.27,1.11-22.06-31.06,26Z"/><polygon points="360.79 898.35 367.62 906.88 390.04 954.47 379.04 960.58 431.88 960.58 422.08 953.25 442.82 908.14 451.12 898.82 415.34 898.86 421.56 909.19 409.12 936.15 404.44 909.46 407.8 895.27 360.79 898.35"/><polygon points="452.95 899.4 462.05 913.3 462.05 947.13 451.12 960.58 500.84 960.58 491.57 948.31 493.36 898.31 452.95 899.4"/><path d="M635.56,933.89l-9.75-.37s-0.74,5.57-7.42,10.76-18.92-.48-22.11-4.56-5-12.73-5-12.73l47.57,0V913s-5.55-20.24-37.09-20.24-42.87,15.11-42.87,37.37c0,24.86,28.39,33,42.12,32.9s21.52-6.19,27.09-10.64S635.56,933.89,635.56,933.89Zm-31.61-28c11.21,0,2.3,12.73,2.3,12.73h-15S592.75,905.85,604,905.85Z"/><path d="M649.62,894.58l14.58,10.86,23.87,57s-3.94,7.77-9,8.94-9,1.67-9.25-5.6l-18.2.56s1.79,24.61,28.05,18.46,52.52-78.27,52.52-78.27l16.37-12h-39.3L713.14,906,702.4,930.37l-9.55-22.13,9.3-13.66H649.62Z"/><path d="M774.92,894.4c-9-.31-36.71,4.84-36.71,32.81s22.68,30.21,37.9,30.21,36.54-3.36,36.54-29.93S783.88,894.71,774.92,894.4Zm-0.12,56.32c-7.38,1.18-6.18-5.1-6.18-5.1s0.12-30.06-.19-36.49,4.22-6,4.22-6c8.08-.12,6.61,6.47,6.61,6.47L780.19,939S782.18,949.54,774.8,950.72Z"/><path d="M811.59,896.58L821,907.91v31.33s2.3,16.78,19,16.5,25-14.05,25-14.05v16.09l36-2-8.58-8.67,5.47-50.77-44.74,1.26,8.92,14-1.21,17.06s-2.39,9.86-7.47,6.5-4.2-38.53-4.2-38.53H811.59Z"/><path d="M243.8,218.68l-0.23,15.58-1.86-.12a18.84,18.84,0,0,0-1.1-6,9.84,9.84,0,0,0-3.77-4.43,14.08,14.08,0,0,0-6.54-1.75l-9.33-.58L217.84,272q-0.38,6.11.85,7.7,1.73,2.17,5.59,2.41l2.3,0.14-0.11,1.81-28.09-1.74,0.11-1.81,2.34,0.15q4.2,0.26,6.12-2.17,1.17-1.5,1.52-7.07l3.14-50.61-8-.49a22.25,22.25,0,0,0-6.64.27,9.07,9.07,0,0,0-4.57,3.3,14.46,14.46,0,0,0-2.59,7L188,230.8l1.75-15.49Z"/><path d="M254.08,237.27a18.94,18.94,0,0,1,15.59,7.37,22.64,22.64,0,0,1,5,14.47,27.24,27.24,0,0,1-2.75,11.62,19.55,19.55,0,0,1-18.34,11.85,18.11,18.11,0,0,1-15.35-7.7,23.85,23.85,0,0,1-4.81-14.56,25.83,25.83,0,0,1,2.92-11.69A19.91,19.91,0,0,1,244,240,19.7,19.7,0,0,1,254.08,237.27Zm-1.45,3a9.73,9.73,0,0,0-5,1.47,10.31,10.31,0,0,0-4,5.16,24.83,24.83,0,0,0-1.54,9.47,33,33,0,0,0,3.71,16.1q3.71,6.77,9.78,6.77a9.11,9.11,0,0,0,7.47-3.73Q266,271.81,266,262.7q0-11.39-4.9-17.92A10.1,10.1,0,0,0,252.63,240.31Z"/><path d="M288.45,265.71A14.09,14.09,0,0,1,281,252.36a14.63,14.63,0,0,1,5.34-10.7,17.05,17.05,0,0,1,12.5-4,18.71,18.71,0,0,1,10.46,3.52l9.07,0.45a12,12,0,0,1,2.33.23,0.8,0.8,0,0,1,.45.42,2.87,2.87,0,0,1,.21,1.51,4.18,4.18,0,0,1-.32,1.67,1,1,0,0,1-.51.35,10.36,10.36,0,0,1-2.37,0l-5.56-.28a14.44,14.44,0,0,1-2.91,18.74q-4.8,4-12.51,3.64a23.9,23.9,0,0,1-6.45-1.26,12.35,12.35,0,0,0-2.94,3,5,5,0,0,0-.84,2.23,2.16,2.16,0,0,0,.69,1.58,5.65,5.65,0,0,0,3,1.23q1.3,0.25,6.53.65,9.62,0.72,12.45,1.28a11.75,11.75,0,0,1,6.78,3.57,8.82,8.82,0,0,1,2.27,6.58q-0.26,5.28-5.45,9.66-7.64,6.46-19.37,5.87-9-.45-15-4.83-3.39-2.51-3.26-5a5.34,5.34,0,0,1,.63-2.22,26.15,26.15,0,0,1,3.51-4.65q0.35-.4,5-4.81a14.72,14.72,0,0,1-3.31-2.77,3.83,3.83,0,0,1-.87-2.65,7.71,7.71,0,0,1,1.52-3.77Q283.43,269.49,288.45,265.71Zm-1.25,15.59a23,23,0,0,0-3.54,4.28,8,8,0,0,0-1.31,3.73q-0.11,2.24,2.52,4.06,4.53,3.13,13.37,3.57,8.42,0.42,12.56-2.35t4.31-6.14a3.55,3.55,0,0,0-2.21-3.58q-2.38-1.15-9.57-1.7A154,154,0,0,1,287.2,281.31Zm10.7-41.41a7.31,7.31,0,0,0-5.93,2.47q-2.48,2.64-2.76,8.35-0.37,7.39,2.61,11.61a7.54,7.54,0,0,0,6,3.39,7.38,7.38,0,0,0,6-2.37q2.42-2.55,2.71-8.25,0.37-7.43-2.64-11.8A7.42,7.42,0,0,0,297.89,239.89Z"/><path d="M326.63,256.74q1,9.5,6.19,14.41t11.51,4.24a11.93,11.93,0,0,0,7-3.08q2.85-2.63,4.35-8.44l1.54,0.78a22.32,22.32,0,0,1-4.44,12.22,15.25,15.25,0,0,1-11.22,6.49,17.29,17.29,0,0,1-13.79-4.58q-6.11-5.4-7.18-15.5-1.16-10.94,3.79-17.66A18.4,18.4,0,0,1,337.86,238a15.83,15.83,0,0,1,12.28,3.47q5.11,4.23,6,12.15Zm-0.29-2.7,19.74-2.1a18.38,18.38,0,0,0-1.59-5.67,9.3,9.3,0,0,0-3.9-3.73,8.79,8.79,0,0,0-5-1A9.66,9.66,0,0,0,329,245.3,13.1,13.1,0,0,0,326.34,254Z"/><path d="M372.64,216.14V231.6h11v3.59h-11v30.5q0,4.57,1.31,6.16a4.16,4.16,0,0,0,3.36,1.59,5.88,5.88,0,0,0,3.29-1.05,6.77,6.77,0,0,0,2.46-3.11h2a16.11,16.11,0,0,1-5.08,7.57,11,11,0,0,1-6.78,2.54,9.12,9.12,0,0,1-4.62-1.31,7.91,7.91,0,0,1-3.34-3.75,19.67,19.67,0,0,1-1.08-7.52V235.2h-7.45V233.5a19.52,19.52,0,0,0,5.78-3.83,30.4,30.4,0,0,0,5.26-6.39,57.59,57.59,0,0,0,3.29-7.14h1.59Z"/><path d="M397.42,206.52L399,240.13q5.29-6.38,8.47-8.26a13.82,13.82,0,0,1,6.44-2,10.73,10.73,0,0,1,6.82,1.85,12.76,12.76,0,0,1,4.48,6.58q1.1,3.17,1.49,11.7l0.75,16.26a17,17,0,0,0,1,5.94,3.92,3.92,0,0,0,1.79,1.83,9.61,9.61,0,0,0,4.45.5l0.08,1.81-22.58,1-0.08-1.81,1.05,0q3.21-.15,4.42-1.18a5.2,5.2,0,0,0,1.62-3,39.89,39.89,0,0,0-.07-4.72l-0.75-16.26q-0.35-7.53-1.23-9.85a6.69,6.69,0,0,0-2.65-3.42,7.07,7.07,0,0,0-4.17-1,11.62,11.62,0,0,0-5.06,1.54,24.46,24.46,0,0,0-6.13,5.56l1.12,24.28q0.22,4.72.8,5.85a4.29,4.29,0,0,0,2,1.84,11.19,11.19,0,0,0,5,.55l0.08,1.81-22.78,1-0.08-1.81a10.18,10.18,0,0,0,4.77-1.17,3.58,3.58,0,0,0,1.52-2,17.33,17.33,0,0,0,.34-5.75L390,226.27a69.59,69.59,0,0,0-.82-9.67,4.33,4.33,0,0,0-1.27-2.4,3.14,3.14,0,0,0-2.11-.56,12.26,12.26,0,0,0-3.37,1l-0.78-1.72,13.49-6.25Z"/><path d="M443.93,250.26q-2.81,9.13.1,15.68t9,8.38a11.93,11.93,0,0,0,7.68-.1q3.65-1.32,7.29-6.08l1.12,1.32a22.32,22.32,0,0,1-8.85,9.52,15.25,15.25,0,0,1-12.86,1.61A17.29,17.29,0,0,1,436.45,271q-3.52-7.35-.58-17.07,3.19-10.53,10.37-14.79a18.4,18.4,0,0,1,15.34-1.79,15.83,15.83,0,0,1,10,8q3.06,5.89.75,13.51Zm0.79-2.6,19,5.75a18.38,18.38,0,0,0,.74-5.84,9.3,9.3,0,0,0-2.14-5,8.79,8.79,0,0,0-4.2-2.84,9.66,9.66,0,0,0-7.53.88A13.1,13.1,0,0,0,444.71,247.66Z"/><path d="M489.74,226v10.9q6.09-10.9,12.49-10.9a6.8,6.8,0,0,1,4.82,1.77,5.45,5.45,0,0,1,1.9,4.1,4.85,4.85,0,0,1-1.38,3.49,4.4,4.4,0,0,1-3.28,1.43,7,7,0,0,1-4.16-1.83q-2.3-1.83-3.41-1.83a3.15,3.15,0,0,0-2.06,1.06,25.46,25.46,0,0,0-4.92,7.14v23.23a14.38,14.38,0,0,0,1,6.09,5.48,5.48,0,0,0,2.43,2.38,10.69,10.69,0,0,0,5,1v1.91H473.39V274a10.31,10.31,0,0,0,5.5-1.16,4.52,4.52,0,0,0,1.85-2.7A27.27,27.27,0,0,0,481,265V246.2a78.06,78.06,0,0,0-.34-10.08,4,4,0,0,0-1.27-2.35,3.57,3.57,0,0,0-2.3-.74,10.47,10.47,0,0,0-3.7.79l-0.53-1.91L487.52,226h2.22Z"/><path d="M520.36,239.86L538,237.22l0.25,1.7a5.78,5.78,0,0,0-3.06,1.35,2.56,2.56,0,0,0-.46,2.09,10,10,0,0,0,1.3,3.32l12.62,22.82,6.08-21-3.31-5.83a7.47,7.47,0,0,0-3.46-3.37,8.53,8.53,0,0,0-3.88-.22l-0.25-1.7,20-3,0.25,1.7a8.57,8.57,0,0,0-4.5,1.89,2.85,2.85,0,0,0-.57,2.48,5.31,5.31,0,0,0,.65,1.83l13.16,22.7,5.36-24.58a12.3,12.3,0,0,0,.33-4.08,2,2,0,0,0-1.13-1.43,6.66,6.66,0,0,0-3.63-.25l-0.25-1.7,13.26-2,0.25,1.7q-3.9,1.2-5.06,6.29l-8.6,38.3-1.88.28-14.53-25.26-8.22,28.67-1.7.25-18.79-33.29a12.82,12.82,0,0,0-3.29-4.13,8.82,8.82,0,0,0-4.3-1.16Z"/><path d="M604.49,231.5v34.82a15.94,15.94,0,0,0,.59,5.42,4.15,4.15,0,0,0,1.75,2,9.35,9.35,0,0,0,4.23.66v1.7H590v-1.7a9.8,9.8,0,0,0,4.26-.62,4.22,4.22,0,0,0,1.73-2,15.3,15.3,0,0,0,.64-5.44v-16.7a59.08,59.08,0,0,0-.43-9.13,3.72,3.72,0,0,0-1-2.11,2.94,2.94,0,0,0-1.94-.59,9.46,9.46,0,0,0-3.22.71l-0.66-1.7,13.06-5.3h2.08Zm-3.93-22.66a4.77,4.77,0,0,1,4.78,4.78,4.69,4.69,0,0,1-1.4,3.41,4.57,4.57,0,0,1-3.38,1.42A4.8,4.8,0,1,1,600.56,208.84Z"/><path d="M623.32,217.88l-0.67,14.4,10.24,0.48-0.16,3.35-10.24-.48L621.17,264q-0.2,4.26,1,5.8a3.88,3.88,0,0,0,3.06,1.63,5.49,5.49,0,0,0,3.11-.84,6.31,6.31,0,0,0,2.43-2.79l1.87,0.09a15,15,0,0,1-5.06,6.83,10.23,10.23,0,0,1-6.42,2.07,8.5,8.5,0,0,1-4.25-1.42,7.38,7.38,0,0,1-2.95-3.64,18.35,18.35,0,0,1-.68-7.06l1.37-29.47-6.94-.32,0.07-1.58a18.2,18.2,0,0,0,5.55-3.31,28.35,28.35,0,0,0,5.18-5.73,53.7,53.7,0,0,0,3.37-6.51Z"/><path d="M652.34,214.13v29.11q4.82-5.3,7.65-6.8a12,12,0,0,1,5.65-1.5,9.28,9.28,0,0,1,5.82,1.87,11,11,0,0,1,3.61,5.86q0.82,2.78.83,10.17v14.08a14.69,14.69,0,0,0,.61,5.17,3.39,3.39,0,0,0,1.48,1.65,8.31,8.31,0,0,0,3.82.61v1.56H662.24v-1.56h0.91a6.52,6.52,0,0,0,3.87-.85,4.5,4.5,0,0,0,1.52-2.5,34.5,34.5,0,0,0,.13-4.08V252.84q0-6.52-.67-8.56a5.78,5.78,0,0,0-2.15-3.06,6.12,6.12,0,0,0-3.56-1,10.05,10.05,0,0,0-4.43,1.13,21.16,21.16,0,0,0-5.52,4.56v21a16.38,16.38,0,0,0,.46,5.08,3.71,3.71,0,0,0,1.69,1.67,9.68,9.68,0,0,0,4.28.67v1.56H639v-1.56a8.8,8.8,0,0,0,4.17-.83,3.09,3.09,0,0,0,1.39-1.65,15,15,0,0,0,.52-5v-36a60.19,60.19,0,0,0-.33-8.38,3.74,3.74,0,0,0-1-2.13,2.72,2.72,0,0,0-1.8-.56,10.6,10.6,0,0,0-3,.7L638.44,219l11.9-4.87h2Z"/><path d="M725.45,231.09l-1.34,13,9.25,1-0.31,3-9.25-1-2.64,25.67q-0.4,3.85.57,5.3a3.52,3.52,0,0,0,2.69,1.63,5,5,0,0,0,2.86-.6,5.72,5.72,0,0,0,2.34-2.4l1.69,0.17a13.63,13.63,0,0,1-4.93,5.93,9.28,9.28,0,0,1-5.92,1.55,7.71,7.71,0,0,1-3.78-1.5,6.69,6.69,0,0,1-2.48-3.44,16.64,16.64,0,0,1-.26-6.42l2.74-26.62-6.27-.64,0.15-1.43a16.51,16.51,0,0,0,5.19-2.72,25.72,25.72,0,0,0,5-4.93,48.72,48.72,0,0,0,3.38-5.72Z"/><path d="M747.7,223.39l-3,29q5.34-4.78,8.3-6a12,12,0,0,1,5.77-.91,9.28,9.28,0,0,1,5.6,2.45,11,11,0,0,1,3,6.2q0.54,2.85-.22,10.2l-1.44,14a14.69,14.69,0,0,0,.08,5.21,3.39,3.39,0,0,0,1.3,1.79,8.31,8.31,0,0,0,3.74,1l-0.16,1.56-19.45-2,0.16-1.56,0.91,0.09a6.52,6.52,0,0,0,3.93-.45,4.5,4.5,0,0,0,1.77-2.33,34.5,34.5,0,0,0,.55-4l1.44-14q0.67-6.48.21-8.58a5.78,5.78,0,0,0-1.83-3.27,6.12,6.12,0,0,0-3.44-1.38,10.05,10.05,0,0,0-4.52.67,21.16,21.16,0,0,0-6,4l-2.15,20.92a16.38,16.38,0,0,0-.07,5.1,3.71,3.71,0,0,0,1.51,1.84,9.68,9.68,0,0,0,4.19,1.11l-0.16,1.56-19.62-2,0.16-1.56a8.8,8.8,0,0,0,4.23-.4,3.09,3.09,0,0,0,1.55-1.5,15,15,0,0,0,1-4.87l3.68-35.83a60.19,60.19,0,0,0,.53-8.37,3.74,3.74,0,0,0-.78-2.22,2.72,2.72,0,0,0-1.74-.75,10.6,10.6,0,0,0-3,.39l-0.45-1.58,12.34-3.62Z"/><path d="M782.63,250.88q0.36,8.86,4.93,13.69T798,269.14a11.07,11.07,0,0,0,6.69-2.46q2.79-2.28,4.5-7.58l1.38,0.81a20.72,20.72,0,0,1-4.8,11.07A14.15,14.15,0,0,1,795,276.37a16.05,16.05,0,0,1-12.52-5q-5.35-5.34-5.78-14.76-0.47-10.2,4.5-16.14a17.07,17.07,0,0,1,12.87-6.31,14.69,14.69,0,0,1,11.18,3.9q4.5,4.21,4.83,11.59Zm-0.12-2.52,18.4-.84a17.06,17.06,0,0,0-1.16-5.34,8.63,8.63,0,0,0-3.41-3.67,8.16,8.16,0,0,0-4.55-1.18,9,9,0,0,0-6.32,3.09A12.16,12.16,0,0,0,782.52,248.37Z"/><path d="M828.11,236l-3.49,31.78a14.64,14.64,0,0,0,0,5,3.81,3.81,0,0,0,1.4,2,8.59,8.59,0,0,0,3.8,1l-0.17,1.55-19.22-2.11,0.17-1.55a9,9,0,0,0,3.95-.14,3.87,3.87,0,0,0,1.78-1.68,14.05,14.05,0,0,0,1.13-4.9l1.67-15.24a54.25,54.25,0,0,0,.53-8.38,3.41,3.41,0,0,0-.74-2,2.7,2.7,0,0,0-1.71-.73,8.69,8.69,0,0,0-3,.33l-0.43-1.62,12.45-3.53ZM826.8,215a4.38,4.38,0,0,1,3.88,4.84,4.3,4.3,0,0,1-1.62,3,4.2,4.2,0,0,1-3.23,1A4.41,4.41,0,1,1,826.8,215Z"/><path d="M850.61,238.51l-1,8.9q5.94-8.35,11.17-7.78a5.58,5.58,0,0,1,3.77,1.88,4.48,4.48,0,0,1,1.19,3.52,4,4,0,0,1-1.43,2.73,3.61,3.61,0,0,1-2.81.87,5.74,5.74,0,0,1-3.23-1.86,5.63,5.63,0,0,0-2.62-1.8,2.59,2.59,0,0,0-1.78.68,20.9,20.9,0,0,0-4.66,5.39l-2.08,19a11.8,11.8,0,0,0,.28,5.06,4.5,4.5,0,0,0,1.77,2.16,8.78,8.78,0,0,0,4,1.23L853.06,280l-20.25-2.22,0.17-1.55a8.46,8.46,0,0,0,4.6-.46,3.71,3.71,0,0,0,1.75-2,22.39,22.39,0,0,0,.67-4.17l1.68-15.33a64.07,64.07,0,0,0,.62-8.26,3.24,3.24,0,0,0-.83-2,2.93,2.93,0,0,0-1.81-.81,8.59,8.59,0,0,0-3.09.32l-0.26-1.6,12.49-3.52Z"/><path d="M390.63,319.91v34.22q0,7.28,1.59,9.21a7,7,0,0,0,5.63,2.5h4.72v2H371.48v-2h2.33A7.85,7.85,0,0,0,378,364.7a5.91,5.91,0,0,0,2.59-3.07q0.71-1.93.71-7.5V319.91H371.14v-4.09h10.12V312.4a31.24,31.24,0,0,1,2.5-13.19,20.47,20.47,0,0,1,7.64-8.73A20.85,20.85,0,0,1,403,287.16a17.55,17.55,0,0,1,11,3.87q3.3,2.56,3.3,5.74a4.54,4.54,0,0,1-1.48,3.21,4.42,4.42,0,0,1-3.18,1.51,5.11,5.11,0,0,1-2.76-.94,15,15,0,0,1-3.55-4,14.28,14.28,0,0,0-3.87-4.18,7.36,7.36,0,0,0-3.92-1.08,7.08,7.08,0,0,0-4.43,1.39,7.8,7.8,0,0,0-2.62,4.32q-0.8,2.93-.8,15.09v3.75H404v4.09H390.63Z"/><path d="M432.1,353q-7.7,5.08-9.63,5.81a14,14,0,0,1-6,.84,10.67,10.67,0,0,1-7.83-4,12.35,12.35,0,0,1-2.51-9.07,11.27,11.27,0,0,1,2-5.87q2.38-3.35,7.86-6.05t18-6.22l0.14-1.86q0.53-7.07-1.51-9.87a8.13,8.13,0,0,0-6.33-3.13A7.36,7.36,0,0,0,421,315a5.3,5.3,0,0,0-2.26,3.88l-0.12,3a5.16,5.16,0,0,1-1.49,3.57,4.17,4.17,0,0,1-3.27,1.05,4,4,0,0,1-3-1.58,5.28,5.28,0,0,1-.94-3.76q0.34-4.44,5.16-7.81t13-2.75a22.17,22.17,0,0,1,10.16,2.9,9.75,9.75,0,0,1,4.11,5.35q0.76,2.29.24,9.16L441.34,344a73.44,73.44,0,0,0-.37,8.3,3.48,3.48,0,0,0,.7,2.1,2,2,0,0,0,1.33.62,2.82,2.82,0,0,0,1.47-.25,32.3,32.3,0,0,0,4.47-3.45l-0.22,2.89q-6.37,7.31-11.63,6.91a5,5,0,0,1-3.89-2.06Q431.83,357.23,432.1,353Zm0.25-3.36,1.36-18a102.27,102.27,0,0,0-10.4,3.63,17.44,17.44,0,0,0-6.19,4.31,9.2,9.2,0,0,0-2.16,5.29,8.87,8.87,0,0,0,1.75,6.34,6.74,6.74,0,0,0,4.92,2.84Q425.56,354.32,432.35,349.64Z"/><path d="M472.94,315.51q5.67-4.63,6.67-5.31a18.5,18.5,0,0,1,5.3-2.54,14.17,14.17,0,0,1,5.41-.55,11.83,11.83,0,0,1,7.37,3.34,12.81,12.81,0,0,1,3.53,7.9q5.92-5.65,9.78-7.21a16,16,0,0,1,7.71-1.18,11.85,11.85,0,0,1,6.48,2.6,12.91,12.91,0,0,1,4,6.77q0.83,3.1.19,9.49l-2,20.29a18.58,18.58,0,0,0,.06,6.15,4.4,4.4,0,0,0,1.71,2.12,9.62,9.62,0,0,0,4.45,1.25l-0.19,1.85-23.28-2.33,0.19-1.85,1,0.1a8.23,8.23,0,0,0,4.86-.71,4.61,4.61,0,0,0,2-2.46,33.29,33.29,0,0,0,.71-5l2-20.29q0.58-5.77-.58-8.28-1.68-3.5-6.11-3.94a12.35,12.35,0,0,0-5.62.81,29.91,29.91,0,0,0-7.18,4.41l-0.16.56L501,323.74l-2.26,22.51q-0.49,4.84-.06,6.08a4.4,4.4,0,0,0,1.84,2.19,11.71,11.71,0,0,0,5,1.31l-0.19,1.85-23.85-2.39,0.19-1.85q3.91,0.39,5.48-.39a4.84,4.84,0,0,0,2.31-2.58,27.59,27.59,0,0,0,.77-5.07l2-20.29q0.58-5.77-.87-8.46a7.3,7.3,0,0,0-6-3.93,11.43,11.43,0,0,0-5.66.94,21.32,21.32,0,0,0-7.1,4.44l-2.53,25.29q-0.46,4.64,0,6.09a4.44,4.44,0,0,0,1.7,2.28q1.19,0.82,5.05,1.21l-0.19,1.85-23.33-2.34,0.19-1.85a10.44,10.44,0,0,0,4.6-.24,4.48,4.48,0,0,0,2.18-2q0.82-1.45,1.26-5.83l1.81-18a65.69,65.69,0,0,0,.54-10.09,4.12,4.12,0,0,0-.9-2.46,3.22,3.22,0,0,0-2-.86,9.94,9.94,0,0,0-3.53.43l-0.59-1.93,14.79-4.34,2.21,0.22Z"/><path d="M549.12,310.88l2.08,38q0.24,4.45,1,5.88a4.54,4.54,0,0,0,2,2.09,10.23,10.23,0,0,0,4.67.47l0.1,1.86-23,1.25-0.1-1.86a10.72,10.72,0,0,0,4.62-.93,4.62,4.62,0,0,0,1.77-2.33q0.61-1.59.37-6l-1-18.25a64.64,64.64,0,0,0-1-10,4.07,4.07,0,0,0-1.26-2.24,3.22,3.22,0,0,0-2.15-.53,10.36,10.36,0,0,0-3.47,1l-0.83-1.82,14-6.57Zm-5.64-24.53A5.22,5.22,0,0,1,549,291.3a5.13,5.13,0,0,1-1.32,3.8,5,5,0,0,1-3.61,1.75A5.25,5.25,0,1,1,543.48,286.36Z"/><path d="M583.62,279.61l-4.67,62.72q-0.33,4.44.21,5.93a4.58,4.58,0,0,0,1.82,2.34q1.29,0.85,5,1.12l-0.14,1.86-23.18-1.73,0.14-1.86a10,10,0,0,0,4.49-.34,4.48,4.48,0,0,0,2-2.08,17.34,17.34,0,0,0,1.11-5.89l3.2-43a74.73,74.73,0,0,0,.37-9.86,4.32,4.32,0,0,0-1-2.59,3.07,3.07,0,0,0-2-.82,9.67,9.67,0,0,0-3.47.57l-0.74-1.87,14.52-4.73Z"/><path d="M605.87,301.37l3,31.11a14.31,14.31,0,0,0,1,4.79,3.73,3.73,0,0,0,1.74,1.65,8.4,8.4,0,0,0,3.84.23l0.15,1.52-18.81,1.8L596.61,341a8.79,8.79,0,0,0,3.75-.91,3.79,3.79,0,0,0,1.37-2,13.73,13.73,0,0,0,.1-4.92l-1.43-14.92a53,53,0,0,0-1.16-8.12,3.34,3.34,0,0,0-1.11-1.79,2.64,2.64,0,0,0-1.78-.36,8.49,8.49,0,0,0-2.81.91l-0.74-1.46L604,301.55Zm-5.45-19.91a4.28,4.28,0,0,1,4.68,3.86,4.21,4.21,0,0,1-1,3.16,4.1,4.1,0,0,1-2.9,1.56A4.31,4.31,0,1,1,600.42,281.46Z"/><path d="M629.16,316q-0.05,10.56,5.12,16.57t12.17,6a13.19,13.19,0,0,0,8.1-2.56q3.44-2.56,5.77-8.77l1.6,1a24.69,24.69,0,0,1-6.31,12.92,16.86,16.86,0,0,1-13.1,5.82,19.12,19.12,0,0,1-14.62-6.65q-6.08-6.65-6.08-17.88,0-12.16,6.24-19a20.34,20.34,0,0,1,15.66-6.81A17.51,17.51,0,0,1,656.8,302q5.12,5.25,5.12,14.05H629.16Zm0-3h21.95a20.33,20.33,0,0,0-1.09-6.42,10.28,10.28,0,0,0-3.86-4.56,9.72,9.72,0,0,0-5.36-1.66,10.68,10.68,0,0,0-7.69,3.34Q629.73,307.08,629.16,313Z"/><path d="M699.26,304.74l-2.48,16-1.69-.26q-0.78-7.82-3.4-11a11.35,11.35,0,0,0-7.33-3.91,8.66,8.66,0,0,0-6.07,1,5.56,5.56,0,0,0-2.85,3.85,7.7,7.7,0,0,0,.88,5.17q1.26,2.34,5.75,5.45l6.91,4.79q9.6,6.68,8.31,15a12.76,12.76,0,0,1-6.43,9.56,17,17,0,0,1-11.43,2.23,37.64,37.64,0,0,1-9.58-3.06,10.13,10.13,0,0,0-2.68-.94,2.06,2.06,0,0,0-2,1l-1.69-.26L666,332.58l1.69,0.26q0.32,7.38,3.8,11.64a13.36,13.36,0,0,0,8.49,5,8.2,8.2,0,0,0,6.08-1.18,6.65,6.65,0,0,0,3-4.64,8,8,0,0,0-1.56-6.32q-2.11-2.79-9-7.62t-8.69-8.16a11.66,11.66,0,0,1-1.16-7.72,13.15,13.15,0,0,1,5.46-9.05,14.2,14.2,0,0,1,10.86-2.3,24.4,24.4,0,0,1,6.52,2.22,16,16,0,0,0,3.36,1.31,2.06,2.06,0,0,0,1.33-.16,5,5,0,0,0,1.32-1.42Z"/><path d="M416.2,1214.5l-0.06,21.43h-1.69a26.7,26.7,0,0,0-2.92-9.83,15.33,15.33,0,0,0-6-5.82,16.74,16.74,0,0,0-8.13-2.17,11.06,11.06,0,0,0-7.87,2.88,8.83,8.83,0,0,0-3.12,6.59,7.82,7.82,0,0,0,2,5.17q2.82,3.43,13.45,9.17a93.16,93.16,0,0,1,11.84,7.18,17.43,17.43,0,0,1,4.87,5.88,15.47,15.47,0,0,1,1.69,7.09,16,16,0,0,1-5.49,12.12q-5.47,5.08-14.06,5.06a29.73,29.73,0,0,1-5.07-.43,51.84,51.84,0,0,1-5.87-1.68,26.34,26.34,0,0,0-5.64-1.45,2.39,2.39,0,0,0-1.81.68,5.46,5.46,0,0,0-1,2.83h-1.69l0.06-21.25h1.69q1.17,6.68,3.17,10a15.36,15.36,0,0,0,6.13,5.52,19.06,19.06,0,0,0,9.06,2.22q5.71,0,9-3a9.34,9.34,0,0,0,3.33-7.12,9.68,9.68,0,0,0-1.24-4.62,13.78,13.78,0,0,0-3.9-4.35,112.09,112.09,0,0,0-9.72-5.85,94.32,94.32,0,0,1-11.29-7.14,19.15,19.15,0,0,1-5.08-5.86,14.51,14.51,0,0,1-1.72-7,15.26,15.26,0,0,1,5.15-11.48,18.24,18.24,0,0,1,13-4.79,26.14,26.14,0,0,1,10.46,2.45,10.76,10.76,0,0,0,3.61,1.15,2.72,2.72,0,0,0,1.94-.7,5.65,5.65,0,0,0,1.22-2.85h1.69Z"/><path d="M451.82,1271.94a68.76,68.76,0,0,1-8.1,5.74,12.36,12.36,0,0,1-5.26,1.13,9.41,9.41,0,0,1-7.14-3,10.9,10.9,0,0,1-2.79-7.82,10,10,0,0,1,1.39-5.3,18.15,18.15,0,0,1,6.53-5.83q4.64-2.73,15.44-6.63v-1.64q0-6.26-2-8.6a7.18,7.18,0,0,0-5.77-2.35,6.5,6.5,0,0,0-4.57,1.54,4.67,4.67,0,0,0-1.75,3.56l0.08,2.65a4.56,4.56,0,0,1-1.08,3.24,3.68,3.68,0,0,1-2.81,1.13,3.55,3.55,0,0,1-2.76-1.2,4.65,4.65,0,0,1-1.06-3.25q0-3.93,4-7.21t11.29-3.26a19.57,19.57,0,0,1,9.13,1.9,8.62,8.62,0,0,1,4,4.44q0.82,2,.8,8l0,14.21a65,65,0,0,0,.21,7.33,3.07,3.07,0,0,0,.75,1.81,1.79,1.79,0,0,0,1.21.46,2.49,2.49,0,0,0,1.28-.32,28.61,28.61,0,0,0,3.71-3.33V1272q-5.14,6.84-9.8,6.83a4.44,4.44,0,0,1-3.56-1.56Q451.86,1275.69,451.82,1271.94Zm0-3,0-15.95a90.44,90.44,0,0,0-8.92,3.86,15.38,15.38,0,0,0-5.17,4.19,8.12,8.12,0,0,0-1.57,4.79,7.83,7.83,0,0,0,2,5.47,6,6,0,0,0,4.52,2.18Q446.15,1273.52,451.83,1269Z"/><path d="M481.93,1222.44l0,13.75,9.78,0v3.2l-9.78,0-0.07,27.14q0,4.07,1.15,5.49a3.7,3.7,0,0,0,3,1.42,5.23,5.23,0,0,0,2.93-.93,6,6,0,0,0,2.2-2.76h1.78a14.34,14.34,0,0,1-4.54,6.73,9.76,9.76,0,0,1-6,2.25,8.1,8.1,0,0,1-4.11-1.18,7,7,0,0,1-3-3.34,17.5,17.5,0,0,1-.94-6.7l0.08-28.15-6.63,0v-1.51a17.36,17.36,0,0,0,5.15-3.39,27,27,0,0,0,4.7-5.68,51,51,0,0,0,2.94-6.34h1.42Z"/><path d="M532.43,1236.33l-0.07,25.36a63.62,63.62,0,0,0,.32,8.89,4,4,0,0,0,1.09,2.26,2.63,2.63,0,0,0,1.76.64,8.12,8.12,0,0,0,3.2-.77l0.64,1.6-12.53,5.13h-2.06l0-8.86q-5.41,5.83-8.24,7.33a12.56,12.56,0,0,1-6,1.49,9.56,9.56,0,0,1-6.09-2,10.5,10.5,0,0,1-3.57-5.24,31.61,31.61,0,0,1-1-9.05l0.05-18.69a9.23,9.23,0,0,0-.63-4.11,4.27,4.27,0,0,0-1.89-1.76,11.15,11.15,0,0,0-4.55-.58v-1.69l14.67,0-0.08,28q0,5.85,2,7.68a7.09,7.09,0,0,0,4.91,1.84,10.25,10.25,0,0,0,4.46-1.22,24.11,24.11,0,0,0,5.93-4.69l0.06-23.72q0-3.56-1.29-4.82t-5.41-1.36v-1.69Z"/><path d="M554.78,1235.16l0,9.41q5.28-9.4,10.81-9.38a5.87,5.87,0,0,1,4.15,1.54,4.71,4.71,0,0,1,1.63,3.55,4.18,4.18,0,0,1-1.2,3,3.8,3.8,0,0,1-2.84,1.23,6,6,0,0,1-3.58-1.59,5.92,5.92,0,0,0-2.94-1.58,2.72,2.72,0,0,0-1.78.91,22,22,0,0,0-4.27,6.16l-0.05,20.06a12.41,12.41,0,0,0,.85,5.26,4.73,4.73,0,0,0,2.1,2.06,9.24,9.24,0,0,0,4.34.83v1.65l-21.43-.06v-1.65a8.89,8.89,0,0,0,4.75-1,3.9,3.9,0,0,0,1.61-2.33,23.52,23.52,0,0,0,.24-4.43l0-16.22a67.35,67.35,0,0,0-.27-8.71,3.41,3.41,0,0,0-1.09-2,3.09,3.09,0,0,0-2-.64,9,9,0,0,0-3.2.68l-0.45-1.65,12.67-5.08h1.92Z"/><path d="M603.15,1273.67a21.14,21.14,0,0,1-6,4.58,14.48,14.48,0,0,1-6.31,1.38q-6.85,0-12-5.77t-5.08-14.75a26.64,26.64,0,0,1,5.71-16.46q5.69-7.45,14.6-7.43a12.56,12.56,0,0,1,9.13,3.54l0-7.72a63.11,63.11,0,0,0-.32-8.82,3.85,3.85,0,0,0-1.07-2.24,2.81,2.81,0,0,0-1.83-.6,9.65,9.65,0,0,0-3.15.72l-0.59-1.6,12.49-5.08h2.06l-0.13,48.39a64.55,64.55,0,0,0,.32,9,4,4,0,0,0,1.09,2.26,2.63,2.63,0,0,0,1.76.64,9.92,9.92,0,0,0,3.29-.77l0.5,1.6-12.44,5.13h-2.1Zm0-3.2,0.06-21.57a14.58,14.58,0,0,0-1.63-5.67,9.48,9.48,0,0,0-3.62-3.87,8.82,8.82,0,0,0-4.41-1.31,9.35,9.35,0,0,0-7.18,3.59q-4.17,4.74-4.2,13.88t4,14.15q4,4.92,8.94,4.94Q599.27,1274.62,603.16,1270.47Z"/><path d="M644.1,1272.45a68.94,68.94,0,0,1-8.1,5.74,12.36,12.36,0,0,1-5.26,1.13,9.41,9.41,0,0,1-7.14-3,10.9,10.9,0,0,1-2.79-7.82,10,10,0,0,1,1.39-5.3,18.15,18.15,0,0,1,6.53-5.83q4.64-2.73,15.44-6.63v-1.64q0-6.26-2-8.6a7.18,7.18,0,0,0-5.77-2.35,6.49,6.49,0,0,0-4.57,1.54,4.67,4.67,0,0,0-1.75,3.56l0.08,2.65a4.56,4.56,0,0,1-1.08,3.24,3.68,3.68,0,0,1-2.81,1.14,3.56,3.56,0,0,1-2.76-1.2,4.66,4.66,0,0,1-1.06-3.25q0-3.93,4-7.21t11.29-3.26a19.58,19.58,0,0,1,9.13,1.9,8.62,8.62,0,0,1,4,4.44q0.82,2,.8,8l0,14.21a65,65,0,0,0,.21,7.33,3.07,3.07,0,0,0,.75,1.81,1.79,1.79,0,0,0,1.21.46,2.49,2.49,0,0,0,1.28-.32,28.51,28.51,0,0,0,3.71-3.33v2.56q-5.14,6.84-9.8,6.83a4.44,4.44,0,0,1-3.56-1.56Q644.13,1276.2,644.1,1272.45Zm0-3,0-15.95a90.27,90.27,0,0,0-8.92,3.86,15.39,15.39,0,0,0-5.17,4.19,8.12,8.12,0,0,0-1.57,4.79,7.83,7.83,0,0,0,2,5.47A6,6,0,0,0,635,1274Q638.43,1274,644.11,1269.48Z"/><path d="M659.64,1236.67l19.51,0.05v1.69h-1a4.6,4.6,0,0,0-3.09.88,2.82,2.82,0,0,0-1,2.21,12.56,12.56,0,0,0,1.49,4.94l10.13,21.14,9.43-23.09a9.62,9.62,0,0,0,.79-3.7,2,2,0,0,0-.32-1.23,2.46,2.46,0,0,0-1.14-.8,8.67,8.67,0,0,0-2.74-.3v-1.69l13.62,0v1.69a6.5,6.5,0,0,0-2.61.72,7.55,7.55,0,0,0-2,2.05,28.4,28.4,0,0,0-1.56,3.51L682,1286.49a21.59,21.59,0,0,1-6.49,9.17q-4,3.1-7.71,3.09a6.39,6.39,0,0,1-4.43-1.57,4.67,4.67,0,0,1-1.73-3.57,4,4,0,0,1,1.26-3.08,4.88,4.88,0,0,1,3.45-1.16,12.32,12.32,0,0,1,4.11,1,9.81,9.81,0,0,0,2.28.69,4.76,4.76,0,0,0,3-1.41q1.63-1.41,3.28-5.47l3-7.26-14.95-31.61a25.38,25.38,0,0,0-2.18-3.52,6.64,6.64,0,0,0-5.25-3.44v-1.69Z"/><path d="M489.72,1489.54l-4.73,12.9-39.58-.11v-1.83q17.51-15.88,24.66-26t7.17-18.43a14.6,14.6,0,0,0-3.88-10.5,12.46,12.46,0,0,0-9.34-4.13,14.61,14.61,0,0,0-8.89,2.87,16.81,16.81,0,0,0-5.84,8.47h-1.83q1.26-9.15,6.4-14a17.77,17.77,0,0,1,12.8-4.86,18.91,18.91,0,0,1,13.62,5.28,16.6,16.6,0,0,1,5.43,12.38,23.94,23.94,0,0,1-2.4,10.19q-3.68,8-11.92,16.94Q459,1492.13,456,1494.89l17.51,0a47.79,47.79,0,0,0,7.5-.38,9.75,9.75,0,0,0,3.89-1.6,10.54,10.54,0,0,0,3-3.43h1.83Z"/><path d="M497.64,1469.33q0-11.48,3.52-19.76t9.24-12.32a15.53,15.53,0,0,1,9.21-3.19q7.72,0,13.83,7.9,7.64,9.77,7.6,26.44,0,11.68-3.42,19.83T529,1500.06q-5.23,3.67-10.08,3.66-9.6,0-15.95-11.37Q497.61,1482.79,497.64,1469.33Zm9.69,1.26q0,13.85,3.35,22.62,2.8,7.38,8.39,7.39a8.77,8.77,0,0,0,5.55-2.38q2.88-2.39,4.38-8,2.3-8.5,2.34-24,0-11.48-2.32-19.15-1.77-5.69-4.58-8.08a7.57,7.57,0,0,0-4.89-1.65,7.78,7.78,0,0,0-6,3q-3.57,4.1-4.88,12.9A119.8,119.8,0,0,0,507.34,1470.59Z"/><path d="M549,1442.11l16.35-7.92H567l-0.15,56.65q0,5.64.45,7a3.67,3.67,0,0,0,1.95,2.13q1.48,0.75,6,.86v1.83l-25.23-.07v-1.83q4.75-.09,6.14-0.8a4.05,4.05,0,0,0,1.93-1.92q0.55-1.21.56-7.25l0.1-36.21a53.36,53.36,0,0,0-.47-9.4,4,4,0,0,0-1.26-2.33,3.38,3.38,0,0,0-2.2-.75,13.18,13.18,0,0,0-5.1,1.52Z"/><path d="M623.08,1434.34v1.83a32.67,32.67,0,0,0-10.67,2.57,29.9,29.9,0,0,0-8.18,5.94,37.71,37.71,0,0,0-6.7,8.91,53.4,53.4,0,0,0-4.46,11.69q7.14-4.88,14.31-4.86a15.63,15.63,0,0,1,11.91,5.57q5,5.56,5,14.26a25.28,25.28,0,0,1-5.14,15.32,19.14,19.14,0,0,1-16.25,8.37,16.34,16.34,0,0,1-11.66-4.58q-9.38-8.88-9.34-23a41.62,41.62,0,0,1,3.66-17.11,44.26,44.26,0,0,1,10.35-14.37q6.72-6.26,12.86-8.43a34.33,34.33,0,0,1,11.43-2.15h2.87Zm-30.87,34.55a85.46,85.46,0,0,0-.92,10.78A34.41,34.41,0,0,0,593,1490a20.19,20.19,0,0,0,5.2,8.85,8.73,8.73,0,0,0,6.13,2.34q4.3,0,7.7-4t3.42-11.57a30.21,30.21,0,0,0-3.32-14.65q-3.35-6.19-9.53-6.21a11.72,11.72,0,0,0-4,.78A39.25,39.25,0,0,0,592.22,1468.89Z"/><path d="M146.82,1360.23c0.08-29.92,18.88-52.1,48.38-52s48,22.36,48,52.28-18.74,52-48.24,51.88S146.74,1390.15,146.82,1360.23Zm75.64,0.2c0.05-20-8.85-35.54-27.17-35.58s-27.73,15.44-27.78,35.44,9.27,35.4,27.59,35.45S222.4,1380.29,222.46,1360.43Z"/><path d="M249.86,1360.64c0.08-29.64,18.6-52.24,48.1-52.16,24.61,0.07,39.11,14.79,41.15,33.81l-20.13-.05c-1.79-10.07-9.32-16.66-21.07-16.69-18.46,0-27.3,15.31-27.36,35.16-0.05,20.41,10.53,35.12,27.31,35.17,11.88,0,20.29-7.08,21.58-17.56l19.85,0.05a35.39,35.39,0,0,1-11.11,23.6c-6.87,6.41-16.53,10.58-30.37,10.54C269.72,1412.43,249.78,1390.7,249.86,1360.64Z"/><path d="M342,1310.56l80.39,0.22,0,17.06-30.06-.08-0.22,82.91-20.27-.05L372,1327.7l-30.06-.08Z"/><path d="M423.24,1361c0.08-29.92,18.88-52.1,48.38-52s48,22.36,48,52.28-18.74,52-48.24,51.88S423.16,1390.89,423.24,1361Zm75.64,0.2c0.05-20-8.85-35.54-27.17-35.58S444,1341,443.93,1361s9.27,35.4,27.59,35.45S498.83,1381,498.88,1361.17Z"/><path d="M530.76,1311.07l44.74,0.12c10.77,0,19,2.71,24.17,7.34,5.44,4.91,7.94,10.93,7.92,18.76,0,10.21-6.34,16.76-15.71,20v0.42c11,3.25,18.56,12.49,18.53,24.8,0,9.37-3,15.79-8.86,20.81s-14.56,7.93-25.19,7.9l-45.86-.12Zm20,83.24,23.35,0.06c9.79,0,15.67-5.41,15.7-13.52,0-9.51-7-14.42-16.18-14.44l-22.79-.06Zm22.07-42.86c8.81,0,14.83-4.15,14.85-12,0-7.41-5.42-11.76-14.37-11.78l-22.37-.06-0.06,23.77Z"/><path d="M622.47,1311.31l73.54,0.2,0,17.06-53.27-.14-0.06,22.37,46.7,0.13,0,16.64-46.7-.13-0.07,27,53.69,0.14,0,16.92-74-.2Z"/><path d="M746.33,1373l-16.5,0-0.1,38.59-21-.06,0.27-100,43.9,0.12c11.6,0,20.26,3.41,26.12,9.44a29.83,29.83,0,0,1,8.89,21.69c0,14-7.34,23.75-19.93,27.91l24.92,41-23.49-.06Zm-16.45-16.54,21,0.06c10.63,0,16.23-4.85,16.25-13.66,0-9.09-5.84-13.58-15.9-13.6l-21.25-.06Z"/><path d="M835,1345l-21.67-.06,0-12.58c11.75-.39,22.24-4.69,24.23-17l16.64,0L854,1411.9l-19.16-.05Z"/><path d="M866.28,1349.65l10.21,0c0.7,6.19,4.22,8.64,11.56,8.66,5.32,0,10-1.84,10-6.59,0-5-4.87-6.05-12.71-7.87-9.2-2.11-17.61-4.58-17.58-15.29,0-10.14,8.31-15.37,19.75-15.34s19,5.73,19.81,16.09l-10,0c-0.56-5.18-4.58-7.78-9.9-7.79-5.61,0-9.28,2.35-9.29,6,0,4.17,3.58,5.4,11.2,7.08,10.57,2.33,19.19,4.87,19.16,15.94,0,10.43-8.46,16.23-20,16.2C874.5,1366.71,866.61,1360.5,866.28,1349.65Z"/><path d="M910,1314.24l41.35,0.11,0,8.77-15.46,0-0.11,42.64-10.43,0,0.11-42.64L910,1323Z"/><path d="M702.29,380.4l-0.46-2.76a20.84,20.84,0,0,0,8.91-8.27,15.3,15.3,0,0,0,2-10.09,3.48,3.48,0,0,0-.9-1.91,1.2,1.2,0,0,0-1-.42,9.27,9.27,0,0,0-2.8,1.75,5.33,5.33,0,0,1-2.29,1,6.71,6.71,0,0,1-5.19-1,6.87,6.87,0,0,1-2.65-4.72,7.06,7.06,0,0,1,1.48-5.66,8.21,8.21,0,0,1,5.38-3.15,9.82,9.82,0,0,1,8,2.39q3.83,3.07,4.81,9a19,19,0,0,1-2.5,12.75Q711.49,375.59,702.29,380.4Z"/><polygon points="1010.38 8.47 1014.45 118.71 1022.39 136.94 1043.66 127.37 1079.02 27.92 1010.38 8.47"/><polygon points="1051.31 140.39 1003.16 160.39 1026.55 196.82 1061.86 178.1 1051.31 140.39"/><text class="cls-1" transform="translate(60.19 1650.71) scale(0.58)"><tspan class="cls-2">N</tspan><tspan x="209.09" y="0">e</tspan><tspan class="cls-3" x="342.2" y="0">w</tspan><tspan x="528.79" y="0"> </tspan><tspan class="cls-4" x="603.77" y="0">Y</tspan><tspan x="775.37" y="0">or</tspan><tspan class="cls-3" x="1025.2" y="0">k</tspan><tspan class="cls-5" x="1145.16" y="0"> City</tspan></text></svg>